<svg width="24" height="24" viewBox="0 0 24 24" fill="none" xmlns="http://www.w3.org/2000/svg">
<path d="M18.9375 4.60875L19.3912 5.0625C19.7437 5.415 19.7437 5.985 19.3912 6.33375L18.3 7.42875L16.5713 5.7L17.6625 4.60875C18.015 4.25625 18.585 4.25625 18.9338 4.60875H18.9375ZM10.2675 12.0075L15.3 6.97125L17.0288 8.7L11.9925 13.7325C11.8838 13.8413 11.7488 13.92 11.6025 13.9612L9.40875 14.5875L10.035 12.3938C10.0763 12.2475 10.155 12.1125 10.2638 12.0037L10.2675 12.0075ZM16.3913 3.3375L8.9925 10.7325C8.66625 11.0588 8.43 11.46 8.30625 11.8987L7.23375 15.6487C7.14375 15.9637 7.23 16.3012 7.4625 16.5337C7.695 16.7662 8.0325 16.8525 8.3475 16.7625L12.0975 15.69C12.54 15.5625 12.9413 15.3263 13.2638 15.0037L20.6625 7.60875C21.7162 6.555 21.7162 4.845 20.6625 3.79125L20.2088 3.3375C19.155 2.28375 17.445 2.28375 16.3913 3.3375ZM5.7 4.8C3.8775 4.8 2.4 6.2775 2.4 8.1V18.3C2.4 20.1225 3.8775 21.6 5.7 21.6H15.9C17.7225 21.6 19.2 20.1225 19.2 18.3V14.1C19.2 13.6012 18.7987 13.2 18.3 13.2C17.8013 13.2 17.4 13.6012 17.4 14.1V18.3C17.4 19.1287 16.7288 19.8 15.9 19.8H5.7C4.87125 19.8 4.2 19.1287 4.2 18.3V8.1C4.2 7.27125 4.87125 6.6 5.7 6.6H9.9C10.3988 6.6 10.8 6.19875 10.8 5.7C10.8 5.20125 10.3988 4.8 9.9 4.8H5.7Z" fill="#0069FE"/>
</svg>
