<svg width="24" height="24" viewBox="0 0 24 24" fill="none" xmlns="http://www.w3.org/2000/svg">
<path d="M11.9998 1.80005C12.4986 1.80005 12.8998 2.2013 12.8998 2.70005V3.6488C16.8186 4.06505 19.9348 7.1813 20.3511 11.1H21.2998C21.7986 11.1 22.1998 11.5013 22.1998 12C22.1998 12.4988 21.7986 12.9 21.2998 12.9H20.3511C19.9348 16.8188 16.8186 19.935 12.8998 20.3513V21.3C12.8998 21.7988 12.4986 22.2001 11.9998 22.2001C11.5011 22.2001 11.0998 21.7988 11.0998 21.3V20.3513C7.18106 19.935 4.0648 16.8188 3.64855 12.9H2.6998C2.20105 12.9 1.7998 12.4988 1.7998 12C1.7998 11.5013 2.20105 11.1 2.6998 11.1H3.64855C4.0648 7.1813 7.18106 4.06505 11.0998 3.6488V2.70005C11.0998 2.2013 11.5011 1.80005 11.9998 1.80005ZM18.5998 12C18.5998 8.35505 15.6448 5.40005 11.9998 5.40005C8.3548 5.40005 5.3998 8.35505 5.3998 12C5.3998 15.645 8.3548 18.6 11.9998 18.6C15.6448 18.6 18.5998 15.645 18.5998 12ZM14.3998 12C14.3998 10.6763 13.3236 9.60005 11.9998 9.60005C10.6761 9.60005 9.5998 10.6763 9.5998 12C9.5998 13.3238 10.6761 14.4 11.9998 14.4C13.3236 14.4 14.3998 13.3238 14.3998 12ZM7.7998 12C7.7998 9.6788 9.67856 7.80005 11.9998 7.80005C14.3211 7.80005 16.1998 9.6788 16.1998 12C16.1998 14.3213 14.3211 16.2 11.9998 16.2C9.67856 16.2 7.7998 14.3213 7.7998 12Z" fill="#0069FE"/>
</svg>
