<svg width="24" height="24" viewBox="0 0 24 24" fill="none" xmlns="http://www.w3.org/2000/svg">
<path d="M12.9001 4.5001C12.9001 4.00135 12.4988 3.6001 12.0001 3.6001C11.5013 3.6001 11.1001 4.00135 11.1001 4.5001V11.1001H4.5001C4.00135 11.1001 3.6001 11.5013 3.6001 12.0001C3.6001 12.4988 4.00135 12.9001 4.5001 12.9001H11.1001V19.5001C11.1001 19.9988 11.5013 20.4001 12.0001 20.4001C12.4988 20.4001 12.9001 19.9988 12.9001 19.5001V12.9001H19.5001C19.9988 12.9001 20.4001 12.4988 20.4001 12.0001C20.4001 11.5013 19.9988 11.1001 19.5001 11.1001H12.9001V4.5001Z" fill="#0069FE"/>
</svg>
