<svg width="22" height="22" viewBox="0 0 22 22" fill="none" xmlns="http://www.w3.org/2000/svg">
<path d="M14.8502 9.34995C14.8502 6.3112 12.3889 3.84995 9.35019 3.84995C6.31144 3.84995 3.8502 6.3112 3.8502 9.34995C3.8502 12.3887 6.31144 14.85 9.35019 14.85C12.3889 14.85 14.8502 12.3887 14.8502 9.34995ZM13.788 14.9565C12.5711 15.9225 11.0277 16.5 9.35019 16.5C5.40051 16.5 2.2002 13.2996 2.2002 9.34995C2.2002 5.40026 5.40051 2.19995 9.35019 2.19995C13.2999 2.19995 16.5002 5.40026 16.5002 9.34995C16.5002 11.0275 15.9227 12.5709 14.9568 13.7878L19.5596 18.3906C19.8827 18.7137 19.8827 19.2362 19.5596 19.5559C19.2364 19.8756 18.7139 19.879 18.3943 19.5559L13.788 14.9565Z" fill="#0E121B"/>
</svg>
