<svg width="24" height="24" viewBox="0 0 24 24" fill="none" xmlns="http://www.w3.org/2000/svg">
<path d="M8.72635 2.6213C8.89135 2.13005 9.34885 1.80005 9.86635 1.80005H14.1376C14.6551 1.80005 15.1126 2.13005 15.2776 2.6213L15.6001 3.60005H19.2001C19.8638 3.60005 20.4001 4.1363 20.4001 4.80005C20.4001 5.4638 19.8638 6.00005 19.2001 6.00005H4.8001C4.13635 6.00005 3.6001 5.4638 3.6001 4.80005C3.6001 4.1363 4.13635 3.60005 4.8001 3.60005H8.4001L8.72635 2.6213ZM4.8001 7.80005H19.2001V19.2C19.2001 20.5238 18.1238 21.6 16.8001 21.6H7.2001C5.87635 21.6 4.8001 20.5238 4.8001 19.2V7.80005ZM8.1001 10.2C7.60135 10.2 7.2001 10.6013 7.2001 11.1V18.3C7.2001 18.7988 7.60135 19.2 8.1001 19.2C8.59885 19.2 9.0001 18.7988 9.0001 18.3V11.1C9.0001 10.6013 8.59885 10.2 8.1001 10.2ZM12.0001 10.2C11.5013 10.2 11.1001 10.6013 11.1001 11.1V18.3C11.1001 18.7988 11.5013 19.2 12.0001 19.2C12.4988 19.2 12.9001 18.7988 12.9001 18.3V11.1C12.9001 10.6013 12.4988 10.2 12.0001 10.2ZM15.9001 10.2C15.4013 10.2 15.0001 10.6013 15.0001 11.1V18.3C15.0001 18.7988 15.4013 19.2 15.9001 19.2C16.3988 19.2 16.8001 18.7988 16.8001 18.3V11.1C16.8001 10.6013 16.3988 10.2 15.9001 10.2Z" fill="white"/>
</svg>
