<svg width="26" height="26" viewBox="0 0 26 26" fill="none" xmlns="http://www.w3.org/2000/svg">
<path d="M5.5047 6.86574C5.12282 6.48387 5.12282 5.86637 5.5047 5.48855C5.88657 5.11074 6.50407 5.10668 6.88189 5.48855L13.0163 11.6229L19.1506 5.48855C19.5325 5.10668 20.15 5.10668 20.5278 5.48855C20.9056 5.87043 20.9097 6.48793 20.5278 6.86574L14.3934 13.0001L20.5278 19.1345C20.9097 19.5164 20.9097 20.1339 20.5278 20.5117C20.1459 20.8895 19.5284 20.8936 19.1506 20.5117L13.0163 14.3773L6.88189 20.5117C6.50001 20.8936 5.88251 20.8936 5.5047 20.5117C5.12689 20.1298 5.12282 19.5123 5.5047 19.1345L11.6391 13.0001L5.5047 6.86574Z" fill="#0069FE"/>
</svg>
