<svg width="18" height="18" viewBox="0 0 18 18" fill="none" xmlns="http://www.w3.org/2000/svg">
<path d="M9.675 1.57499C9.675 1.20093 9.37407 0.899994 9 0.899994C8.62594 0.899994 8.325 1.20093 8.325 1.57499V8.99999C8.325 9.37406 8.62594 9.67499 9 9.67499C9.37407 9.67499 9.675 9.37406 9.675 8.99999V1.57499ZM5.97375 3.99374C6.29157 3.79968 6.39563 3.38624 6.20157 3.06562C6.0075 2.74499 5.59407 2.64374 5.27344 2.83781C3.19219 4.09781 1.8 6.38718 1.8 8.99999C1.8 12.9769 5.02313 16.2 9 16.2C12.9769 16.2 16.2 12.9769 16.2 8.99999C16.2 6.38718 14.8078 4.09781 12.7266 2.83781C12.4088 2.64374 11.9925 2.74781 11.7984 3.06562C11.6044 3.38343 11.7084 3.79968 12.0263 3.99374C13.7194 5.02031 14.85 6.87937 14.85 8.99999C14.85 12.2316 12.2316 14.85 9 14.85C5.76844 14.85 3.15 12.2316 3.15 8.99999C3.15 6.87937 4.28063 5.02031 5.97375 3.99374Z" fill="#00AB1C"/>
</svg>
