<svg width="22" height="22" viewBox="0 0 22 22" fill="none" xmlns="http://www.w3.org/2000/svg">
<path d="M10.9957 14.1262C11.9718 14.1262 12.8565 14.5799 13.4739 15.295C13.5988 15.4416 13.5946 15.6665 13.4653 15.8085L11.2375 18.2232C11.104 18.3698 10.8875 18.3698 10.754 18.2232L8.52616 15.8085C8.39685 15.6664 8.39344 15.4416 8.51857 15.295C9.13588 14.5755 10.0198 14.1262 10.9957 14.1262ZM10.9872 8.94685C13.2771 8.94685 15.3671 9.8954 16.9313 11.449C17.0772 11.591 17.082 11.8342 16.9445 11.9855L15.751 13.2824C15.6217 13.4199 15.4171 13.4289 15.2836 13.2959C14.1033 12.1412 12.5893 11.5136 10.9919 11.5136C9.39439 11.5136 7.87979 12.1455 6.69933 13.2959C6.56585 13.4289 6.36127 13.4199 6.23196 13.2824L5.03935 11.9855C4.90174 11.8343 4.90559 11.5911 5.04314 11.449C6.60728 9.8953 8.69733 8.94696 10.9872 8.94685ZM10.9957 3.6665C14.3953 3.6665 17.7951 5.20639 20.2436 7.71349C20.3813 7.85557 20.3853 8.08975 20.256 8.23642L19.142 9.51458C19.0128 9.66577 18.7962 9.67105 18.6586 9.52916C17.6867 8.53921 16.5772 7.75535 15.3509 7.1916C13.9745 6.56371 12.5103 6.24266 11.0005 6.24261C9.49048 6.24261 8.0256 6.55908 6.64908 7.1916C5.42291 7.75077 4.31324 8.53926 3.34145 9.52916C3.20379 9.67094 2.98718 9.66573 2.85796 9.51458L1.74405 8.23642C1.61474 8.08517 1.61873 7.85099 1.75637 7.71349C4.19652 5.20638 7.59622 3.66655 10.9957 3.6665Z" fill="#00AB1C"/>
</svg>
