<svg width="32" height="32" viewBox="0 0 32 32" fill="none" xmlns="http://www.w3.org/2000/svg">
<path d="M15.505 3.30499C15.935 3.10999 16.44 3.18499 16.79 3.49999L23.59 9.49999C23.855 9.73499 24 10.07 23.995 10.42C23.99 10.77 23.83 11.1 23.56 11.325L17.89 16L23.565 20.675C23.835 20.9 23.995 21.23 24 21.58C24.005 21.93 23.86 22.27 23.595 22.5L16.795 28.5C16.44 28.81 15.94 28.89 15.51 28.695C15.08 28.5 14.8 28.07 14.8 27.6V18.545L9.965 22.53C9.455 22.95 8.695 22.88 8.275 22.365C7.855 21.85 7.925 21.095 8.44 20.675L14.11 16L8.435 11.325C7.925 10.905 7.85 10.15 8.275 9.63499C8.7 9.11999 9.45 9.04999 9.965 9.47499L14.8 13.455V4.39999C14.8 3.92999 15.075 3.49999 15.505 3.30499ZM17.2 18.545V24.945L20.95 21.635L17.2 18.545ZM17.2 13.46L20.95 10.37L17.2 7.05999V13.46Z" fill="#0069FE"/>
</svg>
