<svg width="32" height="32" viewBox="0 0 32 32" fill="none" xmlns="http://www.w3.org/2000/svg">
<path d="M12.855 4.79999C11.92 4.79999 11.045 5.26999 10.525 6.04499L9.225 7.99999H6.4C4.635 7.99999 3.2 9.43499 3.2 11.2V24C3.2 25.765 4.635 27.2 6.4 27.2H25.6C27.365 27.2 28.8 25.765 28.8 24V11.2C28.8 9.43499 27.365 7.99999 25.6 7.99999H22.775L21.475 6.04499C20.955 5.26999 20.08 4.79999 19.145 4.79999H12.855ZM12.52 7.37999C12.595 7.26999 12.72 7.19999 12.855 7.19999H19.14C19.275 7.19999 19.4 7.26499 19.475 7.37999L21.135 9.86999C21.36 10.205 21.73 10.405 22.135 10.405H25.6C26.04 10.405 26.4 10.765 26.4 11.205V24.005C26.4 24.445 26.04 24.805 25.6 24.805L6.4 24.8C5.96 24.8 5.6 24.44 5.6 24V11.2C5.6 10.76 5.96 10.4 6.4 10.4H9.865C10.265 10.4 10.64 10.2 10.865 9.86499L12.525 7.37499L12.52 7.37999ZM16 22.4C19.095 22.4 21.6 19.895 21.6 16.8C21.6 13.705 19.095 11.2 16 11.2C12.905 11.2 10.4 13.705 10.4 16.8C10.4 19.895 12.905 22.4 16 22.4ZM12.8 16.8C12.8 15.035 14.235 13.6 16 13.6C17.765 13.6 19.2 15.035 19.2 16.8C19.2 18.565 17.765 20 16 20C14.235 20 12.8 18.565 12.8 16.8Z" fill="#0069FE"/>
</svg>
