<svg width="28" height="28" viewBox="0 0 28 28" fill="none" xmlns="http://www.w3.org/2000/svg">
<path d="M6.29995 6.30001V10.5H10.5V6.30001H6.29995ZM4.19995 6.30001C4.19995 5.14064 5.14058 4.20001 6.29995 4.20001H10.5C11.6593 4.20001 12.6 5.14064 12.6 6.30001V10.5C12.6 11.6594 11.6593 12.6 10.5 12.6H6.29995C5.14058 12.6 4.19995 11.6594 4.19995 10.5V6.30001ZM6.29995 17.5V21.7H10.5V17.5H6.29995ZM4.19995 17.5C4.19995 16.3406 5.14058 15.4 6.29995 15.4H10.5C11.6593 15.4 12.6 16.3406 12.6 17.5V21.7C12.6 22.8594 11.6593 23.8 10.5 23.8H6.29995C5.14058 23.8 4.19995 22.8594 4.19995 21.7V17.5ZM21.6999 6.30001H17.4999V10.5H21.6999V6.30001ZM17.4999 4.20001H21.6999C22.8593 4.20001 23.7999 5.14064 23.7999 6.30001V10.5C23.7999 11.6594 22.8593 12.6 21.6999 12.6H17.4999C16.3406 12.6 15.4 11.6594 15.4 10.5V6.30001C15.4 5.14064 16.3406 4.20001 17.4999 4.20001ZM16.7999 18.2C16.0256 18.2 15.4 17.5744 15.4 16.8C15.4 16.0256 16.0256 15.4 16.7999 15.4C17.5743 15.4 18.1999 16.0256 18.1999 16.8C18.1999 17.5744 17.5743 18.2 16.7999 18.2ZM16.7999 21C17.5743 21 18.1999 21.6256 18.1999 22.4C18.1999 23.1744 17.5743 23.8 16.7999 23.8C16.0256 23.8 15.4 23.1744 15.4 22.4C15.4 21.6256 16.0256 21 16.7999 21ZM21 22.4C21 21.6256 21.6256 21 22.4 21C23.1743 21 23.7999 21.6256 23.7999 22.4C23.7999 23.1744 23.1743 23.8 22.4 23.8C21.6256 23.8 21 23.1744 21 22.4ZM22.4 18.2C21.6256 18.2 21 17.5744 21 16.8C21 16.0256 21.6256 15.4 22.4 15.4C23.1743 15.4 23.7999 16.0256 23.7999 16.8C23.7999 17.5744 23.1743 18.2 22.4 18.2ZM21 19.6C21 20.3744 20.3743 21 19.5999 21C18.8256 21 18.1999 20.3744 18.1999 19.6C18.1999 18.8256 18.8256 18.2 19.5999 18.2C20.3743 18.2 21 18.8256 21 19.6Z" fill="#0069FE"/>
</svg>
