<svg width="48" height="48" viewBox="0 0 48 48" fill="none" xmlns="http://www.w3.org/2000/svg">
<path d="M27.6598 17.7975C26.5873 17.1675 25.3348 16.8 23.9998 16.8C20.0248 16.8 16.7998 20.025 16.7998 24C16.7998 27.975 20.0248 31.2 23.9998 31.2C27.9748 31.2 31.1998 27.975 31.1998 24H34.7998C34.7998 29.9625 29.9623 34.8 23.9998 34.8C18.0373 34.8 13.1998 29.9625 13.1998 24C13.1998 18.0375 18.0373 13.2 23.9998 13.2C26.3323 13.2 28.4923 13.9425 30.2548 15.195L33.6823 11.7675C31.0273 9.65999 27.6598 8.39999 23.9998 8.39999C15.3823 8.39999 8.3998 15.3825 8.3998 24C8.3998 32.6175 15.3823 39.6 23.9998 39.6C32.6173 39.6 39.5998 32.6175 39.5998 24H43.1998C43.1998 34.605 34.6048 43.2 23.9998 43.2C13.3948 43.2 4.7998 34.605 4.7998 24C4.7998 13.395 13.3948 4.79999 23.9998 4.79999C28.6573 4.79999 32.9173 6.45749 36.2473 9.20999L39.5248 5.92499C40.2298 5.21999 41.3698 5.21999 42.0673 5.92499C42.7648 6.62999 42.7723 7.76999 42.0673 8.46749L25.2748 25.275C24.5698 25.98 23.4298 25.98 22.7323 25.275C22.0348 24.57 22.0273 23.43 22.7323 22.7325L27.6598 17.805V17.7975Z" fill="#FE171B"/>
</svg>
