<svg width="131" height="115" viewBox="0 0 131 115" fill="none" xmlns="http://www.w3.org/2000/svg">
<path d="M91.4739 107.925V109.362H39.5261V107.925H91.4739ZM80.4425 71.9564V65.8864L69.1411 54.5885C68.7439 54.1915 68.3517 53.8034 68.0825 53.4641C67.9806 53.3356 67.838 53.1427 67.7184 52.8983L46.7 73.9119C46.594 74.0179 46.3307 74.3045 45.9774 74.4847C45.8707 74.5389 45.7628 74.5821 45.6611 74.6152C45.2836 74.7375 44.8926 74.7219 44.7416 74.7219H34.9093C34.3474 74.7219 33.7953 74.7241 33.3643 74.6742C32.9894 74.6308 32.2185 74.5073 31.7223 73.8249C31.5689 73.6137 31.4564 73.379 31.3878 73.1342L31.3343 72.8871C31.2026 72.0554 31.6579 71.423 31.8924 71.1268C32.1618 70.7866 32.5534 70.3984 32.951 70.0009L61.8716 41.0881C61.9775 40.9822 62.2421 40.6957 62.5956 40.5153C62.7109 40.4566 62.8211 40.4147 62.9133 40.3848C63.2896 40.263 63.6773 40.278 63.8299 40.2781V41.7156C63.5902 41.7156 63.4697 41.7164 63.3589 41.7521C63.3224 41.764 63.285 41.7782 63.2507 41.7956C63.1467 41.8486 63.0609 41.9344 62.8908 42.1044L33.9703 71.0173L33.4135 71.5802C32.9389 72.0751 32.7115 72.3841 32.7556 72.6625C32.7738 72.777 32.8183 72.8859 32.8864 72.9798C33.0521 73.2079 33.432 73.266 34.1179 73.2802L34.9093 73.2844H44.7416C44.9824 73.2844 45.1043 73.2839 45.2154 73.2479L45.3223 73.2044C45.3742 73.1779 45.4214 73.1426 45.4769 73.0935L45.6821 72.8956L74.6027 43.9827C75.4516 43.134 75.8761 42.7087 75.8173 42.3375C75.7991 42.2227 75.7535 42.1142 75.6852 42.0202C75.5194 41.7922 75.1408 41.734 74.4551 41.7198L73.6636 41.7156V40.2781C74.2252 40.2781 74.7764 40.276 75.2072 40.3258C75.5586 40.3665 76.2598 40.4767 76.755 41.053L76.8506 41.1751C77.0042 41.3865 77.1166 41.6211 77.1852 41.8658L77.2386 42.1129C77.3704 42.9445 76.9136 43.5755 76.6791 43.8718C76.4098 44.2121 76.0196 44.6015 75.6219 44.9991L70.7479 49.8703C70.8635 49.87 70.9805 49.8689 71.098 49.8689V51.3064C69.8974 51.3064 69.296 51.3069 69.075 51.611C69.007 51.7049 68.9625 51.8139 68.9443 51.9283C68.8857 52.2994 69.3104 52.7239 70.1589 53.5721L81.4926 64.9037C81.6623 65.0733 81.7475 65.1593 81.8005 65.2631C81.8179 65.2972 81.8336 65.3333 81.8455 65.3698C81.8814 65.4807 81.882 65.6025 81.882 65.8428V71.9564L81.8834 72.3228C81.8901 72.6426 81.9173 72.8345 82.0226 72.9798C82.0679 73.0421 82.122 73.0987 82.1843 73.144C82.3298 73.2497 82.5229 73.275 82.8436 73.2816L83.2091 73.2844H90.1469C90.6303 73.2844 90.9026 73.2846 91.093 73.1904L91.1703 73.144C91.2015 73.1214 91.2302 73.0954 91.2574 73.0682L91.3334 72.9798C91.4738 72.7859 91.4739 72.509 91.4739 71.9564V61.8462C91.4739 61.6057 91.4735 61.4841 91.4374 61.3731C91.4255 61.3367 91.4112 61.3006 91.3938 61.2664C91.3408 61.1626 91.2557 61.0768 91.0859 60.907L81.8708 51.6953C81.7006 51.5251 81.6149 51.4395 81.5109 51.3864C81.4766 51.369 81.4406 51.3534 81.404 51.3415C81.2929 51.3054 81.1711 51.3064 80.9303 51.3064H71.098V49.8689H80.4425V43.0436C80.4425 42.7987 80.4398 42.5 80.4678 42.242C80.4987 41.9574 80.5792 41.5576 80.8572 41.1751C80.9862 40.9978 81.1477 40.8334 81.338 40.695C81.7215 40.4165 82.1229 40.3356 82.4078 40.3047C82.6659 40.2768 82.9646 40.2781 83.2091 40.2781V41.7156C82.6561 41.7156 82.3782 41.7151 82.1843 41.856C82.122 41.9013 82.0679 41.9579 82.0226 42.0202C81.882 42.2141 81.882 42.4909 81.882 43.0436V49.9784L81.8834 50.3448C81.8901 50.6646 81.917 50.8564 82.0226 51.0018C82.068 51.0642 82.1219 51.1206 82.1843 51.166C82.3782 51.3068 82.6561 51.3064 83.2091 51.3064H90.1469C90.6303 51.3064 90.9026 51.3066 91.093 51.2123L91.1703 51.166C91.2014 51.1434 91.2303 51.1176 91.2574 51.0902L91.3334 51.0018C91.4739 50.8079 91.4739 50.5308 91.4739 49.9784V43.0436C91.4739 42.491 91.4738 42.2141 91.3334 42.0202C91.2879 41.9577 91.2328 41.9014 91.1703 41.856C91.0249 41.7504 90.8325 41.725 90.5124 41.7184L90.1469 41.7156V40.2781C90.3914 40.2781 90.6901 40.2767 90.9482 40.3047C91.1977 40.3318 91.535 40.3963 91.8718 40.5981L92.0166 40.6936L92.1501 40.7989C92.2367 40.8727 92.3176 40.9535 92.3919 41.0403L92.4974 41.1751C92.7754 41.5577 92.8573 41.9574 92.8882 42.242C92.9162 42.5 92.9135 42.7987 92.9135 43.0436V49.9784C92.9135 50.2233 92.9149 50.522 92.8868 50.78C92.8558 51.0647 92.776 51.4635 92.4988 51.8455L92.4974 51.8469C92.3682 52.0244 92.2077 52.1896 92.0166 52.3284L92.0152 52.3298C91.6326 52.6069 91.2331 52.6877 90.9482 52.7186C90.6901 52.7467 90.3916 52.7439 90.1469 52.7439H84.9537L92.1038 59.8921C92.2112 59.9995 92.4962 60.2618 92.6759 60.6136C92.7026 60.666 92.7274 60.7197 92.749 60.7723L92.8067 60.9295C92.9292 61.3065 92.9135 61.695 92.9135 61.8462V71.9564C92.9135 72.2013 92.9162 72.5 92.8882 72.758C92.8611 73.007 92.795 73.3438 92.593 73.6803L92.4974 73.8249C92.3626 74.0102 92.2001 74.1731 92.0166 74.3064C91.6337 74.5843 91.2334 74.6643 90.9482 74.6953C90.6901 74.7233 90.3914 74.7219 90.1469 74.7219H83.2091C82.9646 74.7219 82.6659 74.7232 82.4078 74.6953C82.1229 74.6644 81.7215 74.5849 81.338 74.3064C81.1477 74.168 80.9876 74.0022 80.8586 73.8249C80.5806 73.4424 80.4987 73.0426 80.4678 72.758C80.4398 72.5 80.4425 72.2013 80.4425 71.9564ZM90.1469 40.2781V41.7156H83.2091V40.2781H90.1469ZM73.6636 40.2781V41.7156H63.8299V40.2781H73.6636ZM26.4632 2.26294C21.7223 2.38276 17.3113 3.82859 13.5887 6.24274C12.7906 6.76031 13.1817 8.30968 13.8164 9.01807C14.2593 9.51194 15.02 9.77607 15.599 9.48413L15.7129 9.41956C16.7747 8.71352 17.9007 8.09448 19.0812 7.57214L19.5901 7.35315C23.2218 5.8516 27.7043 5.66401 35.8175 5.6405H95.1825C103.296 5.66401 107.778 5.8516 111.41 7.35315C112.776 7.91804 114.073 8.61163 115.286 9.41815C115.802 9.76124 116.505 9.60177 116.99 9.20337L117.182 9.01807C117.778 8.35441 118.159 6.95187 117.548 6.35223L117.411 6.24274C113.689 3.82844 109.278 2.38276 104.537 2.26294L103.897 2.25452H27.1028L26.4632 2.26294ZM123.913 39.4611C123.913 34.1883 123.913 30.3055 123.702 27.2213C123.492 24.15 123.078 21.9757 122.304 20.1082C121.774 18.8313 121.124 17.6188 120.368 16.4849C119.899 15.7831 119.866 14.9931 120.022 14.3553C120.176 13.7256 120.532 13.1471 121.006 12.7227C121.594 12.1972 122.431 11.8339 123.223 11.7204C123.563 11.6717 124.023 11.6573 124.491 11.7695C122.996 9.76585 121.215 7.98752 119.208 6.49542C119.321 6.96351 119.307 7.42334 119.259 7.76306C119.145 8.55452 118.782 9.39128 118.255 9.97827C117.83 10.4519 117.25 10.8057 116.62 10.9595C115.981 11.1152 115.191 11.0825 114.489 10.6156C113.353 9.86033 112.138 9.21148 110.859 8.68256C108.988 7.90909 106.81 7.49535 103.734 7.28577C100.645 7.07529 96.7554 7.0752 91.4739 7.0752H39.5261C34.2446 7.0752 30.3553 7.07529 27.2659 7.28577C24.1896 7.49535 22.0118 7.90909 20.1412 8.68256C18.8615 9.21173 17.646 9.86025 16.51 10.6156C15.8075 11.0825 15.0172 11.1153 14.3787 10.9595C13.7486 10.8057 13.17 10.4517 12.7452 9.97827C12.2187 9.39121 11.8537 8.55451 11.74 7.76306C11.6913 7.42391 11.6769 6.96432 11.7892 6.49683C9.78272 7.98871 8.00194 9.7664 6.50754 11.7695C6.97572 11.6573 7.43586 11.6718 7.77559 11.7204C8.56813 11.8339 9.40611 12.197 9.99398 12.7227C10.4685 13.1471 10.8225 13.7258 10.9766 14.3553C11.1327 14.9929 11.1001 15.7819 10.6322 16.4835C9.87578 17.6175 9.22636 18.8308 8.69641 20.1082C7.92166 21.9757 7.50754 24.15 7.29762 27.2213C7.08681 30.3055 7.08674 34.1883 7.08674 39.4611V75.5389C7.08674 80.8117 7.08681 84.6945 7.29762 87.7787C7.50754 90.85 7.92166 93.0243 8.69641 94.8918C9.22612 96.1686 9.87585 97.3814 10.6322 98.5151C11.1001 99.2167 11.1326 100.006 10.9766 100.643C10.8226 101.273 10.4683 101.851 9.99398 102.276C9.40608 102.802 8.5683 103.166 7.77559 103.28C7.43586 103.328 6.97587 103.341 6.50754 103.229C8.00191 105.232 9.78269 107.01 11.7892 108.502C11.6772 108.034 11.6913 107.574 11.74 107.236C11.8539 106.444 12.2188 105.609 12.7452 105.022C13.17 104.548 13.7484 104.193 14.3787 104.039C14.9376 103.903 15.6134 103.911 16.2443 104.229L16.5114 104.384L16.9401 104.662C17.9512 105.3 19.0216 105.854 20.1412 106.317C22.0118 107.091 24.1896 107.505 27.2659 107.714C30.3553 107.925 34.2446 107.925 39.5261 107.925V109.362L35.8175 109.359C27.9939 109.337 23.5463 109.162 19.9823 107.803L19.5901 107.647C18.2235 107.082 16.9261 106.387 15.7129 105.58C15.1236 105.188 14.2904 105.454 13.8178 105.981L13.7011 106.122C13.1374 106.878 12.8389 108.272 13.5873 108.757C17.2343 111.122 21.5423 112.559 26.1736 112.729L27.1028 112.745H103.897C108.57 112.745 112.94 111.456 116.673 109.216L117.411 108.756C118.159 108.271 117.862 106.879 117.299 106.124L117.182 105.981C116.709 105.454 115.875 105.188 115.286 105.58C114.073 106.387 112.776 107.082 111.41 107.647L111.018 107.803C106.926 109.363 101.668 109.362 91.4739 109.362V107.925C96.7554 107.925 100.645 107.925 103.734 107.714C106.81 107.505 108.988 107.091 110.859 106.317C112.137 105.789 113.352 105.14 114.487 104.384L114.754 104.229C115.385 103.911 116.061 103.903 116.62 104.039C117.25 104.193 117.83 104.548 118.255 105.022C118.781 105.609 119.146 106.444 119.26 107.236C119.309 107.575 119.321 108.035 119.208 108.503C121.215 107.011 122.996 105.233 124.491 103.229C124.023 103.341 123.563 103.328 123.223 103.28C122.431 103.166 121.594 102.802 121.006 102.276C120.532 101.851 120.176 101.273 120.022 100.643C119.866 100.005 119.899 99.2156 120.368 98.5137L120.646 98.0855C121.285 97.0766 121.84 96.0089 122.304 94.8918C123.078 93.0243 123.492 90.85 123.702 87.7787C123.913 84.6945 123.913 80.8117 123.913 75.5389V39.4611ZM125.353 75.5389C125.353 86.0451 125.353 91.2983 123.633 95.4421C123.068 96.8059 122.374 98.1003 121.566 99.311C121.173 99.8997 121.439 100.732 121.966 101.205C122.631 101.799 124.035 102.181 124.636 101.57L124.745 101.435C127.164 97.7184 128.614 93.314 128.734 88.5803L128.741 87.9416V27.0584C128.741 22.0821 127.273 17.4486 124.745 13.565C124.227 12.7681 122.675 13.1597 121.966 13.7938C121.439 14.2658 121.173 15.0989 121.566 15.6876C122.374 16.8986 123.068 18.1937 123.633 19.5579C125.353 23.7017 125.353 28.9549 125.353 39.4611V75.5389ZM2.25915 87.9416L2.27602 88.8695C2.4464 93.493 3.88439 97.794 6.25309 101.435C6.77221 102.231 8.32342 101.839 9.0324 101.205C9.52698 100.762 9.79278 100.003 9.50054 99.4247L9.43446 99.311C8.72758 98.2515 8.1074 97.1283 7.5844 95.9503L7.3665 95.4421C5.86227 91.8163 5.67353 87.3413 5.64999 79.2408L5.64718 39.4611C5.64718 29.2834 5.64621 24.0349 7.20905 19.9495L7.3665 19.5579C7.86174 18.3642 8.45452 17.2232 9.13643 16.1452L9.43446 15.6876C9.82714 15.0989 9.56006 14.2657 9.0324 13.7938C8.32316 13.16 6.77161 12.7682 6.25309 13.565C3.72625 17.4485 2.25924 22.0825 2.25915 27.0584V87.9416ZM131 87.9416L130.992 88.6393C130.627 103.029 119.009 114.627 104.596 114.992L103.897 115H27.1028C12.3681 115 0.379317 103.261 0.00843492 88.6393L0 87.9416V27.0584C0.00022447 12.1146 12.1344 0.000340379 27.1028 0H103.897L104.596 0.00842285C119.241 0.378731 131 12.3478 131 27.0584V87.9416Z" fill="#0E121B"/>
<path d="M66.1094 87.6176C66.1094 87.2754 65.8377 87 65.5 87C65.1623 87 64.8906 87.2754 64.8906 87.6176V94.4118C64.8906 94.754 65.1623 95.0294 65.5 95.0294C65.8377 95.0294 66.1094 94.754 66.1094 94.4118V87.6176ZM62.768 89.8309C63.0549 89.6533 63.1488 89.275 62.9736 88.9816C62.7984 88.6882 62.4252 88.5956 62.1357 88.7732C60.2568 89.9261 59 92.021 59 94.4118C59 98.0507 61.9098 101 65.5 101C69.0902 101 72 98.0507 72 94.4118C72 92.021 70.7432 89.9261 68.8643 88.7732C68.5773 88.5956 68.2016 88.6908 68.0264 88.9816C67.8512 89.2724 67.9451 89.6533 68.232 89.8309C69.7605 90.7702 70.7812 92.4713 70.7812 94.4118C70.7812 97.3688 68.4174 99.7647 65.5 99.7647C62.5826 99.7647 60.2188 97.3688 60.2188 94.4118C60.2188 92.4713 61.2395 90.7702 62.768 89.8309Z" fill="black"/>
</svg>
