<svg width="24" height="24" viewBox="0 0 24 24" fill="none" xmlns="http://www.w3.org/2000/svg">
<path d="M6.59999 3.59998C5.60624 3.59998 4.79999 4.40623 4.79999 5.39998V18.6C4.79999 19.5937 5.60624 20.4 6.59999 20.4H8.99999C9.99374 20.4 10.8 19.5937 10.8 18.6V5.39998C10.8 4.40623 9.99374 3.59998 8.99999 3.59998H6.59999ZM15 3.59998C14.0062 3.59998 13.2 4.40623 13.2 5.39998V18.6C13.2 19.5937 14.0062 20.4 15 20.4H17.4C18.3937 20.4 19.2 19.5937 19.2 18.6V5.39998C19.2 4.40623 18.3937 3.59998 17.4 3.59998H15Z" fill="white"/>
</svg>
