<svg width="24" height="24" viewBox="0 0 24 24" fill="none" xmlns="http://www.w3.org/2000/svg">
<path d="M12 2.39999C11.5012 2.39999 11.1 2.80124 11.1 3.29999V3.66374C8.04748 4.09874 5.69998 6.72749 5.69998 9.89999V10.4437C5.69998 11.8575 5.32498 13.245 4.61248 14.4675L3.79123 15.87C3.66748 16.0875 3.59998 16.3312 3.59998 16.5825C3.59998 17.3662 4.23373 18 5.01748 18H18.9825C19.7662 18 20.4 17.3662 20.4 16.5825C20.4 16.3312 20.3325 16.0837 20.2087 15.87L19.3875 14.4637C18.675 13.2412 18.3 11.8537 18.3 10.44V9.89624C18.3 6.72374 15.9525 4.09499 12.9 3.65999V3.29624C12.9 2.79749 12.4987 2.39624 12 2.39624V2.39999ZM18.315 16.2H5.68123L6.16498 15.3712C7.03873 13.875 7.49998 12.1725 7.49998 10.4437V9.89999C7.49998 7.41374 9.51373 5.39999 12 5.39999C14.4862 5.39999 16.5 7.41374 16.5 9.89999V10.4437C16.5 12.1762 16.9612 13.875 17.8312 15.3712L18.315 16.2ZM9.45373 19.8C9.82498 20.85 10.8262 21.6 12 21.6C13.1737 21.6 14.175 20.85 14.5462 19.8H9.45373Z" fill="#0E121B"/>
</svg>
