<svg width="24" height="24" viewBox="0 0 24 24" fill="none" xmlns="http://www.w3.org/2000/svg">
<path d="M16.2 10.2C16.2 6.88499 13.515 4.19999 10.2 4.19999C6.88502 4.19999 4.20002 6.88499 4.20002 10.2C4.20002 13.515 6.88502 16.2 10.2 16.2C13.515 16.2 16.2 13.515 16.2 10.2ZM15.0413 16.3162C13.7138 17.37 12.03 18 10.2 18C5.89127 18 2.40002 14.5087 2.40002 10.2C2.40002 5.89124 5.89127 2.39999 10.2 2.39999C14.5088 2.39999 18 5.89124 18 10.2C18 12.03 17.37 13.7137 16.3163 15.0412L21.3375 20.0625C21.69 20.415 21.69 20.985 21.3375 21.3337C20.985 21.6825 20.415 21.6862 20.0663 21.3337L15.0413 16.3162Z" fill="#0E121B"/>
</svg>
