<svg width="24" height="24" viewBox="0 0 24 24" fill="none" xmlns="http://www.w3.org/2000/svg">
<path opacity="0.4" d="M5.21252 17.0925C4.74377 17.5612 4.74377 18.3225 5.21252 18.7912C5.68127 19.26 6.44252 19.26 6.91127 18.7912L8.61002 17.0925C9.07877 16.6237 9.07877 15.8625 8.61002 15.3937C8.14127 14.925 7.38002 14.925 6.91127 15.3937L5.21252 17.0925ZM10.8 18V20.4C10.8 21.0637 11.3363 21.6 12 21.6C12.6638 21.6 13.2 21.0637 13.2 20.4V18C13.2 17.3362 12.6638 16.8 12 16.8C11.3363 16.8 10.8 17.3362 10.8 18ZM15.3938 6.90749C14.925 7.37624 14.925 8.13749 15.3938 8.60624C15.8625 9.07499 16.6238 9.07499 17.0925 8.60624L18.7875 6.90749C19.2563 6.43874 19.2563 5.67749 18.7875 5.20874C18.3188 4.73999 17.5575 4.73999 17.0888 5.20874L15.39 6.90749H15.3938ZM15.3938 15.3937C14.925 15.8625 14.925 16.6237 15.3938 17.0925L17.0925 18.7875C17.5613 19.2562 18.3225 19.2562 18.7913 18.7875C19.26 18.3187 19.26 17.5575 18.7913 17.0887L17.0925 15.39C16.6238 14.9212 15.8625 14.9212 15.3938 15.39V15.3937ZM16.8 12C16.8 12.6637 17.3363 13.2 18 13.2H20.4C21.0638 13.2 21.6 12.6637 21.6 12C21.6 11.3362 21.0638 10.8 20.4 10.8H18C17.3363 10.8 16.8 11.3362 16.8 12Z" fill="#0069FE"/>
<path d="M12 2.40002C11.3363 2.40002 10.8 2.93627 10.8 3.60002V6.00002C10.8 6.66377 11.3363 7.20002 12 7.20002C12.6638 7.20002 13.2 6.66377 13.2 6.00002V3.60002C13.2 2.93627 12.6638 2.40002 12 2.40002ZM2.40002 12C2.40002 12.6638 2.93627 13.2 3.60002 13.2H6.00002C6.66377 13.2 7.20003 12.6638 7.20003 12C7.20003 11.3363 6.66377 10.8 6.00002 10.8H3.60002C2.93627 10.8 2.40002 11.3363 2.40002 12ZM6.90753 5.21252C6.43878 4.74377 5.68127 4.74377 5.21252 5.21252C4.74377 5.68127 4.74377 6.44252 5.21252 6.91127L6.91128 8.61002C7.38003 9.07877 8.14128 9.07877 8.61003 8.61002C9.07878 8.14127 9.07878 7.38002 8.61003 6.91127L6.90753 5.21252Z" fill="#0069FE"/>
</svg>
