<svg width="26" height="26" viewBox="0 0 26 26" fill="none" xmlns="http://www.w3.org/2000/svg">
<path d="M12.995 16.6946C14.1485 16.6946 15.194 17.2308 15.9236 18.0759C16.0713 18.2492 16.0663 18.515 15.9136 18.6828L13.2807 21.5365C13.1229 21.7098 12.867 21.7098 12.7093 21.5365L10.0764 18.6828C9.92355 18.5149 9.91951 18.2492 10.0674 18.0759C10.7969 17.2256 11.8416 16.6946 12.995 16.6946Z" fill="#0E121B"/>
<path d="M12.9851 10.5735C15.6913 10.5735 18.1613 11.6945 20.0099 13.5306C20.1823 13.6984 20.188 13.9858 20.0256 14.1646L18.615 15.6973C18.4622 15.8598 18.2204 15.8704 18.0626 15.7133C16.6677 14.3486 14.8784 13.607 12.9907 13.6069C11.1026 13.6069 9.31266 14.3538 7.91757 15.7133C7.75982 15.8704 7.51804 15.8598 7.36522 15.6973L5.95578 14.1646C5.79315 13.9859 5.7977 13.6985 5.96026 13.5306C7.80879 11.6944 10.2788 10.5736 12.9851 10.5735Z" fill="#0E121B"/>
<path d="M12.9952 4.33301C17.0128 4.33301 21.0308 6.15288 23.9245 9.11581C24.0872 9.28374 24.0919 9.56049 23.9391 9.73382L22.6226 11.2444C22.4699 11.4231 22.2139 11.4293 22.0512 11.2616C20.9027 10.0917 19.5914 9.16529 18.1422 8.49903C16.5155 7.75699 14.7851 7.37757 13.0008 7.37751C11.2162 7.37751 9.48499 7.75151 7.85819 8.49903C6.40908 9.15987 5.09765 10.0917 3.94918 11.2616C3.78648 11.4292 3.53049 11.423 3.37778 11.2444L2.06133 9.73382C1.90851 9.55507 1.91323 9.27832 2.07589 9.11581C4.95971 6.15287 8.97753 4.33308 12.9952 4.33301Z" fill="#0E121B"/>
</svg>
