<svg width="22" height="22" viewBox="0 0 22 22" fill="none" xmlns="http://www.w3.org/2000/svg">
<path d="M11.0004 19.8C7.35664 19.8 4.40039 16.8438 4.40039 13.2C4.40039 10.065 8.87602 3.77784 10.1273 2.07971C10.3301 1.80471 10.6498 1.65002 10.9935 1.65002H11.0073C11.351 1.65002 11.6707 1.80471 11.8735 2.07971C13.1248 3.77784 17.6004 10.065 17.6004 13.2C17.6004 16.8438 14.6441 19.8 11.0004 19.8ZM8.25039 12.925C8.25039 12.4678 7.88258 12.1 7.42539 12.1C6.9682 12.1 6.60039 12.4678 6.60039 12.925C6.60039 15.5066 8.69383 17.6 11.2754 17.6C11.7326 17.6 12.1004 17.2322 12.1004 16.775C12.1004 16.3178 11.7326 15.95 11.2754 15.95C9.60477 15.95 8.25039 14.5957 8.25039 12.925Z" fill="#0069FE"/>
</svg>
