<svg width="22" height="22" viewBox="0 0 22 22" fill="none" xmlns="http://www.w3.org/2000/svg">
<path d="M11.0004 19.8C7.35664 19.8 4.40039 16.8438 4.40039 13.2C4.40039 10.065 8.87602 3.77784 10.1273 2.07971C10.3301 1.80471 10.6498 1.65002 10.9935 1.65002H11.0073C11.351 1.65002 11.6707 1.80471 11.8735 2.07971C13.1248 3.77784 17.6004 10.065 17.6004 13.2C17.6004 16.8438 14.6441 19.8 11.0004 19.8ZM9.07539 12.1C9.53258 12.1 9.90039 11.7322 9.90039 11.275C9.90039 10.8178 9.53258 10.45 9.07539 10.45C8.6182 10.45 8.25039 10.8178 8.25039 11.275C8.25039 11.7322 8.6182 12.1 9.07539 12.1ZM12.341 10.6906L8.49102 14.5406C8.16789 14.8638 8.16789 15.3863 8.49102 15.706C8.81414 16.0256 9.33664 16.0291 9.65633 15.706L13.5098 11.8594C13.8329 11.5363 13.8329 11.0138 13.5098 10.6941C13.1866 10.3744 12.6641 10.371 12.3445 10.6941L12.341 10.6906ZM13.7504 15.125C13.7504 14.6678 13.3826 14.3 12.9254 14.3C12.4682 14.3 12.1004 14.6678 12.1004 15.125C12.1004 15.5822 12.4682 15.95 12.9254 15.95C13.3826 15.95 13.7504 15.5822 13.7504 15.125Z" fill="#00AB1C"/>
</svg>
