<svg width="18" height="18" viewBox="0 0 18 18" fill="none" xmlns="http://www.w3.org/2000/svg">
<path d="M9.6752 3.37501C9.6752 3.00095 9.37426 2.70001 9.0002 2.70001C8.62613 2.70001 8.3252 3.00095 8.3252 3.37501V8.32501H3.3752C3.00113 8.32501 2.7002 8.62595 2.7002 9.00001C2.7002 9.37407 3.00113 9.67501 3.3752 9.67501H8.3252V14.625C8.3252 14.9991 8.62613 15.3 9.0002 15.3C9.37426 15.3 9.6752 14.9991 9.6752 14.625V9.67501H14.6252C14.9993 9.67501 15.3002 9.37407 15.3002 9.00001C15.3002 8.62595 14.9993 8.32501 14.6252 8.32501H9.6752V3.37501Z" fill="#0E121B"/>
</svg>
