<svg width="22" height="22" viewBox="0 0 22 22" fill="none" xmlns="http://www.w3.org/2000/svg">
<path d="M12.1073 2.20001C12.1073 1.59157 11.6157 1.10001 11.0073 1.10001C10.3989 1.10001 9.9073 1.59157 9.9073 2.20001V4.33469L9.39168 3.81907C9.06855 3.49594 8.54605 3.49594 8.22637 3.81907C7.90668 4.14219 7.90324 4.66469 8.22637 4.98438L9.91074 6.66876V9.09563L7.80699 7.88219L7.19168 5.58251C7.0748 5.14251 6.62105 4.88126 6.18105 4.99813C5.74105 5.11501 5.47637 5.56876 5.59324 6.00876L5.7823 6.71344L3.93637 5.64782C3.41043 5.34532 2.73668 5.52407 2.43418 6.05001C2.13168 6.57594 2.31043 7.24969 2.83637 7.55219L4.6823 8.61782L3.97762 8.80688C3.53762 8.92376 3.27637 9.37751 3.39324 9.81751C3.51012 10.2575 3.96387 10.5188 4.40387 10.4019L6.70355 9.78657L8.8073 11L6.70355 12.2134L4.40387 11.5981C3.96387 11.4813 3.51012 11.7425 3.39324 12.1825C3.27637 12.6225 3.53762 13.0763 3.97762 13.1931L4.6823 13.3822L2.83637 14.4478C2.31043 14.7503 2.13168 15.4241 2.43418 15.95C2.73668 16.4759 3.41043 16.6581 3.93637 16.3522L5.7823 15.2866L5.59324 15.9913C5.47637 16.4313 5.73762 16.885 6.17762 17.0019C6.61762 17.1188 7.07137 16.8575 7.18824 16.4175L7.80355 14.1178L9.9073 12.9044V15.3313L8.22293 17.0156C7.8998 17.3388 7.8998 17.8613 8.22293 18.1809C8.54605 18.5006 9.06855 18.5041 9.38824 18.1809L9.90387 17.6653V19.8C9.90387 20.4084 10.3954 20.9 11.0039 20.9C11.6123 20.9 12.1039 20.4084 12.1039 19.8V17.6653L12.6195 18.1809C12.9426 18.5041 13.4651 18.5041 13.7848 18.1809C14.1045 17.8578 14.1079 17.3353 13.7848 17.0156L12.1004 15.3313V12.9044L14.2042 14.1178L14.8195 16.4175C14.9364 16.8575 15.3901 17.1188 15.8301 17.0019C16.2701 16.885 16.5314 16.4313 16.4145 15.9913L16.2254 15.2866L18.0714 16.3522C18.5973 16.6547 19.2711 16.4759 19.5736 15.95C19.8761 15.4241 19.6973 14.7503 19.1714 14.4478L17.3254 13.3822L18.0301 13.1931C18.4701 13.0763 18.7314 12.6225 18.6145 12.1825C18.4976 11.7425 18.0439 11.4813 17.6039 11.5981L15.3042 12.2134L13.2004 11L15.3042 9.78657L17.6039 10.4019C18.0439 10.5188 18.4976 10.2575 18.6145 9.81751C18.7314 9.37751 18.4701 8.92376 18.0301 8.80688L17.3254 8.61782L19.1714 7.55219C19.6973 7.24969 19.8795 6.57594 19.5736 6.05001C19.2676 5.52407 18.5973 5.34532 18.0714 5.64782L16.2254 6.71344L16.4145 6.00876C16.5314 5.56876 16.2701 5.11501 15.8301 4.99813C15.3901 4.88126 14.9364 5.14251 14.8195 5.58251L14.2042 7.88219L12.1004 9.09563V6.66876L13.7848 4.98438C14.1079 4.66126 14.1079 4.13876 13.7848 3.81907C13.4617 3.49938 12.9392 3.49594 12.6195 3.81907L12.1039 4.33469V2.20001H12.1073Z" fill="#70ABFF"/>
</svg>
