<svg width="22" height="22" viewBox="0 0 22 22" fill="none" xmlns="http://www.w3.org/2000/svg">
<path d="M7.22524 1.8528C7.47962 1.74624 7.76837 1.77718 7.99868 1.92843L11.0168 3.92905L14.0349 1.92843C14.2652 1.77718 14.554 1.74968 14.8084 1.8528C15.0627 1.95593 15.2415 2.1828 15.2965 2.45093L16.0149 5.99843L19.5624 6.71687C19.8306 6.77187 20.0574 6.95749 20.1606 7.20843C20.2637 7.45937 20.2362 7.75155 20.0849 7.98187L18.0843 11L20.0849 14.0181C20.2362 14.2484 20.2637 14.5372 20.1606 14.7916C20.0574 15.0459 19.8306 15.2316 19.5624 15.2831L16.0115 15.9981L15.2965 19.5491C15.2415 19.8172 15.0559 20.0441 14.8049 20.1472C14.554 20.2503 14.2618 20.2228 14.0315 20.0716L11.0134 18.0709L7.99524 20.0716C7.76493 20.2228 7.47618 20.2503 7.2218 20.1472C6.96743 20.0441 6.7818 19.8172 6.73024 19.5491L6.01524 15.9981L2.4643 15.2797C2.19618 15.2247 1.9693 15.0391 1.86618 14.7881C1.76305 14.5372 1.79055 14.245 1.9418 14.0147L3.94243 11L1.9418 7.98187C1.79055 7.75155 1.76305 7.4628 1.86618 7.20843C1.9693 6.95405 2.19618 6.76843 2.4643 6.71687L6.01524 6.00187L6.73368 2.45093C6.78868 2.1828 6.9743 1.95593 7.22524 1.8528ZM8.23587 11C8.23587 9.47374 9.47337 8.23624 10.9996 8.23624C12.5259 8.23624 13.7634 9.47374 13.7634 11C13.7634 12.5262 12.5259 13.7637 10.9996 13.7637C9.47337 13.7637 8.23587 12.5262 8.23587 11ZM15.4134 11C15.4134 8.5628 13.4368 6.58624 10.9996 6.58624C8.56243 6.58624 6.58587 8.5628 6.58587 11C6.58587 13.4372 8.56243 15.4137 10.9996 15.4137C13.4368 15.4137 15.4134 13.4372 15.4134 11Z" fill="#FE5E14"/>
</svg>
