<svg width="22" height="22" viewBox="0 0 22 22" fill="none" xmlns="http://www.w3.org/2000/svg">
<path d="M12.1002 3.3C12.1002 3.90843 12.5918 4.4 13.2002 4.4H14.5752C15.0324 4.4 15.4002 4.76781 15.4002 5.225C15.4002 5.68218 15.0324 6.05 14.5752 6.05H3.3002C2.69176 6.05 2.2002 6.54156 2.2002 7.15C2.2002 7.75843 2.69176 8.25 3.3002 8.25H14.5752C16.2458 8.25 17.6002 6.89562 17.6002 5.225C17.6002 3.55437 16.2458 2.2 14.5752 2.2H13.2002C12.5918 2.2 12.1002 2.69156 12.1002 3.3ZM14.3002 15.4C14.3002 16.0084 14.7918 16.5 15.4002 16.5H16.5002C18.3221 16.5 19.8002 15.0219 19.8002 13.2C19.8002 11.3781 18.3221 9.9 16.5002 9.9H3.3002C2.69176 9.9 2.2002 10.3916 2.2002 11C2.2002 11.6084 2.69176 12.1 3.3002 12.1H16.5002C17.1086 12.1 17.6002 12.5916 17.6002 13.2C17.6002 13.8084 17.1086 14.3 16.5002 14.3H15.4002C14.7918 14.3 14.3002 14.7916 14.3002 15.4ZM6.6002 19.8H7.9752C9.64582 19.8 11.0002 18.4456 11.0002 16.775C11.0002 15.1044 9.64582 13.75 7.9752 13.75H3.3002C2.69176 13.75 2.2002 14.2416 2.2002 14.85C2.2002 15.4584 2.69176 15.95 3.3002 15.95H7.9752C8.43238 15.95 8.8002 16.3178 8.8002 16.775C8.8002 17.2322 8.43238 17.6 7.9752 17.6H6.6002C5.99176 17.6 5.5002 18.0916 5.5002 18.7C5.5002 19.3084 5.99176 19.8 6.6002 19.8Z" fill="#FE171B"/>
</svg>
