<svg width="24" height="24" viewBox="0 0 24 24" fill="none" xmlns="http://www.w3.org/2000/svg">
<path d="M12.0004 21.6C6.69789 21.6 2.40039 17.3025 2.40039 12C2.40039 6.69753 6.69789 2.40002 12.0004 2.40002C17.3029 2.40002 21.6004 6.69753 21.6004 12C21.6004 17.3025 17.3029 21.6 12.0004 21.6ZM16.4254 7.86377C16.0241 7.57127 15.4616 7.66127 15.1691 8.06252L10.6916 14.22L8.73789 12.2663C8.38539 11.9138 7.81539 11.9138 7.46664 12.2663C7.11789 12.6188 7.11414 13.1888 7.46664 13.5375L10.1666 16.2375C10.3541 16.425 10.6091 16.5188 10.8716 16.5C11.1341 16.4813 11.3741 16.3463 11.5279 16.1325L16.6241 9.12002C16.9166 8.71877 16.8266 8.15627 16.4254 7.86377Z" fill="#00AB1C"/>
</svg>
