<svg width="24" height="24" viewBox="0 0 24 24" fill="none" xmlns="http://www.w3.org/2000/svg">
<path d="M6.00039 14.4C4.01289 14.4 2.40039 12.7875 2.40039 10.8C2.40039 9.20625 3.43539 7.8525 4.87164 7.38C4.82289 7.12875 4.80039 6.86625 4.80039 6.6C4.80039 4.27875 6.67914 2.4 9.00039 2.4C10.6166 2.4 12.0191 3.31125 12.7204 4.65C13.2716 4.00875 14.0891 3.6 15.0004 3.6C16.6579 3.6 18.0004 4.9425 18.0004 6.6C18.0004 6.80625 17.9779 7.005 17.9404 7.2C17.9591 7.2 17.9816 7.2 18.0004 7.2C19.9879 7.2 21.6004 8.8125 21.6004 10.8C21.6004 12.7875 19.9879 14.4 18.0004 14.4H6.00039ZM4.80039 16.2C5.29914 16.2 5.70039 16.6013 5.70039 17.1V18.9C5.70039 19.3988 5.29914 19.8 4.80039 19.8C4.30164 19.8 3.90039 19.3988 3.90039 18.9V17.1C3.90039 16.6013 4.30164 16.2 4.80039 16.2ZM12.0004 16.2C12.4991 16.2 12.9004 16.6013 12.9004 17.1V18.9C12.9004 19.3988 12.4991 19.8 12.0004 19.8C11.5016 19.8 11.1004 19.3988 11.1004 18.9V17.1C11.1004 16.6013 11.5016 16.2 12.0004 16.2ZM19.2004 16.2C19.6991 16.2 20.1004 16.6013 20.1004 17.1V18.9C20.1004 19.3988 19.6991 19.8 19.2004 19.8C18.7016 19.8 18.3004 19.3988 18.3004 18.9V17.1C18.3004 16.6013 18.7016 16.2 19.2004 16.2ZM8.40039 18C8.89914 18 9.30039 18.4013 9.30039 18.9V20.7C9.30039 21.1987 8.89914 21.6 8.40039 21.6C7.90164 21.6 7.50039 21.1987 7.50039 20.7V18.9C7.50039 18.4013 7.90164 18 8.40039 18ZM15.6004 18C16.0991 18 16.5004 18.4013 16.5004 18.9V20.7C16.5004 21.1987 16.0991 21.6 15.6004 21.6C15.1016 21.6 14.7004 21.1987 14.7004 20.7V18.9C14.7004 18.4013 15.1016 18 15.6004 18Z" fill="#FE171B"/>
</svg>
