<svg width="20" height="20" viewBox="0 0 20 20" fill="none" xmlns="http://www.w3.org/2000/svg">
<path d="M9.6 19.2C4.2975 19.2 0 14.9025 0 9.6C0 4.2975 4.2975 0 9.6 0C14.9025 0 19.2 4.2975 19.2 9.6C19.2 14.9025 14.9025 19.2 9.6 19.2ZM9.6 12C8.93625 12 8.4 12.5363 8.4 13.2C8.4 13.8638 8.93625 14.4 9.6 14.4C10.2638 14.4 10.8 13.8638 10.8 13.2C10.8 12.5363 10.2638 12 9.6 12ZM9.6 4.8C8.9175 4.8 8.37375 5.38125 8.4225 6.06375L8.7 9.96375C8.73375 10.4363 9.1275 10.8 9.59625 10.8C10.0688 10.8 10.4587 10.4363 10.4925 9.96375L10.77 6.06375C10.8188 5.38125 10.2787 4.8 9.5925 4.8H9.6Z" fill="#FE171B"/>
</svg>
