<svg width="24" height="24" viewBox="0 0 24 24" fill="none" xmlns="http://www.w3.org/2000/svg">
<path d="M15.1384 4.01625C14.7034 3.6 14.0621 3.48375 13.5109 3.72C12.9596 3.95625 12.5996 4.5 12.5996 5.1V10.2112L6.13836 4.02C5.70336 3.6 5.06211 3.48375 4.51086 3.72C3.95961 3.95625 3.59961 4.5 3.59961 5.1V18.9C3.59961 19.5 3.95961 20.0437 4.51086 20.28C5.06211 20.5162 5.70336 20.4 6.13836 19.9837L12.5996 13.7887V18.9C12.5996 19.5 12.9596 20.0437 13.5109 20.28C14.0621 20.5162 14.7034 20.4 15.1384 19.9837L22.3384 13.0837C22.6346 12.8025 22.7996 12.4087 22.7996 12C22.7996 11.5912 22.6309 11.2012 22.3384 10.9162L15.1384 4.01625Z" fill="#0069FE"/>
</svg>
