<svg width="24" height="24" viewBox="0 0 24 24" fill="none" xmlns="http://www.w3.org/2000/svg">
<path d="M2.40039 12C2.40039 6.6975 6.69789 2.4 12.0004 2.4C17.3029 2.4 21.6004 6.6975 21.6004 12C21.6004 17.3025 17.3029 21.6 12.0004 21.6C6.69789 21.6 2.40039 17.3025 2.40039 12ZM14.4004 15.6C14.4004 14.2763 13.3241 13.2 12.0004 13.2C11.9366 13.2 11.8729 13.2038 11.8091 13.2075L9.20664 7.99875C8.98539 7.5525 8.44539 7.3725 7.99914 7.5975C7.55289 7.8225 7.37289 8.35875 7.59789 8.805L10.2004 14.0138C9.82539 14.4375 9.60039 14.9925 9.60039 15.6C9.60039 16.9238 10.6766 18 12.0004 18C13.3241 18 14.4004 16.9238 14.4004 15.6Z" fill="#FE171B"/>
</svg>
