<svg width="20" height="20" viewBox="0 0 20 20" fill="none" xmlns="http://www.w3.org/2000/svg">
<path d="M9.6 19.2C14.9025 19.2 19.2 14.9025 19.2 9.6C19.2 4.2975 14.9025 0 9.6 0C4.2975 0 0 4.2975 0 9.6C0 14.9025 4.2975 19.2 9.6 19.2ZM8.4 6C8.4 5.33625 8.93625 4.8 9.6 4.8C10.2638 4.8 10.8 5.33625 10.8 6C10.8 6.66375 10.2638 7.2 9.6 7.2C8.93625 7.2 8.4 6.66375 8.4 6ZM8.1 8.4H9.9C10.3988 8.4 10.8 8.80125 10.8 9.3V12.6H11.1C11.5988 12.6 12 13.0013 12 13.5C12 13.9988 11.5988 14.4 11.1 14.4H8.1C7.60125 14.4 7.2 13.9988 7.2 13.5C7.2 13.0013 7.60125 12.6 8.1 12.6H9V10.2H8.1C7.60125 10.2 7.2 9.79875 7.2 9.3C7.2 8.80125 7.60125 8.4 8.1 8.4Z" fill="#0069FE"/>
</svg>
