<svg width="24" height="24" viewBox="0 0 24 24" fill="none" xmlns="http://www.w3.org/2000/svg">
<path d="M15.0527 14.325C15.6977 14.1787 16.3427 14.5875 16.4852 15.2325C16.9015 17.1 16.4102 19.1737 15.139 20.8425C14.7377 21.3675 13.984 21.4688 13.459 21.0675C12.934 20.6662 12.8327 19.9125 13.234 19.3875C14.1152 18.2325 14.3927 16.875 14.1452 15.7575C14.0027 15.1125 14.4077 14.4675 15.0565 14.325H15.0527ZM10.7552 16.1325C11.1265 15.5813 11.869 15.435 12.4202 15.8062C12.9715 16.1775 13.1177 16.92 12.7465 17.4712C11.6777 19.0612 9.83646 20.13 7.75146 20.3588C7.09146 20.43 6.50271 19.9537 6.43146 19.2937C6.36021 18.6337 6.83646 18.045 7.49646 17.97C8.94396 17.8125 10.1177 17.0813 10.7552 16.1325ZM15.8215 11.595C16.1927 11.0437 16.9352 10.8975 17.4865 11.2688C19.0765 12.3375 20.1452 14.1788 20.374 16.2638C20.4452 16.9237 19.969 17.5125 19.309 17.5875C18.649 17.6587 18.0602 17.1825 17.9852 16.5225C17.8277 15.075 17.0965 13.9012 16.1477 13.2638C15.5965 12.8925 15.4502 12.15 15.8215 11.5987V11.595ZM2.94771 13.4437C3.34896 12.9187 4.10271 12.8175 4.62771 13.2187C5.78271 14.1 7.14021 14.3775 8.25771 14.13C8.90271 13.9875 9.54771 14.3925 9.69021 15.0412C9.83271 15.69 9.42771 16.3312 8.78271 16.4737C6.91521 16.89 4.84146 16.3987 3.17271 15.1275C2.64771 14.7262 2.54646 13.9725 2.94771 13.4475V13.4437ZM11.9852 13.5C11.1565 13.4925 10.4927 12.81 10.504 11.985C10.5115 11.1562 11.1902 10.4925 12.019 10.5C12.8477 10.5075 13.5115 11.19 13.504 12.0188C13.4927 12.8438 12.814 13.5075 11.9852 13.5ZM4.72521 6.41625C5.38521 6.345 5.97396 6.82125 6.04521 7.48125C6.20271 8.92875 6.93396 10.1025 7.88271 10.74C8.43396 11.1112 8.58021 11.8537 8.20896 12.405C7.83771 12.9562 7.09521 13.1025 6.54396 12.7312C4.95396 11.6625 3.88521 9.82125 3.65646 7.73625C3.58521 7.07625 4.06146 6.4875 4.72146 6.4125L4.72521 6.41625ZM15.2515 7.53C17.119 7.11375 19.1927 7.605 20.8615 8.87625C21.3865 9.2775 21.4877 10.0312 21.0865 10.5562C20.6852 11.0813 19.9315 11.1825 19.4065 10.7812C18.2515 9.9 16.894 9.6225 15.7765 9.87C15.1315 10.0163 14.4865 9.6075 14.344 8.9625C14.2015 8.3175 14.6065 7.6725 15.2515 7.53ZM8.89146 3.1575C9.29271 2.6325 10.0465 2.53125 10.5715 2.9325C11.0965 3.33375 11.1977 4.0875 10.7965 4.6125C9.91521 5.7675 9.63771 7.125 9.88521 8.2425C10.0315 8.8875 9.62271 9.5325 8.97771 9.675C8.33271 9.8175 7.68771 9.4125 7.54521 8.7675C7.12896 6.9 7.62021 4.82625 8.89146 3.1575ZM16.279 3.645C16.939 3.57375 17.5277 4.05 17.6027 4.71C17.674 5.37 17.1977 5.95875 16.5377 6.03C15.0902 6.1875 13.9165 6.91875 13.279 7.8675C12.9077 8.41875 12.1652 8.565 11.614 8.19375C11.0627 7.8225 10.9165 7.08 11.2877 6.52875C12.3565 4.93875 14.1977 3.87 16.2827 3.64125L16.279 3.645Z" fill="#FE171B"/>
</svg>
