<svg width="24" height="24" viewBox="0 0 24 24" fill="none" xmlns="http://www.w3.org/2000/svg">
<path d="M13.2071 2.40001C13.2071 1.73626 12.6708 1.20001 12.0071 1.20001C11.3433 1.20001 10.8071 1.73626 10.8071 2.40001V4.72876L10.2446 4.16626C9.89208 3.81376 9.32208 3.81376 8.97333 4.16626C8.62458 4.51876 8.62083 5.08876 8.97333 5.43751L10.8108 7.27501V9.92251L8.51583 8.59876L7.84458 6.09001C7.71708 5.61001 7.22208 5.32501 6.74208 5.45251C6.26208 5.58001 5.97333 6.07501 6.10083 6.55501L6.30708 7.32376L4.29333 6.16126C3.71958 5.83126 2.98458 6.02626 2.65458 6.60001C2.32458 7.17376 2.51958 7.90876 3.09333 8.23876L5.10708 9.40126L4.33833 9.60751C3.85833 9.73501 3.57333 10.23 3.70083 10.71C3.82833 11.19 4.32333 11.475 4.80333 11.3475L7.31208 10.6763L9.60708 12L7.31208 13.3238L4.80333 12.6525C4.32333 12.525 3.82833 12.81 3.70083 13.29C3.57333 13.77 3.85833 14.265 4.33833 14.3925L5.10708 14.5988L3.09333 15.7613C2.51958 16.0913 2.32458 16.8263 2.65458 17.4C2.98458 17.9738 3.71958 18.1725 4.29333 17.8388L6.30708 16.6763L6.10083 17.445C5.97333 17.925 6.25833 18.42 6.73833 18.5475C7.21833 18.675 7.71333 18.39 7.84083 17.91L8.51208 15.4013L10.8071 14.0775V16.725L8.96958 18.5625C8.61708 18.915 8.61708 19.485 8.96958 19.8338C9.32208 20.1825 9.89208 20.1863 10.2408 19.8338L10.8033 19.2713V21.6C10.8033 22.2638 11.3396 22.8 12.0033 22.8C12.6671 22.8 13.2033 22.2638 13.2033 21.6V19.2713L13.7658 19.8338C14.1183 20.1863 14.6883 20.1863 15.0371 19.8338C15.3858 19.4813 15.3896 18.9113 15.0371 18.5625L13.1996 16.725V14.0775L15.4946 15.4013L16.1658 17.91C16.2933 18.39 16.7883 18.675 17.2683 18.5475C17.7483 18.42 18.0333 17.925 17.9058 17.445L17.6996 16.6763L19.7133 17.8388C20.2871 18.1688 21.0221 17.9738 21.3521 17.4C21.6821 16.8263 21.4871 16.0913 20.9133 15.7613L18.8996 14.5988L19.6683 14.3925C20.1483 14.265 20.4333 13.77 20.3058 13.29C20.1783 12.81 19.6833 12.525 19.2033 12.6525L16.6946 13.3238L14.3996 12L16.6946 10.6763L19.2033 11.3475C19.6833 11.475 20.1783 11.19 20.3058 10.71C20.4333 10.23 20.1483 9.73501 19.6683 9.60751L18.8996 9.40126L20.9133 8.23876C21.4871 7.90876 21.6858 7.17376 21.3521 6.60001C21.0183 6.02626 20.2871 5.83126 19.7133 6.16126L17.6996 7.32376L17.9058 6.55501C18.0333 6.07501 17.7483 5.58001 17.2683 5.45251C16.7883 5.32501 16.2933 5.61001 16.1658 6.09001L15.4946 8.59876L13.1996 9.92251V7.27501L15.0371 5.43751C15.3896 5.08501 15.3896 4.51501 15.0371 4.16626C14.6846 3.81751 14.1146 3.81376 13.7658 4.16626L13.2033 4.72876V2.40001H13.2071Z" fill="#FE171B"/>
</svg>
