<svg width="24" height="24" viewBox="0 0 24 24" fill="none" xmlns="http://www.w3.org/2000/svg">
<path d="M7.88208 2.02125C8.15958 1.905 8.47458 1.93875 8.72583 2.10375L12.0183 4.28625L15.3108 2.10375C15.5621 1.93875 15.8771 1.90875 16.1546 2.02125C16.4321 2.13375 16.6271 2.38125 16.6871 2.67375L17.4708 6.54375L21.3408 7.3275C21.6333 7.3875 21.8808 7.59 21.9933 7.86375C22.1058 8.1375 22.0758 8.45625 21.9108 8.7075L19.7283 12L21.9108 15.2925C22.0758 15.5437 22.1058 15.8587 21.9933 16.1362C21.8808 16.4137 21.6333 16.6162 21.3408 16.6725L17.4671 17.4525L16.6871 21.3262C16.6271 21.6187 16.4246 21.8662 16.1508 21.9787C15.8771 22.0912 15.5583 22.0612 15.3071 21.8962L12.0146 19.7137L8.72208 21.8962C8.47083 22.0612 8.15583 22.0912 7.87833 21.9787C7.60083 21.8662 7.39833 21.6187 7.34208 21.3262L6.56208 17.4525L2.68833 16.6687C2.39583 16.6087 2.14833 16.4062 2.03583 16.1325C1.92333 15.8587 1.95333 15.54 2.11833 15.2887L4.30083 12L2.11833 8.7075C1.95333 8.45625 1.92333 8.14125 2.03583 7.86375C2.14833 7.58625 2.39583 7.38375 2.68833 7.3275L6.56208 6.5475L7.34583 2.67375C7.40583 2.38125 7.60833 2.13375 7.88208 2.02125ZM8.98458 12C8.98458 10.335 10.3346 8.985 11.9996 8.985C13.6646 8.985 15.0146 10.335 15.0146 12C15.0146 13.665 13.6646 15.015 11.9996 15.015C10.3346 15.015 8.98458 13.665 8.98458 12ZM16.8146 12C16.8146 9.34125 14.6583 7.185 11.9996 7.185C9.34083 7.185 7.18458 9.34125 7.18458 12C7.18458 14.6587 9.34083 16.815 11.9996 16.815C14.6583 16.815 16.8146 14.6587 16.8146 12Z" fill="#FE5E14"/>
</svg>
