<svg width="24" height="24" viewBox="0 0 24 24" fill="none" xmlns="http://www.w3.org/2000/svg">
<path d="M14.1528 6.35249L13.2003 7.30124V3.59999C13.2003 2.93624 12.664 2.39999 12.0003 2.39999C11.3365 2.39999 10.8003 2.93624 10.8003 3.59999V7.30124L9.84778 6.34874C9.37903 5.87999 8.61778 5.87999 8.14903 6.34874C7.68028 6.81749 7.68028 7.57874 8.14903 8.04749L11.149 11.0475C11.6178 11.5162 12.379 11.5162 12.8478 11.0475L15.8478 8.04749C16.3165 7.57874 16.3165 6.81749 15.8478 6.34874C15.379 5.87999 14.6178 5.87999 14.149 6.34874L14.1528 6.35249ZM17.7978 15.4537C18.574 16.0387 19.5228 16.605 20.5803 16.7475C21.0715 16.815 21.5253 16.4662 21.5928 15.975C21.6603 15.4837 21.3115 15.03 20.8203 14.9625C20.224 14.8837 19.5753 14.5387 18.8815 14.0175C17.4415 12.93 15.4878 12.93 14.044 14.0175C13.144 14.6962 12.5178 15.0037 12.0003 15.0037C11.4828 15.0037 10.8565 14.6962 9.95653 14.0175C8.51653 12.93 6.56278 12.93 5.11903 14.0175C4.42528 14.5387 3.77653 14.8837 3.18028 14.9625C2.68903 15.03 2.34028 15.48 2.40778 15.975C2.47528 16.47 2.92528 16.815 3.42028 16.7475C4.47778 16.605 5.43028 16.0387 6.20278 15.4537C7.00153 14.85 8.07403 14.85 8.87278 15.4537C9.78028 16.14 10.834 16.8 12.0003 16.8C13.1665 16.8 14.2165 16.1362 15.1278 15.4537C15.9265 14.85 16.999 14.85 17.7978 15.4537ZM17.7978 20.2537C18.574 20.8387 19.5228 21.405 20.5803 21.5475C21.0715 21.615 21.5253 21.2662 21.5928 20.775C21.6603 20.2837 21.3115 19.83 20.8203 19.7625C20.224 19.6837 19.5753 19.3387 18.8815 18.8175C17.4415 17.73 15.4878 17.73 14.044 18.8175C13.144 19.4962 12.5178 19.8037 12.0003 19.8037C11.4828 19.8037 10.8565 19.4962 9.95653 18.8175C8.51653 17.73 6.56278 17.73 5.11903 18.8175C4.42528 19.3387 3.77653 19.6837 3.18028 19.7625C2.68903 19.83 2.34028 20.28 2.40778 20.775C2.47528 21.27 2.92528 21.615 3.42028 21.5475C4.47778 21.405 5.43028 20.8387 6.20278 20.2537C7.00153 19.65 8.07403 19.65 8.87278 20.2537C9.78028 20.94 10.834 21.6 12.0003 21.6C13.1665 21.6 14.2165 20.9362 15.1278 20.2537C15.9265 19.65 16.999 19.65 17.7978 20.2537Z" fill="#FE171B"/>
</svg>
