<svg width="24" height="24" viewBox="0 0 24 24" fill="none" xmlns="http://www.w3.org/2000/svg">
<path d="M13.2004 3.59999C13.2004 4.26374 13.7366 4.79999 14.4004 4.79999H15.9004C16.3991 4.79999 16.8004 5.20124 16.8004 5.69999C16.8004 6.19874 16.3991 6.59999 15.9004 6.59999H3.60039C2.93664 6.59999 2.40039 7.13624 2.40039 7.79999C2.40039 8.46374 2.93664 8.99999 3.60039 8.99999H15.9004C17.7229 8.99999 19.2004 7.52249 19.2004 5.69999C19.2004 3.87749 17.7229 2.39999 15.9004 2.39999H14.4004C13.7366 2.39999 13.2004 2.93624 13.2004 3.59999ZM15.6004 16.8C15.6004 17.4637 16.1366 18 16.8004 18H18.0004C19.9879 18 21.6004 16.3875 21.6004 14.4C21.6004 12.4125 19.9879 10.8 18.0004 10.8H3.60039C2.93664 10.8 2.40039 11.3362 2.40039 12C2.40039 12.6637 2.93664 13.2 3.60039 13.2H18.0004C18.6641 13.2 19.2004 13.7362 19.2004 14.4C19.2004 15.0637 18.6641 15.6 18.0004 15.6H16.8004C16.1366 15.6 15.6004 16.1362 15.6004 16.8ZM7.20039 21.6H8.70039C10.5229 21.6 12.0004 20.1225 12.0004 18.3C12.0004 16.4775 10.5229 15 8.70039 15H3.60039C2.93664 15 2.40039 15.5362 2.40039 16.2C2.40039 16.8637 2.93664 17.4 3.60039 17.4H8.70039C9.19914 17.4 9.60039 17.8012 9.60039 18.3C9.60039 18.7987 9.19914 19.2 8.70039 19.2H7.20039C6.53664 19.2 6.00039 19.7362 6.00039 20.4C6.00039 21.0637 6.53664 21.6 7.20039 21.6Z" fill="#FE171B"/>
</svg>
