<svg width="24" height="24" viewBox="0 0 24 24" fill="none" xmlns="http://www.w3.org/2000/svg">
<path d="M4.79961 10.2C9.76836 10.2 13.7996 14.2313 13.7996 19.2C13.7996 19.8638 13.2634 20.4 12.5996 20.4C11.9359 20.4 11.3996 19.8638 11.3996 19.2C11.3996 15.555 8.44461 12.6 4.79961 12.6C4.13586 12.6 3.59961 12.0638 3.59961 11.4C3.59961 10.7363 4.13586 10.2 4.79961 10.2ZM4.79961 3.60001C13.4134 3.60001 20.3996 10.5863 20.3996 19.2C20.3996 19.8638 19.8634 20.4 19.1996 20.4C18.5359 20.4 17.9996 19.8638 17.9996 19.2C17.9996 11.91 12.0896 6.00001 4.79961 6.00001C4.13586 6.00001 3.59961 5.46376 3.59961 4.80001C3.59961 4.13626 4.13586 3.60001 4.79961 3.60001ZM6.67461 19.8713C5.96961 20.5763 4.83336 20.5763 4.12836 19.8713C3.42336 19.1663 3.42336 18.03 4.12836 17.325C4.83336 16.62 5.96961 16.62 6.67461 17.325C7.37961 18.03 7.37961 19.1663 6.67461 19.8713Z" fill="#FE171B"/>
</svg>
