<svg width="20" height="20" viewBox="0 0 20 20" fill="none" xmlns="http://www.w3.org/2000/svg">
<path d="M12.0062 3.5C13.8437 3.5 15.5218 4.18125 16.8 5.30937C17.1093 5.58437 17.5844 5.55313 17.8594 5.24375C18.1343 4.93438 18.1031 4.45937 17.7937 4.18437C16.25 2.825 14.225 2 12.0062 2C9.78748 2 7.7656 2.825 6.22185 4.18437C5.91248 4.45937 5.88123 4.93125 6.15623 5.24375C6.43123 5.55625 6.9031 5.58437 7.2156 5.30937C8.49373 4.18125 10.1687 3.5 12.0062 3.5ZM12.7562 9.75C12.7562 9.33437 12.4219 9 12.0062 9C11.5906 9 11.2562 9.33437 11.2562 9.75V11H4.00623C2.9031 11 2.00623 11.8969 2.00623 13V15C2.00623 16.1031 2.9031 17 4.00623 17H16.0062C17.1094 17 18.0062 16.1031 18.0062 15V13C18.0062 11.8969 17.1094 11 16.0062 11H12.7562V9.75ZM4.00623 12.5H16.0062C16.2812 12.5 16.5062 12.725 16.5062 13V15C16.5062 15.275 16.2812 15.5 16.0062 15.5H4.00623C3.73123 15.5 3.50623 15.275 3.50623 15V13C3.50623 12.725 3.73123 12.5 4.00623 12.5ZM9.64685 7.83437C10.2937 7.3125 11.1125 7 12.0062 7C12.9 7 13.7219 7.3125 14.3656 7.83437C14.6875 8.09375 15.1594 8.04688 15.4219 7.725C15.6844 7.40312 15.6343 6.93125 15.3125 6.66875C14.4094 5.9375 13.2562 5.5 12.0062 5.5C10.7562 5.5 9.60623 5.9375 8.7031 6.66875C8.38123 6.92812 8.33123 7.40312 8.59373 7.725C8.85623 8.04688 9.3281 8.09687 9.64998 7.83437H9.64685ZM5.00623 14C5.00623 14.4156 5.3406 14.75 5.75623 14.75C6.17185 14.75 6.50623 14.4156 6.50623 14C6.50623 13.5844 6.17185 13.25 5.75623 13.25C5.3406 13.25 5.00623 13.5844 5.00623 14ZM8.75623 13.25C8.3406 13.25 8.00623 13.5844 8.00623 14C8.00623 14.4156 8.3406 14.75 8.75623 14.75C9.17185 14.75 9.50623 14.4156 9.50623 14C9.50623 13.5844 9.17185 13.25 8.75623 13.25Z" fill="#FE171B"/>
</svg>
