<svg width="20" height="20" viewBox="0 0 20 20" fill="none" xmlns="http://www.w3.org/2000/svg">
<path d="M10.75 3.75C10.75 3.33438 10.4156 3 10 3C9.58437 3 9.25 3.33438 9.25 3.75V4H6.75C6.33437 4 6 4.33438 6 4.75C6 5.16563 6.33437 5.5 6.75 5.5H9.25V8H3.5V7.75C3.5 7.33438 3.16562 7 2.75 7C2.33437 7 2 7.33438 2 7.75V16.25C2 16.6656 2.33437 17 2.75 17C3.16562 17 3.5 16.6656 3.5 16.25V16H16.5V16.25C16.5 16.6656 16.8344 17 17.25 17C17.6656 17 18 16.6656 18 16.25V7.75C18 7.33438 17.6656 7 17.25 7C16.8344 7 16.5 7.33438 16.5 7.75V8H10.75V5.5H13.25C13.6656 5.5 14 5.16563 14 4.75C14 4.33438 13.6656 4 13.25 4H10.75V3.75ZM3.5 14.5V9.5H16.5V14.5H3.5Z" fill="#0069FE"/>
</svg>
