<svg width="32" height="32" viewBox="0 0 32 32" fill="none" xmlns="http://www.w3.org/2000/svg">
<path d="M0 16C0 7.16344 7.16344 0 16 0C24.8366 0 32 7.16344 32 16C32 24.8366 24.8366 32 16 32C7.16344 32 0 24.8366 0 16Z" fill="#EEF2F6"/>
<path d="M16 8C15.5844 8 15.25 8.33438 15.25 8.75V9.05313C12.7062 9.41563 10.75 11.6063 10.75 14.25V14.7031C10.75 15.8813 10.4375 17.0375 9.84375 18.0563L9.15937 19.225C9.05625 19.4063 9 19.6094 9 19.8188C9 20.4719 9.52813 21 10.1813 21H21.8187C22.4719 21 23 20.4719 23 19.8188C23 19.6094 22.9437 19.4031 22.8406 19.225L22.1562 18.0531C21.5625 17.0344 21.25 15.8781 21.25 14.7V14.2469C21.25 11.6031 19.2937 9.4125 16.75 9.05V8.74688C16.75 8.33125 16.4156 7.99688 16 7.99688V8ZM21.2625 19.5H10.7344L11.1375 18.8094C11.8656 17.5625 12.25 16.1438 12.25 14.7031V14.25C12.25 12.1781 13.9281 10.5 16 10.5C18.0719 10.5 19.75 12.1781 19.75 14.25V14.7031C19.75 16.1469 20.1344 17.5625 20.8594 18.8094L21.2625 19.5ZM13.8781 22.5C14.1875 23.375 15.0219 24 16 24C16.9781 24 17.8125 23.375 18.1219 22.5H13.8781Z" fill="#0E121B"/>
</svg>
