<svg width="32" height="32" viewBox="0 0 32 32" fill="none" xmlns="http://www.w3.org/2000/svg">
<path d="M0 16C0 7.16344 7.16344 0 16 0C24.8366 0 32 7.16344 32 16C32 24.8366 24.8366 32 16 32C7.16344 32 0 24.8366 0 16Z" fill="#EEF2F6"/>
<path d="M11 10.5C10.725 10.5 10.5 10.725 10.5 11V21C10.5 21.275 10.725 21.5 11 21.5H21C21.275 21.5 21.5 21.275 21.5 21V13.4156C21.5 13.2844 21.4469 13.1562 21.3531 13.0625L19 10.7063V13.5C19 14.0531 18.5531 14.5 18 14.5H13C12.4469 14.5 12 14.0531 12 13.5V10.5H11ZM13.5 10.5V13H17.5V10.5H13.5ZM9 11C9 9.89687 9.89687 9 11 9H18.5844C19.1156 9 19.625 9.20937 20 9.58437L22.4156 12C22.7906 12.375 23 12.8844 23 13.4156V21C23 22.1031 22.1031 23 21 23H11C9.89687 23 9 22.1031 9 21V11ZM14 18C14 16.8969 14.8969 16 16 16C17.1031 16 18 16.8969 18 18C18 19.1031 17.1031 20 16 20C14.8969 20 14 19.1031 14 18Z" fill="#0E121B"/>
</svg>
