<svg width="32" height="32" viewBox="0 0 32 32" fill="none" xmlns="http://www.w3.org/2000/svg">
<path d="M0 16C0 7.16344 7.16344 0 16 0C24.8366 0 32 7.16344 32 16C32 24.8366 24.8366 32 16 32C7.16344 32 0 24.8366 0 16Z" fill="#0069FE" fill-opacity="0.1"/>
<path d="M10.75 8C10.3344 8 10 8.33437 10 8.75C10 9.16563 10.3344 9.5 10.75 9.5H11V10.0938C11 11.3531 11.5 12.5625 12.3906 13.4531L14.9375 16L12.3906 18.5469C11.5 19.4375 11 20.6469 11 21.9062V22.5H10.75C10.3344 22.5 10 22.8344 10 23.25C10 23.6656 10.3344 24 10.75 24H21.25C21.6656 24 22 23.6656 22 23.25C22 22.8344 21.6656 22.5 21.25 22.5H21V21.9062C21 20.6469 20.5 19.4375 19.6094 18.5469L17.0625 16L19.6094 13.4531C20.5 12.5625 21 11.3531 21 10.0938V9.5H21.25C21.6656 9.5 22 9.16563 22 8.75C22 8.33437 21.6656 8 21.25 8H10.75ZM16 17.0594L18.5469 19.6062C19.1562 20.2187 19.5 21.0437 19.5 21.9062V22.5H12.5V21.9062C12.5 21.0437 12.8438 20.2188 13.4531 19.6094L16 17.0594ZM16 14.9375L13.4531 12.3906C12.8438 11.7812 12.5 10.9563 12.5 10.0938V9.5H19.5V10.0938C19.5 10.9563 19.1562 11.7812 18.5469 12.3906L16 14.9406V14.9375Z" fill="#0069FE"/>
</svg>
