<svg width="32" height="32" viewBox="0 0 32 32" fill="none" xmlns="http://www.w3.org/2000/svg">
<path d="M0 16C0 7.16344 7.16344 0 16 0C24.8366 0 32 7.16344 32 16C32 24.8366 24.8366 32 16 32C7.16344 32 0 24.8366 0 16Z" fill="#EEF2F6"/>
<path d="M23.25 9.75C23.25 9.33437 22.9156 9 22.5 9C22.0844 9 21.75 9.33437 21.75 9.75V22.25C21.75 22.6656 22.0844 23 22.5 23C22.9156 23 23.25 22.6656 23.25 22.25V9.75ZM19.25 12C18.8344 12 18.5 12.3344 18.5 12.75V22.25C18.5 22.6656 18.8344 23 19.25 23C19.6656 23 20 22.6656 20 22.25V12.75C20 12.3344 19.6656 12 19.25 12ZM16.75 15.75C16.75 15.3344 16.4156 15 16 15C15.5844 15 15.25 15.3344 15.25 15.75V22.25C15.25 22.6656 15.5844 23 16 23C16.4156 23 16.75 22.6656 16.75 22.25V15.75ZM12.75 18C12.3344 18 12 18.3344 12 18.75V22.25C12 22.6656 12.3344 23 12.75 23C13.1656 23 13.5 22.6656 13.5 22.25V18.75C13.5 18.3344 13.1656 18 12.75 18ZM9.5 20C9.08437 20 8.75 20.3344 8.75 20.75V22.25C8.75 22.6656 9.08437 23 9.5 23C9.91563 23 10.25 22.6656 10.25 22.25V20.75C10.25 20.3344 9.91563 20 9.5 20Z" fill="#0E121B"/>
</svg>
