<svg width="20" height="20" viewBox="0 0 20 20" fill="none" xmlns="http://www.w3.org/2000/svg">
<path d="M9.99999 2C10.3281 2 10.6156 2.2125 10.7156 2.52187L12.3 7.5H17.25C17.5719 7.5 17.8562 7.70313 17.9594 8.00625C18.0625 8.30938 17.9625 8.64375 17.7094 8.84062L13.6219 12.0219L15.2156 17.0219C15.3156 17.3344 15.2 17.6781 14.9312 17.8656C14.6625 18.0531 14.3 18.0438 14.0406 17.8438L9.99999 14.7L5.95936 17.8406C5.69999 18.0438 5.34061 18.0531 5.06874 17.8625C4.79686 17.6719 4.68436 17.3344 4.78436 17.0187L6.37811 12.0219L2.29061 8.84062C2.03749 8.64375 1.93749 8.30938 2.04061 8.00625C2.14374 7.70313 2.42811 7.5 2.74999 7.5H7.70311L9.28749 2.52187C9.38436 2.2125 9.67499 2 9.99999 2ZM9.99999 5.225L8.96561 8.47812C8.86561 8.79062 8.57811 9 8.24999 9H4.93749L7.70936 11.1594C7.95624 11.3531 8.05936 11.6781 7.96249 11.9781L6.94686 15.175L9.53749 13.1594C9.80936 12.95 10.1875 12.95 10.4594 13.1594L13.05 15.175L12.0344 11.9781C11.9406 11.6781 12.0406 11.3531 12.2875 11.1594L15.0656 9H11.75C11.4219 9 11.1344 8.7875 11.0344 8.47812L9.99999 5.225Z" fill="#0E121B"/>
</svg>
