<svg width="32" height="32" viewBox="0 0 32 32" fill="none" xmlns="http://www.w3.org/2000/svg">
<path d="M0 16C0 7.16344 7.16344 0 16 0C24.8366 0 32 7.16344 32 16C32 24.8366 24.8366 32 16 32C7.16344 32 0 24.8366 0 16Z" fill="#EEF2F6"/>
<path d="M11.4062 11.4031C13.9437 8.86562 18.0594 8.86562 20.6 11.4031L21.4469 12.25H19.0031C18.5875 12.25 18.2531 12.5844 18.2531 13C18.2531 13.4156 18.5875 13.75 19.0031 13.75H23.2563C23.6719 13.75 24.0063 13.4156 24.0063 13V8.75C24.0063 8.33437 23.6719 8 23.2563 8C22.8406 8 22.5063 8.33437 22.5063 8.75V11.1906L21.6594 10.3438C18.5344 7.21875 13.4688 7.21875 10.3469 10.3438C8.99688 11.6937 8.22813 13.4094 8.04688 15.1719C8.00313 15.5844 8.30313 15.9531 8.71563 15.9937C9.12813 16.0344 9.49687 15.7375 9.5375 15.325C9.6875 13.8937 10.3094 12.5031 11.4062 11.4031ZM23.9594 16.8281C24.0031 16.4156 23.7031 16.0469 23.2906 16.0063C22.8781 15.9656 22.5094 16.2625 22.4688 16.675C22.3219 18.1062 21.6969 19.5 20.6 20.5969C18.0625 23.1344 13.9469 23.1344 11.4062 20.5969L10.5594 19.75H13.0031C13.4188 19.75 13.7531 19.4156 13.7531 19C13.7531 18.5844 13.4188 18.25 13.0031 18.25H8.75C8.33437 18.25 8 18.5844 8 19V23.25C8 23.6656 8.33437 24 8.75 24C9.16562 24 9.5 23.6656 9.5 23.25V20.8094L10.3469 21.6562C13.4719 24.7812 18.5375 24.7812 21.6594 21.6562C23.0094 20.3062 23.7781 18.5906 23.9594 16.8281Z" fill="#0E121B"/>
</svg>
