<svg width="32" height="32" viewBox="0 0 32 32" fill="none" xmlns="http://www.w3.org/2000/svg">
<path d="M0 16C0 7.16344 7.16344 0 16 0C24.8366 0 32 7.16344 32 16C32 24.8366 24.8366 32 16 32C7.16344 32 0 24.8366 0 16Z" fill="#EEF2F6"/>
<path d="M16.0156 8C16.475 8 16.8968 8.25313 17.1156 8.65625L23.8656 21.1562C24.075 21.5437 24.0656 22.0125 23.8406 22.3906C23.6156 22.7688 23.2062 23 22.7656 23H9.26559C8.82496 23 8.41871 22.7688 8.19371 22.3906C7.96871 22.0125 7.95934 21.5437 8.16871 21.1562L14.9187 8.65625C15.1375 8.25313 15.5593 8 16.0187 8H16.0156ZM9.68434 21.5H22.3468L16.0156 9.775L9.68434 21.5ZM16.0156 20.25C15.4625 20.25 15.0156 19.8031 15.0156 19.25C15.0156 18.6969 15.4625 18.25 16.0156 18.25C16.5687 18.25 17.0156 18.6969 17.0156 19.25C17.0156 19.8031 16.5687 20.25 16.0156 20.25ZM16.0156 13.75C16.5968 13.75 17.0468 14.2531 16.9843 14.8313L16.7625 16.8344C16.7187 17.2125 16.3968 17.5 16.0156 17.5C15.6343 17.5 15.3125 17.2125 15.2718 16.8344L15.05 14.8313C14.9875 14.2531 15.4375 13.75 16.0187 13.75H16.0156Z" fill="#0E121B"/>
</svg>
