<svg width="24" height="24" viewBox="0 0 24 24" fill="none" xmlns="http://www.w3.org/2000/svg">
<path d="M2.73749 1.46628C2.38499 1.11378 1.81499 1.11378 1.46624 1.46628C1.11749 1.81878 1.11374 2.38878 1.46249 2.74128L21.2625 22.5413C21.615 22.8938 22.185 22.8938 22.5337 22.5413C22.8825 22.1888 22.8862 21.6188 22.5337 21.27L18.9187 17.655C19.02 17.565 19.1212 17.475 19.2187 17.385C20.9737 15.7538 22.1475 13.8075 22.7062 12.4688C22.83 12.1725 22.83 11.8425 22.7062 11.5463C22.1475 10.2075 20.9737 8.25753 19.2187 6.63003C17.4525 4.99128 15.0262 3.60753 11.9962 3.60753C9.86624 3.60753 8.03624 4.29003 6.52124 5.26503L2.73749 1.46628ZM7.83374 6.56628C9.03749 5.85753 10.4287 5.40003 12 5.40003C14.445 5.40003 16.455 6.51003 17.9962 7.93878C19.44 9.27753 20.4375 10.875 20.9437 12C20.4337 13.125 19.4362 14.7188 17.9962 16.0613C17.88 16.1663 17.7637 16.2713 17.6437 16.3763L15.9675 14.7C16.4925 13.9313 16.8 13.0013 16.8 12C16.8 9.34878 14.6512 7.20003 12 7.20003C10.9987 7.20003 10.0687 7.50753 9.29999 8.03253L7.83374 6.56628ZM14.6587 13.3913L10.6087 9.34128C11.025 9.12378 11.4975 9.00003 12 9.00003C13.6575 9.00003 15 10.3425 15 12C15 12.5025 14.8762 12.975 14.6587 13.3913ZM5.07749 8.89503L3.80249 7.62003C2.57999 9.00003 1.73999 10.4625 1.29374 11.5388C1.16999 11.835 1.16999 12.165 1.29374 12.4613C1.85249 13.8 3.02624 15.75 4.78124 17.3775C6.54749 19.0163 8.97374 20.4 12.0037 20.4C13.4025 20.4 14.6737 20.1038 15.81 19.6275L14.4075 18.225C13.6575 18.465 12.855 18.6 12 18.6C9.55499 18.6 7.54499 17.49 6.00374 16.0613C4.55999 14.7225 3.56249 13.125 3.05624 12C3.44624 11.1338 4.12874 9.99003 5.08124 8.89503H5.07749Z" fill="#0E121B"/>
</svg>
