<svg width="24" height="24" viewBox="0 0 24 24" fill="none" xmlns="http://www.w3.org/2000/svg">
<path d="M12 5.39998C9.55496 5.39998 7.54496 6.50998 6.00371 7.93872C4.55996 9.28123 3.56246 10.875 3.05246 12C3.56246 13.125 4.55996 14.7187 6.00371 16.0612C7.54496 17.49 9.55496 18.6 12 18.6C14.445 18.6 16.455 17.49 17.9962 16.0612C19.44 14.7187 20.4375 13.125 20.9475 12C20.4375 10.875 19.44 9.28123 17.9962 7.93872C16.455 6.50998 14.445 5.39998 12 5.39998ZM4.77746 6.62248C6.54371 4.97998 8.96996 3.59998 12 3.59998C15.03 3.59998 17.4562 4.97998 19.2225 6.62248C20.9775 8.25373 22.1512 10.2 22.71 11.5387C22.8337 11.835 22.8337 12.165 22.71 12.4612C22.1512 13.8 20.9775 15.75 19.2225 17.3775C17.4562 19.0162 15.03 20.4 12 20.4C8.96996 20.4 6.54371 19.02 4.77746 17.3775C3.02246 15.7462 1.84871 13.8 1.28996 12.4612C1.16621 12.165 1.16621 11.835 1.28996 11.5387C1.84871 10.2 3.02246 8.24998 4.77746 6.62248ZM12 15C13.6575 15 15 13.6575 15 12C15 10.89 14.3962 9.91873 13.5 9.40123C13.4475 11.64 11.64 13.4475 9.40121 13.5C9.9187 14.3962 10.89 15 12 15ZM9.01496 11.685C9.10871 11.6962 9.20246 11.7 9.29996 11.7C10.6237 11.7 11.7 10.6237 11.7 9.29998C11.7 9.20248 11.6925 9.10873 11.685 9.01498C10.2825 9.16122 9.16496 10.2787 9.01871 11.6812L9.01496 11.685ZM10.725 7.37248C11.13 7.25998 11.5575 7.20373 11.9962 7.20373C12.3262 7.20373 12.6525 7.23748 12.9637 7.30123C12.975 7.30498 12.9825 7.30498 12.9937 7.30873C15.165 7.76623 16.7962 9.69748 16.7962 12.0037C16.7962 14.655 14.6475 16.8037 11.9962 16.8037C9.68621 16.8037 7.75871 15.1725 7.30121 13.0012C7.23371 12.6787 7.19621 12.345 7.19621 12.0037C7.19621 11.5912 7.24871 11.1862 7.34621 10.8037C7.35371 10.7775 7.35746 10.755 7.36496 10.7325C7.81121 9.10498 9.09371 7.82248 10.7212 7.37623L10.725 7.37248Z" fill="#0E121B"/>
</svg>
