<svg width="135" height="82" viewBox="0 0 135 82" fill="none" xmlns="http://www.w3.org/2000/svg">
<path d="M67.25 6C75.5115 6 83.1172 8.75292 89.1659 13.3738C89.1659 13.372 89.1659 13.3702 89.1659 13.3684C89.1659 9.9772 91.9693 7.22807 95.4276 7.22807C98.8858 7.22807 101.689 9.9772 101.689 13.3684C101.689 16.7596 98.8858 19.5088 95.4276 19.5088C95.4256 19.5088 95.4237 19.5085 95.4218 19.5085C97.0718 21.5854 98.488 23.8497 99.6322 26.2632H131.745C133.129 26.2632 134.25 27.3628 134.25 28.7193V53.2807C134.25 54.6372 133.129 55.7368 131.745 55.7368H129.926L129.729 55.771L129.723 55.7368H127.298L127.1 55.771L127.094 55.7368H124.669L124.472 55.771L124.466 55.7368H122.041L121.843 55.771L121.837 55.7368H119.412L119.215 55.771L119.209 55.7368H116.784L116.586 55.771L116.58 55.7368H114.155L113.958 55.771L113.952 55.7368H111.527L111.329 55.771L111.323 55.7368H99.6322C98.488 58.1502 97.0718 60.4143 95.4218 62.4912C95.4237 62.4912 95.4256 62.4912 95.4276 62.4912C98.8858 62.4912 101.689 65.2404 101.689 68.6316C101.689 72.0228 98.8858 74.7719 95.4276 74.7719C91.9693 74.7719 89.1659 72.0228 89.1659 68.6316C89.1659 68.6297 89.1659 68.6278 89.1659 68.6259C83.1172 73.2468 75.5116 76 67.25 76C58.9883 76 51.3826 73.2469 45.3338 68.6259C45.3338 68.6278 45.3341 68.6297 45.3341 68.6316C45.3341 72.0228 42.5307 74.7719 39.0724 74.7719C35.6142 74.7719 32.8107 72.0228 32.8107 68.6316C32.8107 65.2404 35.6142 62.4912 39.0724 62.4912C39.0743 62.4912 39.0761 62.4912 39.0779 62.4912C37.4358 60.4242 36.0253 58.1715 34.884 55.771H2.75467C1.37138 55.771 0.250002 54.6714 0.25 53.3149V28.7535C0.25 27.397 1.37138 26.2973 2.75467 26.2973H4.57386L4.77138 26.2632L4.77749 26.2973H7.20236L7.39988 26.2632L7.40599 26.2973H9.83086L10.0284 26.2632L10.0345 26.2973H12.4594L12.6569 26.2632L12.663 26.2973H15.0879L15.2854 26.2632L15.2915 26.2973H17.7164L17.9139 26.2632L17.92 26.2973H20.3449L20.5424 26.2632L20.5485 26.2973H22.9734L23.1709 26.2632L23.177 26.2973H34.8516C35.9986 23.8711 37.4201 21.5952 39.0779 19.5085C39.0761 19.5085 39.0743 19.5088 39.0724 19.5088C35.6142 19.5088 32.8107 16.7596 32.8107 13.3684C32.8107 9.9772 35.6142 7.22807 39.0724 7.22807C42.5307 7.22807 45.3341 9.9772 45.3341 13.3684C45.3341 13.3702 45.3338 13.372 45.3338 13.3738C51.3825 8.75283 58.9884 6 67.25 6ZM67.25 6.30702C59.0605 6.30702 51.5218 9.0356 45.5261 13.6161L45.0201 14.0025L45.0207 13.3735C45.0207 13.3703 45.0206 13.3673 45.0207 13.3645C45.0186 10.1447 42.3564 7.53509 39.0724 7.53509C35.7871 7.53509 33.1238 10.1468 33.1238 13.3684C33.1238 16.5888 35.785 19.1993 39.0685 19.2015C39.0713 19.2014 39.0743 19.2015 39.0776 19.2015L39.7191 19.2009L39.325 19.6971C36.2604 23.5546 34.0083 28.0634 32.8221 32.9765C32.2016 35.5586 31.8727 38.251 31.8715 41.0186C31.8758 49.0421 34.6577 56.4277 39.325 62.3026L39.7191 62.7988L39.0776 62.7982C39.076 62.7982 39.0746 62.7982 39.0724 62.7982C35.7871 62.7982 33.1238 65.4099 33.1238 68.6316C33.1238 71.8532 35.7871 74.4649 39.0724 74.4649C42.3577 74.4649 45.021 71.8532 45.021 68.6316C45.021 68.6299 45.0207 68.6281 45.0207 68.6262L45.0201 67.9972L45.5261 68.3836C51.5218 72.9642 59.0605 75.693 67.25 75.693C75.4395 75.693 82.9779 72.9641 88.9736 68.3836L89.4796 67.9972L89.479 68.6262C89.479 68.6279 89.479 68.6293 89.479 68.6316C89.479 71.8532 92.1423 74.4649 95.4276 74.4649C98.7129 74.4649 101.376 71.8532 101.376 68.6316C101.376 65.4099 98.7129 62.7982 95.4276 62.7982C95.4252 62.7982 95.4238 62.7982 95.4221 62.7982L94.7806 62.7988L95.1747 62.3026C99.8457 56.4231 102.629 49.0308 102.629 41C102.629 32.9691 99.8458 25.5766 95.1747 19.6971L94.7806 19.2009L95.4221 19.2015C95.4251 19.2015 95.428 19.2014 95.4306 19.2015C98.7145 19.1998 101.376 16.5891 101.376 13.3684C101.376 10.1468 98.7129 7.53509 95.4276 7.53509C92.1423 7.53509 89.479 10.1468 89.479 13.3684C89.479 13.3706 89.479 13.3719 89.479 13.3735L89.4796 14.0025L88.9736 13.6161C82.9779 9.03568 75.4394 6.30702 67.25 6.30702ZM39.0724 64.0263C41.6661 64.0263 43.7687 66.0882 43.7687 68.6316C43.7687 71.175 41.6661 73.2368 39.0724 73.2368C36.4788 73.2368 34.3762 71.175 34.3762 68.6316C34.3762 66.0882 36.4788 64.0263 39.0724 64.0263ZM95.4276 64.0263C98.0212 64.0263 100.124 66.0882 100.124 68.6316C100.124 71.175 98.0212 73.2368 95.4276 73.2368C92.8339 73.2368 90.7313 71.175 90.7313 68.6316C90.7313 66.0882 92.8339 64.0263 95.4276 64.0263ZM39.0724 64.3333C36.6517 64.3333 34.6893 66.2577 34.6893 68.6316C34.6893 71.0054 36.6517 72.9298 39.0724 72.9298C41.4932 72.9298 43.4556 71.0054 43.4556 68.6316C43.4556 66.2577 41.4932 64.3333 39.0724 64.3333ZM95.4276 64.3333C93.0068 64.3333 91.0444 66.2577 91.0444 68.6316C91.0444 71.0054 93.0068 72.9298 95.4276 72.9298C97.8483 72.9298 99.8108 71.0054 99.8108 68.6316C99.8108 66.2577 97.8483 64.3333 95.4276 64.3333ZM69.3731 14.0613C75.5656 14.5241 81.1856 16.9945 85.5581 20.81L89.2588 17.9881L91.0297 19.7249L88.1331 23.3765C91.9132 27.6799 94.3336 33.1644 94.7403 39.1888L99.4977 39.7719V42.2281L94.7403 42.8109C94.3336 48.8354 91.9131 54.3198 88.1331 58.6232L91.0297 62.2754L89.2588 64.0119L85.5581 61.1897C81.1856 65.0052 75.5657 67.4756 69.3731 67.9384L68.8154 72.3158H66.3108L65.7531 67.9387C59.5606 67.4759 53.9405 65.0055 49.5681 61.19L45.8673 64.0119L44.0965 62.2751L46.9931 58.6235C43.213 54.3201 40.7926 48.8356 40.3859 42.8112L35.6285 42.2281V39.7719L40.3859 39.1891C40.7926 33.1646 43.213 27.6802 46.9931 23.3768L44.0965 19.7246L45.8673 17.9881L49.5681 20.8103C53.9405 16.9948 59.5605 14.5244 65.7531 14.0616L66.3108 9.68421H68.8154L69.3731 14.0613ZM66.0805 13.9693L66.0108 14.3518C59.7051 14.7701 53.9883 17.2923 49.5843 21.2091L49.3314 21.0193L45.8933 18.3967L44.5132 19.7501L47.2028 23.1408L47.4129 23.3717C43.5176 27.7166 41.0383 33.3121 40.6828 39.4649L35.9416 40.043V41.957L40.6804 42.5279L40.6794 42.5351H40.6804C41.0235 48.7175 43.4336 54.2979 47.3692 58.6535L47.2025 58.8592L44.5132 62.2499L45.8933 63.6033L49.3314 60.981L49.5607 60.8026C53.977 64.7418 59.7115 67.2386 66.0454 67.6509L66.0717 67.9606L66.0714 67.9603L66.0723 67.9675L66.0765 68.0175H66.0787L66.5871 72.0088H68.539L69.0456 68.0307L69.1154 67.6482C75.421 67.2299 81.1379 64.7077 85.5419 60.7909L85.7947 60.9807L89.2328 63.6033L90.613 62.2499L87.9233 58.8592L87.7133 58.6283C91.6085 54.2834 94.0879 48.6879 94.4434 42.5351L99.1846 41.957V40.043L94.4458 39.4721L94.4467 39.4649H94.4458C94.1027 33.2825 91.6925 27.7021 87.757 23.3465L87.9236 23.1408L90.613 19.7501L89.2328 18.3967L85.7947 21.019L85.5654 21.1974C81.1492 17.2582 75.4147 14.7614 69.0808 14.3491L69.0545 14.0394L69.0548 14.0397L69.0539 14.0325L69.0496 13.9825H69.0475L68.539 9.99123H66.5871L66.0805 13.9693ZM39.3855 68.3246H41.264V68.9386H39.3855V70.7807H38.7593V68.9386H36.8808V68.3246H38.7593V66.4825H39.3855V68.3246ZM95.7407 68.3246H97.6192V68.9386H95.7407V70.7807H95.1145V68.9386H93.236V68.3246H95.1145V66.4825H95.7407V68.3246ZM45.6463 68.607C45.6462 68.6064 45.6463 68.6059 45.6463 68.6055C45.6463 68.6051 45.646 68.6047 45.646 68.6046C45.646 68.6047 45.6462 68.6059 45.6463 68.607ZM67.5631 18.2807C80.3585 18.2807 90.7313 28.4525 90.7313 41C90.7313 53.5475 80.3585 63.7193 67.5631 63.7193C54.7676 63.7193 44.3949 53.5475 44.3949 41C44.3949 28.4525 54.7676 18.2807 67.5631 18.2807ZM67.5631 18.5877C54.9405 18.5877 44.7079 28.622 44.7079 41C44.7079 53.378 54.9405 63.4123 67.5631 63.4123C80.1856 63.4123 90.4182 53.378 90.4182 41C90.4182 28.622 80.1856 18.5877 67.5631 18.5877ZM0.563084 53.3149C0.563086 54.4647 1.4839 55.4037 2.64185 55.4613L2.75467 55.464H3.99111L0.563084 36.3989V53.3149ZM1.55645 26.9545C0.958504 27.3383 0.563084 28.0004 0.563084 28.7535V32.8625L4.62706 55.464H6.7572L1.55645 26.9545ZM2.75467 26.6044C2.54269 26.6044 2.33798 26.6347 2.1441 26.6898L7.39345 55.464H9.386L4.19688 26.6044H2.75467ZM10.022 55.464H12.0145L6.82538 26.6044H4.83283L10.022 55.464ZM12.6505 55.464H14.643L9.45388 26.6044H7.46133L12.6505 55.464ZM15.279 55.464H17.2715L12.0824 26.6044H10.0898L15.279 55.464ZM17.9075 55.464H19.9L14.7109 26.6044H12.7183L17.9075 55.464ZM20.536 55.464H22.5285L17.3394 26.6044H15.3468L20.536 55.464ZM23.1645 55.464H25.157L19.9679 26.6044H17.9753L23.1645 55.464ZM25.793 55.464H27.7855L22.5964 26.6044H20.6038L25.793 55.464ZM28.4215 55.464H34.6932C32.7278 51.1654 31.6139 46.4114 31.5609 41.4087C31.56 41.3316 31.5597 41.2544 31.5593 41.1772C31.5591 41.1295 31.5584 41.0819 31.5584 41.0342V41C31.5584 38.2982 31.8709 35.668 32.4619 33.142C32.4717 33.1001 32.4816 33.0582 32.4916 33.0163C32.5091 32.9426 32.5267 32.8689 32.5448 32.7954C33.068 30.649 33.7906 28.5786 34.6932 26.6044H23.2323L28.4215 55.464ZM99.8068 26.5702C101.65 30.6024 102.744 35.0354 102.917 39.6985C102.92 39.7869 102.923 39.8755 102.926 39.9641C102.927 40.0174 102.929 40.0706 102.93 40.1239C102.932 40.2204 102.934 40.3169 102.936 40.4135C102.937 40.464 102.938 40.5145 102.939 40.565C102.94 40.7098 102.942 40.8548 102.942 41C102.942 41.1451 102.94 41.29 102.939 41.4347C102.938 41.4835 102.937 41.5323 102.936 41.5811C102.935 41.6763 102.933 41.7714 102.93 41.8665C102.929 41.9229 102.927 41.9792 102.926 42.0356C102.923 42.1242 102.92 42.2128 102.917 42.3012C102.744 46.9644 101.65 51.3975 99.8068 55.4298H111.268L106.079 26.5702H99.8068ZM111.904 55.4298H113.896L108.707 26.5702H106.715L111.904 55.4298ZM114.532 55.4298H116.525L111.336 26.5702H109.343L114.532 55.4298ZM117.161 55.4298H119.153L113.964 26.5702H111.972L117.161 55.4298ZM119.789 55.4298H121.782L116.593 26.5702H114.6L119.789 55.4298ZM122.418 55.4298H124.41L119.221 26.5702H117.229L122.418 55.4298ZM125.046 55.4298H127.039L121.85 26.5702H119.857L125.046 55.4298ZM127.675 55.4298H129.667L124.478 26.5702H122.486L127.675 55.4298ZM130.303 55.4298H131.745C131.957 55.4298 132.162 55.3994 132.356 55.3444L127.107 26.5702H125.114L130.303 55.4298ZM132.944 55.0796C133.542 54.6959 133.937 54.0338 133.937 53.2807V49.1716L129.873 26.5702H127.743L132.944 55.0796ZM133.937 45.6352V28.7193C133.937 27.5695 133.016 26.6305 131.858 26.5729L131.745 26.5702H130.509L133.937 45.6352ZM95.401 19.8149C95.4014 19.8149 95.4019 19.8148 95.4025 19.8149C95.4014 19.8148 95.4002 19.8146 95.4001 19.8146C95.4002 19.8146 95.4006 19.8149 95.401 19.8149ZM95.4493 19.2027C95.4495 19.2027 95.449 19.2024 95.4484 19.2024C95.4481 19.2023 95.4476 19.2024 95.4471 19.2024L95.4493 19.2027ZM39.0724 8.76316C41.6661 8.76316 43.7687 10.825 43.7687 13.3684C43.7687 15.9118 41.6661 17.9737 39.0724 17.9737C36.4788 17.9737 34.3762 15.9118 34.3762 13.3684C34.3762 10.825 36.4788 8.76316 39.0724 8.76316ZM95.4276 8.76316C98.0212 8.76316 100.124 10.825 100.124 13.3684C100.124 15.9118 98.0212 17.9737 95.4276 17.9737C92.8339 17.9737 90.7313 15.9118 90.7313 13.3684C90.7313 10.825 92.8339 8.76316 95.4276 8.76316ZM39.0724 9.07018C36.6517 9.07018 34.6893 10.9946 34.6893 13.3684C34.6893 15.7423 36.6517 17.6667 39.0724 17.6667C41.4932 17.6667 43.4556 15.7423 43.4556 13.3684C43.4556 10.9946 41.4932 9.07018 39.0724 9.07018ZM95.4276 9.07018C93.0068 9.07018 91.0444 10.9946 91.0444 13.3684C91.0444 15.7423 93.0068 17.6667 95.4276 17.6667C97.8483 17.6667 99.8108 15.7423 99.8108 13.3684C99.8108 10.9946 97.8483 9.07018 95.4276 9.07018ZM39.3855 13.0614H41.264V13.6754H39.3855V15.5175H38.7593V13.6754H36.8808V13.0614H38.7593V11.2193H39.3855V13.0614ZM95.7407 13.0614H97.6192V13.6754H95.7407V15.5175H95.1145V13.6754H93.236V13.0614H95.1145V11.2193H95.7407V13.0614Z" fill="#0E121B" stroke="#0E121B" stroke-width="0.5"/>
</svg>
