<svg width="133" height="82" viewBox="0 0 133 82" fill="none" xmlns="http://www.w3.org/2000/svg">
<path d="M46.93 31.0024H46.9343C48.0424 31.059 48.9231 31.9805 48.9275 33.11L48.9304 33.1553C48.9433 33.2782 49.0206 33.3822 49.1274 33.4319L49.2255 33.4059L49.368 33.3683L49.3919 33.4633H118.034L118.175 33.47H118.178L118.182 33.4705C118.335 33.4854 118.487 33.5224 118.631 33.5808L131.99 39.012L131.996 39.0139L131.936 39.1493L131.996 39.0144L132.097 39.0601L132.102 39.0621L132.037 39.1951L132.102 39.0626C132.612 39.3167 132.952 39.8242 132.995 40.3961L132.996 40.4014L133 40.5137V41.4805C133 42.1022 132.649 42.6651 132.102 42.9374L132.097 42.9403H132.097L131.996 42.9856L131.99 42.988L118.631 48.4192C118.487 48.4777 118.335 48.5146 118.182 48.5295L118.175 48.53L118.035 48.5372H49.3948L49.3785 48.6148L49.235 48.5849L49.1394 48.5652C49.0155 48.6171 48.9281 48.7388 48.928 48.8818C48.9279 50.0152 48.0451 50.9408 46.9343 50.9976H46.93L46.8296 51H11.8779C10.717 51 9.77577 50.0518 9.77566 48.8818V48.0109C9.7756 47.4238 9.39347 46.9059 8.83549 46.7371L7.73607 46.4046C7.49613 46.332 7.33198 46.1094 7.33198 45.8571L7.3272 45.8051C7.30469 45.6867 7.20674 45.5951 7.08618 45.5829L7.05175 45.5814H6.68878C6.67008 45.5814 6.65441 45.5944 6.64957 45.6113L6.64718 45.6373H6.6467C6.63741 45.8552 6.42725 46.0087 6.21726 45.9453L5.2924 45.6658C5.0526 45.5933 4.88787 45.3708 4.88783 45.1183C4.88776 44.9661 4.76524 44.8426 4.61429 44.8426H4.24463C4.22625 44.8427 4.21074 44.8553 4.20589 44.8725L4.2035 44.8985H4.20303C4.19374 45.1164 3.98343 45.2698 3.77359 45.2065L2.84824 44.9269C2.60819 44.8543 2.44424 44.6316 2.44415 44.3794C2.44409 44.2274 2.3213 44.1038 2.17014 44.1038H1.80096C1.7821 44.1038 1.76651 44.1168 1.76174 44.1336L1.75935 44.1597H1.75887C1.74959 44.3775 1.53942 44.5311 1.32944 44.4676L0.627417 44.2551C0.255283 44.1426 3.09562e-05 43.7977 0 43.4059V38.5883L0.00239107 38.5276L0.00286929 38.5213C0.0323596 38.1602 0.278557 37.8504 0.627417 37.7449L1.32944 37.5324C1.54423 37.4675 1.75967 37.6298 1.75983 37.8553C1.75983 37.8775 1.77796 37.8962 1.80096 37.8962H2.3466C2.40051 37.8961 2.44415 37.8519 2.44415 37.7979C2.44432 37.4403 2.67717 37.1252 3.01705 37.0225L3.77359 36.7935C3.9882 36.7288 4.20385 36.8909 4.20398 37.1164C4.20401 37.1389 4.22211 37.1573 4.24463 37.1574H4.79027C4.84411 37.1574 4.88783 37.1133 4.88783 37.0591C4.88795 36.7015 5.12072 36.3859 5.46073 36.2831L6.21726 36.0547C6.43205 35.9899 6.64752 36.1521 6.64766 36.3776C6.64772 36.3999 6.66596 36.4186 6.68878 36.4186H7.23443C7.28832 36.4185 7.33198 36.3743 7.33198 36.3203C7.33207 35.9627 7.56486 35.6471 7.90488 35.5443L8.83549 35.2629C9.35758 35.1049 9.72563 34.6416 9.77087 34.1018L9.77566 33.9833V33.1182C9.77585 31.9483 10.7171 31 11.8779 31H46.8296L46.93 31.0024ZM11.5828 50.8294C11.5998 50.832 11.6169 50.834 11.634 50.8361C11.6169 50.834 11.5998 50.832 11.5828 50.8294ZM11.4901 50.813C11.5094 50.8169 11.5289 50.8203 11.5484 50.8236C11.5289 50.8203 11.5094 50.8169 11.4901 50.813ZM11.3949 50.7908C11.413 50.7955 11.4311 50.7997 11.4494 50.8038C11.4311 50.7997 11.413 50.7955 11.3949 50.7908ZM11.304 50.7653C11.3221 50.7709 11.3403 50.7761 11.3585 50.7812C11.3403 50.7761 11.3221 50.7709 11.304 50.7653ZM11.2122 50.7344C11.2315 50.7415 11.251 50.7478 11.2706 50.7542C11.251 50.7478 11.2315 50.7415 11.2122 50.7344ZM11.1247 50.7002C11.1438 50.7083 11.1631 50.7159 11.1826 50.7234C11.1631 50.7159 11.1438 50.7083 11.1247 50.7002ZM11.0429 50.6636C11.059 50.6713 11.0754 50.6785 11.0917 50.6858C11.0754 50.6785 11.059 50.6713 11.0429 50.6636ZM10.9621 50.6226C10.9734 50.6287 10.9847 50.6347 10.9961 50.6405C10.9847 50.6347 10.9734 50.6287 10.9621 50.6226ZM10.8717 50.5711C10.8872 50.5804 10.9028 50.5896 10.9186 50.5985C10.9028 50.5896 10.8872 50.5804 10.8717 50.5711ZM10.7938 50.5214C10.8131 50.5345 10.8327 50.5472 10.8526 50.5595C10.8327 50.5472 10.8131 50.5345 10.7938 50.5214ZM10.7235 50.4713C10.7375 50.4816 10.7513 50.4922 10.7656 50.5021C10.7513 50.4922 10.7375 50.4816 10.7235 50.4713ZM10.658 50.4212C10.6651 50.4269 10.6723 50.4324 10.6795 50.438C10.6723 50.4324 10.6651 50.4269 10.658 50.4212ZM10.5752 50.3508C10.5861 50.3606 10.5971 50.3702 10.6082 50.3797C10.5971 50.3702 10.5861 50.3606 10.5752 50.3508ZM10.5121 50.291C10.5238 50.3026 10.5355 50.3141 10.5475 50.3253C10.5355 50.3141 10.5238 50.3026 10.5121 50.291ZM10.4485 50.226C10.4593 50.2376 10.4705 50.2488 10.4815 50.2602C10.4705 50.2488 10.4593 50.2376 10.4485 50.226ZM11.8779 31.7894C11.1953 31.7894 10.6334 32.3124 10.5657 32.9823L10.559 33.1182V33.9891C10.559 34.925 9.94975 35.7501 9.06025 36.019L8.12964 36.3005C8.12562 36.3017 8.12213 36.3044 8.1196 36.3077L8.1153 36.3203C8.1153 36.6723 7.91171 36.9757 7.617 37.1193C7.62183 37.1396 7.62511 37.1607 7.62513 37.1825V44.8175C7.62513 44.8622 7.61349 44.9038 7.59452 44.9409C7.86029 45.0996 8.05132 45.3713 8.10095 45.6913L9.06025 45.981C9.94974 46.2499 10.5589 47.0751 10.559 48.0109V48.8818C10.5591 49.6156 11.1497 50.2106 11.8779 50.2106H46.8263C47.5544 50.2105 48.1446 49.6156 48.1447 48.8818C48.1448 48.4556 48.3785 48.0859 48.7224 47.8924C49.2605 45.0606 49.8895 39.0327 48.7439 34.1211C48.3878 33.9308 48.1447 33.5532 48.1447 33.1182L48.138 32.9823C48.0749 32.357 47.5815 31.8597 46.9611 31.7962L46.8263 31.7894H11.8779ZM10.3816 50.1494C10.392 50.1618 10.4024 50.1743 10.4131 50.1865C10.4024 50.1743 10.392 50.1618 10.3816 50.1494ZM10.3156 50.066C10.3309 50.0866 10.3467 50.1068 10.3629 50.1267C10.3467 50.1068 10.3309 50.0866 10.3156 50.066ZM10.2735 50.0072C10.2829 50.0208 10.2924 50.0343 10.3022 50.0477C10.2924 50.0343 10.2829 50.0208 10.2735 50.0072ZM10.208 49.9069C10.2209 49.9282 10.234 49.9493 10.2477 49.9701C10.234 49.9493 10.2209 49.9282 10.208 49.9069ZM10.1678 49.8375C10.1782 49.8564 10.1889 49.875 10.1998 49.8934C10.1889 49.875 10.1782 49.8564 10.1678 49.8375ZM10.13 49.7657C10.1379 49.7815 10.1461 49.797 10.1544 49.8125C10.1461 49.797 10.1379 49.7815 10.13 49.7657ZM10.0913 49.6823C10.097 49.6952 10.1025 49.7082 10.1085 49.7209C10.1025 49.7082 10.097 49.6952 10.0913 49.6823ZM10.0511 49.5855C10.0582 49.6042 10.0654 49.6229 10.0731 49.6414C10.0654 49.6229 10.0582 49.6042 10.0511 49.5855ZM10.01 49.4669C9.97202 49.3438 9.94584 49.2154 9.93251 49.0833L9.93203 49.0799C9.94526 49.2133 9.97169 49.3427 10.01 49.4669ZM49.5784 34.2527C49.6627 34.6415 49.7369 35.0358 49.8012 35.4339H111.347C114.302 35.4342 116.715 37.773 116.863 40.7142L116.87 41.0005C116.87 44.0267 114.474 46.4888 111.489 46.5651H111.487L111.349 46.567H49.7362C49.6748 46.997 49.6112 47.3927 49.5478 47.7478H118.027C118.133 47.7478 118.239 47.7268 118.337 47.6866L131.697 42.256C132.011 42.1284 132.217 41.8215 132.217 41.4805V40.5195C132.217 40.1785 132.011 39.8716 131.697 39.744L118.337 34.3134C118.239 34.2734 118.134 34.2527 118.027 34.2527H49.5784ZM111.485 46.4171C111.573 46.4149 111.661 46.4101 111.748 46.4036C111.661 46.4101 111.573 46.4149 111.485 46.4171ZM111.908 46.3877C111.943 46.3842 111.977 46.3818 112.011 46.3776C111.977 46.3818 111.943 46.3842 111.908 46.3877ZM112.132 46.3598C112.18 46.3527 112.227 46.3464 112.275 46.3381C112.227 46.3464 112.18 46.3527 112.132 46.3598ZM112.377 46.3178C112.427 46.3079 112.478 46.2984 112.528 46.287C112.478 46.2984 112.427 46.3079 112.377 46.3178ZM112.632 46.2615C112.682 46.249 112.732 46.2367 112.782 46.2229C112.732 46.2367 112.682 46.249 112.632 46.2615ZM112.887 46.1916C112.934 46.1775 112.98 46.1635 113.026 46.1482C112.98 46.1635 112.934 46.1775 112.887 46.1916ZM113.135 46.1101C113.179 46.0948 113.222 46.0793 113.264 46.0629C113.222 46.0793 113.179 46.0948 113.135 46.1101ZM113.377 46.0171C113.419 46 113.46 45.9831 113.501 45.9651C113.46 45.9831 113.419 46 113.377 46.0171ZM111.759 45.9077C111.623 45.9191 111.486 45.9265 111.347 45.9265C111.486 45.9265 111.623 45.9191 111.759 45.9077ZM113.606 45.9169C113.648 45.8972 113.69 45.8773 113.731 45.8566C113.69 45.8773 113.648 45.8972 113.606 45.9169ZM113.839 45.8002C113.876 45.7811 113.912 45.7624 113.948 45.7424C113.912 45.7624 113.876 45.7811 113.839 45.8002ZM49.9151 36.2224C50.1043 37.6808 50.1762 39.1724 50.1709 40.6062H111.102C111.304 40.6063 111.471 40.7612 111.491 40.96L111.493 41.0005C111.493 41.2181 111.318 41.3946 111.102 41.3947H50.1599C50.1231 42.9953 49.9976 44.5009 49.8405 45.7785H111.347C113.965 45.7783 116.088 43.639 116.088 41.0005C116.088 38.4443 114.096 36.3568 111.591 36.2287L111.347 36.2224H49.9151ZM114.06 45.6773C114.1 45.6539 114.139 45.6304 114.178 45.606C114.139 45.6304 114.1 45.6539 114.06 45.6773ZM114.261 45.553C114.303 45.5257 114.345 45.4981 114.386 45.4696C114.345 45.4981 114.303 45.5257 114.261 45.553ZM114.496 45.3906C114.524 45.3708 114.551 45.3506 114.577 45.3303C114.551 45.3506 114.524 45.3708 114.496 45.3906ZM114.684 45.2474C114.718 45.2203 114.752 45.1929 114.785 45.165C114.752 45.1929 114.718 45.2203 114.684 45.2474ZM114.867 45.0937C114.902 45.063 114.937 45.0322 114.971 45.0007C114.937 45.0322 114.902 45.063 114.867 45.0937ZM5.68549 37.0393C5.68137 37.0406 5.67799 37.0435 5.67545 37.047L5.67114 37.0591C5.67114 37.4109 5.46775 37.714 5.17332 37.8577C5.17821 37.8781 5.18144 37.8994 5.18145 37.9213V44.0787C5.18144 44.1233 5.16981 44.1649 5.15085 44.2021C5.41645 44.3608 5.60721 44.6326 5.6568 44.9525L6.06854 45.0768C6.14772 44.9855 6.24651 44.9124 6.35834 44.8628C6.35586 44.8481 6.35403 44.833 6.35403 44.8175V37.1825C6.35405 37.1672 6.35591 37.1522 6.35834 37.1376C6.24636 37.0882 6.14691 37.0155 6.06758 36.9241L5.68549 37.0393ZM115.054 44.9231C115.086 44.8919 115.118 44.8601 115.15 44.8281C115.118 44.8601 115.086 44.8919 115.054 44.9231ZM7.42906 44.9154C7.4317 44.9134 7.43424 44.9113 7.43671 44.9091C7.43424 44.9113 7.4317 44.9134 7.42906 44.9154ZM7.45823 44.8836C7.45956 44.8815 7.46085 44.8795 7.46206 44.8773C7.46086 44.8795 7.45955 44.8815 7.45823 44.8836ZM6.89202 44.792H7.05844C7.06804 44.792 7.0776 44.7932 7.08714 44.7934V37.208H6.89202V44.792ZM115.231 44.7443C115.264 44.7102 115.296 44.6756 115.327 44.6407C115.296 44.6756 115.264 44.7102 115.231 44.7443ZM115.398 44.5611C115.429 44.5257 115.458 44.4895 115.488 44.4532C115.458 44.4895 115.429 44.5257 115.398 44.5611ZM115.56 44.365C115.593 44.3237 115.624 44.2819 115.656 44.2397C115.624 44.2819 115.593 44.3237 115.56 44.365ZM3.24181 37.7782C3.23374 37.7806 3.22749 37.7889 3.22747 37.7984H3.22699C3.2268 38.1502 3.02374 38.4535 2.72917 38.597C2.73397 38.6172 2.73724 38.638 2.7373 38.6596V43.3399C2.73724 43.3844 2.72523 43.426 2.70621 43.4633C2.97218 43.6219 3.16349 43.8935 3.21312 44.2136L3.62439 44.338C3.70366 44.2465 3.80267 44.1735 3.91466 44.124C3.91219 44.1092 3.91036 44.0942 3.91036 44.0787V37.9213C3.91037 37.9061 3.91178 37.891 3.91418 37.8765C3.80246 37.8271 3.70358 37.7542 3.62439 37.663L3.24181 37.7782ZM115.71 44.1655C115.738 44.126 115.765 44.0857 115.792 44.0454C115.765 44.0857 115.738 44.126 115.71 44.1655ZM4.44835 44.0532H4.61429C4.62406 44.0532 4.63376 44.0543 4.64346 44.0546V37.9468H4.44835V44.0532ZM115.853 43.9558C115.877 43.9175 115.901 43.8786 115.925 43.8397C115.901 43.8786 115.877 43.9175 115.853 43.9558ZM115.989 43.7336C116.011 43.696 116.032 43.6581 116.053 43.6199C116.032 43.6581 116.011 43.696 115.989 43.7336ZM0.852178 38.5011C0.821547 38.5104 0.798377 38.5341 0.788575 38.5633L0.783315 38.5941V43.4059C0.783341 43.4489 0.811466 43.487 0.852178 43.4994L1.18023 43.5992C1.25952 43.5077 1.35852 43.4347 1.47051 43.3852C1.46803 43.3705 1.46623 43.3553 1.46621 43.3399V38.6606C1.46621 38.6451 1.46803 38.6301 1.47051 38.6153C1.35879 38.5659 1.2599 38.493 1.18071 38.4018L0.852178 38.5011ZM116.112 43.511C116.133 43.4709 116.152 43.4302 116.172 43.3895C116.152 43.4302 116.133 43.4709 116.112 43.511ZM0.648937 43.484C0.650712 43.4893 0.653507 43.4942 0.655632 43.4994C0.652896 43.4927 0.650133 43.4861 0.64798 43.4792L0.648937 43.484ZM2.0042 43.3143H2.17014C2.1799 43.3143 2.18961 43.3155 2.19931 43.3158V38.6857H2.0042V43.3143ZM116.221 43.2883C116.242 43.2419 116.263 43.1951 116.283 43.1481C116.263 43.1951 116.242 43.2419 116.221 43.2883ZM116.326 43.0468C116.341 43.0089 116.355 42.9705 116.37 42.9321C116.355 42.9705 116.341 43.0089 116.326 43.0468ZM116.414 42.8155C116.428 42.775 116.441 42.734 116.454 42.6931C116.441 42.734 116.428 42.775 116.414 42.8155ZM132.21 42.7027C132.155 42.7403 132.097 42.7748 132.037 42.8049C132.097 42.7748 132.155 42.7403 132.21 42.7027ZM132.239 42.6825C132.257 42.6692 132.275 42.6556 132.293 42.6415C132.275 42.6556 132.257 42.6692 132.239 42.6825ZM132.309 42.628C132.328 42.6125 132.347 42.5967 132.365 42.5803C132.347 42.5967 132.328 42.6125 132.309 42.628ZM116.496 42.5606C116.509 42.5181 116.521 42.4753 116.532 42.4324C116.521 42.4753 116.509 42.5181 116.496 42.5606ZM132.398 42.5485C132.411 42.5367 132.423 42.525 132.435 42.5128C132.423 42.525 132.411 42.5367 132.398 42.5485ZM132.467 42.4777C132.478 42.4661 132.488 42.4544 132.498 42.4425C132.488 42.4544 132.478 42.4661 132.467 42.4777ZM132.539 42.3933C132.546 42.3846 132.552 42.3757 132.559 42.3668C132.552 42.3757 132.546 42.3846 132.539 42.3933ZM132.591 42.3215C132.6 42.3084 132.609 42.295 132.617 42.2815C132.609 42.295 132.6 42.3084 132.591 42.3215ZM116.692 41.5774C116.675 41.7451 116.65 41.9105 116.617 42.0733C116.65 41.9105 116.675 41.7451 116.692 41.5774ZM132.64 42.2458C132.65 42.2288 132.66 42.2118 132.67 42.1943C132.66 42.2118 132.65 42.2288 132.64 42.2458ZM132.692 42.1528C132.698 42.1399 132.704 42.1269 132.711 42.1138C132.704 42.1269 132.698 42.1399 132.692 42.1528ZM132.733 42.0646C132.739 42.049 132.746 42.0333 132.752 42.0174C132.746 42.0333 132.739 42.049 132.733 42.0646ZM132.767 41.9774C132.774 41.9588 132.779 41.9399 132.785 41.921C132.779 41.9399 132.774 41.9588 132.767 41.9774ZM132.797 41.882C132.805 41.8538 132.813 41.8254 132.819 41.7967C132.813 41.8254 132.805 41.8538 132.797 41.882ZM132.304 41.8188C132.298 41.8335 132.292 41.8478 132.286 41.8622C132.292 41.8478 132.298 41.8335 132.304 41.8188ZM132.345 41.668C132.347 41.655 132.351 41.6421 132.352 41.6289L132.353 41.6241C132.351 41.6389 132.348 41.6534 132.345 41.668ZM111.151 41.2419C111.166 41.2389 111.18 41.2339 111.193 41.2284C111.18 41.2339 111.166 41.2389 111.151 41.2419ZM111.203 41.2241C111.213 41.2192 111.224 41.2137 111.234 41.2072C111.224 41.2137 111.213 41.2192 111.203 41.2241ZM111.302 41.1407C111.286 41.1648 111.265 41.1857 111.241 41.2024C111.265 41.1856 111.286 41.1648 111.302 41.1407ZM111.307 41.133C111.314 41.123 111.319 41.1126 111.324 41.1017C111.319 41.1126 111.314 41.123 111.307 41.133ZM111.328 41.0921C111.334 41.0785 111.339 41.0647 111.342 41.0501C111.339 41.0647 111.334 41.0785 111.328 41.0921ZM111.346 41.0005C111.346 40.9848 111.344 40.9696 111.342 40.9547C111.344 40.9696 111.346 40.9848 111.346 41.0005ZM116.709 40.6279C116.705 40.5704 116.702 40.5129 116.696 40.4559C116.702 40.5129 116.705 40.5704 116.709 40.6279ZM111.336 40.9349C111.334 40.9264 111.332 40.918 111.329 40.9099C111.332 40.918 111.334 40.9264 111.336 40.9349ZM111.318 40.8877C111.316 40.8825 111.313 40.8773 111.31 40.8723C111.313 40.8773 111.316 40.8825 111.318 40.8877ZM111.296 40.8525C111.291 40.8458 111.286 40.8394 111.28 40.8332C111.286 40.8394 111.291 40.8459 111.296 40.8525ZM111.27 40.8222C111.263 40.8155 111.256 40.8096 111.248 40.8038C111.256 40.8096 111.263 40.8155 111.27 40.8222ZM111.233 40.7928C111.225 40.7879 111.217 40.7838 111.209 40.7797C111.217 40.7838 111.225 40.7879 111.233 40.7928ZM132.834 40.2886C132.83 40.2657 132.827 40.2428 132.822 40.2202C132.827 40.2428 132.83 40.2657 132.834 40.2886ZM116.68 40.3258C116.675 40.279 116.669 40.2324 116.662 40.186C116.669 40.2324 116.675 40.279 116.68 40.3258ZM132.812 40.1754C132.808 40.1599 132.805 40.1444 132.801 40.1291C132.805 40.1444 132.808 40.1599 132.812 40.1754ZM132.782 40.0669C132.779 40.0584 132.777 40.0499 132.774 40.0414C132.777 40.0499 132.779 40.0584 132.782 40.0669ZM116.636 40.0298C116.63 39.9975 116.625 39.9651 116.619 39.933C116.625 39.9651 116.63 39.9975 116.636 40.0298ZM132.762 40.0101C132.755 39.9902 132.748 39.9703 132.74 39.9508C132.748 39.9703 132.755 39.9902 132.762 40.0101ZM132.723 39.9118C132.716 39.8959 132.708 39.8801 132.701 39.8645C132.708 39.8801 132.716 39.8959 132.723 39.9118ZM132.685 39.8337C132.677 39.819 132.67 39.8043 132.661 39.7898C132.67 39.8043 132.677 39.819 132.685 39.8337ZM132.64 39.7537C132.631 39.7379 132.621 39.7224 132.611 39.7069C132.621 39.7224 132.631 39.7379 132.64 39.7537ZM116.577 39.744C116.571 39.7193 116.566 39.6944 116.559 39.6698C116.566 39.6944 116.571 39.7193 116.577 39.744ZM132.594 39.6809C132.582 39.6645 132.57 39.6486 132.559 39.6327C132.57 39.6486 132.582 39.6645 132.594 39.6809ZM132.536 39.6028C132.526 39.5899 132.516 39.5773 132.505 39.5647C132.516 39.5773 132.526 39.5899 132.536 39.6028ZM132.478 39.5334C132.467 39.5203 132.455 39.5076 132.442 39.4949C132.455 39.5076 132.467 39.5203 132.478 39.5334ZM116.519 39.5214C116.509 39.4837 116.499 39.4459 116.487 39.4086C116.499 39.4459 116.509 39.4837 116.519 39.5214ZM132.412 39.464C132.403 39.4546 132.393 39.4453 132.383 39.4361C132.393 39.4453 132.403 39.4546 132.412 39.464ZM116.448 39.2886C116.434 39.2473 116.421 39.206 116.406 39.1652C116.421 39.206 116.434 39.2473 116.448 39.2886ZM116.361 39.0467C116.345 39.0042 116.329 38.9618 116.312 38.9199C116.329 38.9618 116.345 39.0042 116.361 39.0467ZM116.267 38.8172C116.247 38.7717 116.228 38.7262 116.207 38.6813C116.228 38.7262 116.247 38.7717 116.267 38.8172ZM2.5484 38.5681C2.54635 38.5663 2.54436 38.5644 2.54219 38.5628C2.54435 38.5644 2.54635 38.5663 2.5484 38.5681ZM116.151 38.5681C116.132 38.5295 116.112 38.491 116.092 38.4529C116.112 38.491 116.132 38.5295 116.151 38.5681ZM2.51158 38.5454C2.50861 38.5443 2.50557 38.5434 2.5025 38.5425C2.50557 38.5434 2.50862 38.5443 2.51158 38.5454ZM2.49102 38.5392H2.49006L2.46854 38.5372C2.47621 38.5372 2.48374 38.5378 2.49102 38.5392ZM116.033 38.3454C116.011 38.3066 115.99 38.2679 115.967 38.2297C115.99 38.2679 116.011 38.3066 116.033 38.3454ZM115.894 38.1107C115.873 38.0776 115.853 38.0445 115.831 38.0119C115.853 38.0445 115.873 38.0776 115.894 38.1107ZM115.755 37.8991C115.733 37.8678 115.711 37.8365 115.689 37.8056C115.711 37.8365 115.733 37.8678 115.755 37.8991ZM4.80988 37.8553C4.80887 37.8568 4.80795 37.8585 4.80701 37.8601C4.80795 37.8585 4.80887 37.8568 4.80988 37.8553ZM5.0179 37.8601C5.01697 37.8585 5.01604 37.8569 5.01503 37.8553C5.01604 37.8569 5.01697 37.8585 5.0179 37.8601ZM1.61206 37.8476C1.6116 37.836 1.61064 37.8247 1.60823 37.8138C1.61064 37.8247 1.6116 37.836 1.61206 37.8476ZM4.83762 37.8244C4.83592 37.8258 4.83446 37.8273 4.83283 37.8288C4.83446 37.8273 4.83592 37.8258 4.83762 37.8244ZM4.99208 37.8288C4.99019 37.8271 4.98833 37.8255 4.98634 37.8239C4.98833 37.8255 4.99019 37.8271 4.99208 37.8288ZM4.88352 37.8018C4.87809 37.8031 4.87287 37.805 4.86774 37.8071C4.87287 37.805 4.87809 37.8031 4.88352 37.8018ZM4.95573 37.8066C4.95277 37.8055 4.94972 37.8046 4.94665 37.8037C4.94972 37.8046 4.95277 37.8055 4.95573 37.8066ZM4.93517 37.8003H4.93422L4.9127 37.7984C4.92036 37.7984 4.9279 37.799 4.93517 37.8003ZM1.60154 37.7931C1.59896 37.7857 1.59637 37.7784 1.59293 37.7714C1.59637 37.7784 1.59896 37.7857 1.60154 37.7931ZM1.58528 37.7584C1.58085 37.751 1.57629 37.7439 1.57093 37.7372C1.57628 37.7439 1.58085 37.751 1.58528 37.7584ZM1.56233 37.7276C1.55684 37.7216 1.55129 37.7159 1.54511 37.7107C1.55128 37.7159 1.55684 37.7216 1.56233 37.7276ZM1.52885 37.6986C1.5224 37.6943 1.51571 37.6906 1.50877 37.6871C1.5157 37.6906 1.52241 37.6943 1.52885 37.6986ZM115.604 37.6933C115.581 37.6633 115.558 37.6333 115.535 37.6037C115.558 37.6333 115.581 37.6633 115.604 37.6933ZM1.49729 37.6813C1.48771 37.6772 1.47785 37.6741 1.46764 37.6716C1.47786 37.6741 1.48771 37.6772 1.49729 37.6813ZM1.4576 37.6688C1.45664 37.6686 1.45569 37.6684 1.45473 37.6683L1.41647 37.6663C1.43045 37.6656 1.44422 37.6664 1.4576 37.6688ZM115.448 37.4981C115.421 37.4667 115.394 37.4355 115.367 37.4046C115.394 37.4355 115.421 37.4667 115.448 37.4981ZM2.68517 37.4567C2.68271 37.4608 2.68038 37.465 2.678 37.4692C2.68038 37.465 2.6827 37.4608 2.68517 37.4567ZM2.74017 37.3786C2.73808 37.3812 2.736 37.3837 2.73395 37.3863C2.736 37.3837 2.73808 37.3812 2.74017 37.3786ZM115.273 37.3005C115.249 37.2747 115.225 37.2493 115.2 37.2239C115.225 37.2493 115.249 37.2747 115.273 37.3005ZM2.89607 37.2398C2.88941 37.2441 2.88246 37.2479 2.87598 37.2523C2.88246 37.2479 2.88941 37.2441 2.89607 37.2398ZM2.93289 37.2176C2.92832 37.2202 2.92352 37.2223 2.91902 37.2249C2.92352 37.2223 2.92832 37.2202 2.93289 37.2176ZM3.01132 37.1805C2.99503 37.1869 2.97906 37.1937 2.96349 37.2013C2.97798 37.1943 2.99286 37.1879 3.00797 37.182L3.01132 37.1805ZM7.46158 37.1217C7.46058 37.12 7.45979 37.1181 7.45871 37.1164C7.45979 37.1181 7.46058 37.12 7.46158 37.1217ZM115.097 37.1188C115.069 37.0915 115.04 37.0646 115.012 37.0379C115.04 37.0646 115.069 37.0915 115.097 37.1188ZM4.05574 37.1025C4.05506 37.0931 4.05436 37.0839 4.05239 37.075C4.05436 37.0839 4.05506 37.0931 4.05574 37.1025ZM7.43528 37.0894C7.43382 37.0882 7.43249 37.0868 7.43097 37.0856C7.43249 37.0868 7.43382 37.0882 7.43528 37.0894ZM7.39893 37.0673C7.39596 37.0661 7.39292 37.0653 7.38985 37.0644C7.39292 37.0653 7.39596 37.0661 7.39893 37.0673ZM7.37837 37.061H7.37741L7.35589 37.0591C7.36356 37.0591 7.37109 37.0596 7.37837 37.061ZM4.04521 37.0533C4.04278 37.0464 4.04073 37.0395 4.03756 37.0331C4.04073 37.0395 4.04278 37.0464 4.04521 37.0533ZM4.03135 37.0225C4.02646 37.014 4.02116 37.0059 4.01509 36.9984C4.02116 37.0059 4.02647 37.014 4.03135 37.0225ZM4.00648 36.9887C4.00099 36.9828 3.99544 36.977 3.98926 36.9719C3.99544 36.977 4.001 36.9828 4.00648 36.9887ZM3.973 36.9598C3.96656 36.9555 3.95986 36.9517 3.95292 36.9482C3.95986 36.9518 3.96656 36.9555 3.973 36.9598ZM114.918 36.9511C114.883 36.9198 114.847 36.889 114.812 36.8586C114.847 36.889 114.883 36.9198 114.918 36.9511ZM3.94144 36.9425C3.93187 36.9384 3.92201 36.9352 3.91179 36.9328C3.92201 36.9352 3.93186 36.9384 3.94144 36.9425ZM3.90175 36.9299C3.9008 36.9298 3.89984 36.9296 3.89888 36.9294L3.86062 36.9275C3.8746 36.9268 3.88838 36.9276 3.90175 36.9299ZM114.73 36.7906C114.694 36.7609 114.657 36.7317 114.62 36.7029C114.657 36.7317 114.694 36.7609 114.73 36.7906ZM5.12789 36.7198C5.1261 36.7228 5.12438 36.7259 5.12263 36.729C5.12438 36.7259 5.1261 36.7228 5.12789 36.7198ZM5.18671 36.6364C5.18296 36.641 5.17886 36.6453 5.17524 36.6499C5.17887 36.6453 5.18296 36.641 5.18671 36.6364ZM114.522 36.6282C114.486 36.6021 114.451 36.5768 114.415 36.5516C114.451 36.5768 114.486 36.6021 114.522 36.6282ZM5.33831 36.501C5.33248 36.5047 5.32678 36.5086 5.32109 36.5126C5.32678 36.5086 5.33248 36.5047 5.33831 36.501ZM5.37656 36.4783C5.37199 36.4809 5.36719 36.4829 5.3627 36.4856C5.36719 36.4829 5.37199 36.4809 5.37656 36.4783ZM114.306 36.4769C114.275 36.456 114.243 36.4359 114.211 36.4157C114.243 36.4359 114.275 36.456 114.306 36.4769ZM5.45499 36.4412C5.43871 36.4476 5.42273 36.4544 5.40717 36.4619C5.42165 36.4549 5.43654 36.4486 5.45164 36.4427L5.45499 36.4412ZM6.49989 36.3699C6.49943 36.3583 6.49847 36.347 6.49606 36.3362C6.49847 36.347 6.49943 36.3583 6.49989 36.3699ZM114.097 36.3444C114.061 36.3229 114.025 36.3023 113.989 36.2817C114.025 36.3023 114.061 36.3229 114.097 36.3444ZM6.48985 36.3174C6.4872 36.3095 6.48485 36.3016 6.48124 36.2942C6.48484 36.3016 6.4872 36.3095 6.48985 36.3174ZM6.47454 36.2827C6.4702 36.2752 6.46546 36.2682 6.4602 36.2615C6.46546 36.2682 6.47021 36.2752 6.47454 36.2827ZM6.44729 36.2465C6.44285 36.2419 6.43827 36.2376 6.43342 36.2335C6.43827 36.2376 6.44286 36.2419 6.44729 36.2465ZM6.41668 36.221C6.41023 36.2166 6.40353 36.2129 6.39659 36.2094C6.40353 36.2129 6.41023 36.2166 6.41668 36.221ZM113.873 36.2171C113.836 36.1969 113.798 36.1776 113.76 36.1583C113.798 36.1777 113.836 36.1969 113.873 36.2171ZM6.38512 36.2036C6.37554 36.1996 6.36568 36.1964 6.35547 36.194C6.36569 36.1964 6.37554 36.1996 6.38512 36.2036ZM6.34543 36.1911C6.34447 36.1909 6.34351 36.1908 6.34256 36.1906L6.3043 36.1887C6.31828 36.188 6.33205 36.1887 6.34543 36.1911ZM113.646 36.1015C113.605 36.0818 113.563 36.0637 113.521 36.0451C113.563 36.0637 113.605 36.0818 113.646 36.1015ZM113.414 35.9973C113.377 35.9819 113.34 35.9677 113.302 35.953C113.34 35.9677 113.377 35.9819 113.414 35.9973ZM7.57205 35.981C7.57025 35.984 7.56853 35.9871 7.56678 35.9901C7.56853 35.9871 7.57025 35.984 7.57205 35.981ZM7.63087 35.8976C7.62732 35.9019 7.62378 35.9062 7.62034 35.9106C7.62378 35.9062 7.62732 35.9019 7.63087 35.8976ZM113.163 35.8995C113.131 35.8878 113.098 35.8773 113.066 35.8663C113.098 35.8773 113.131 35.8878 113.163 35.8995ZM9.01817 35.8773C9.06879 35.862 9.11829 35.8444 9.16689 35.8253C9.11829 35.8444 9.06879 35.862 9.01817 35.8773ZM112.924 35.8195C112.878 35.8052 112.831 35.7925 112.784 35.7795C112.831 35.7925 112.878 35.8052 112.924 35.8195ZM9.20084 35.8108C9.23691 35.7959 9.27264 35.7806 9.30748 35.7636C9.27264 35.7806 9.23691 35.7959 9.20084 35.8108ZM7.78246 35.7622C7.77623 35.7662 7.76989 35.77 7.76381 35.7742C7.76989 35.77 7.77623 35.7662 7.78246 35.7622ZM112.674 35.7487C112.629 35.737 112.583 35.7273 112.537 35.7169C112.583 35.7273 112.629 35.737 112.674 35.7487ZM7.82072 35.7395C7.81615 35.742 7.81135 35.7441 7.80685 35.7467C7.81135 35.7441 7.81615 35.742 7.82072 35.7395ZM9.36152 35.7347C9.38848 35.7205 9.41524 35.7062 9.44138 35.6908C9.41524 35.7062 9.38848 35.7205 9.36152 35.7347ZM7.89914 35.7024C7.88286 35.7087 7.86688 35.7156 7.85132 35.7231C7.8658 35.7161 7.88069 35.7098 7.8958 35.7038L7.89914 35.7024ZM112.415 35.6894C112.374 35.6809 112.332 35.6742 112.29 35.6667C112.332 35.6742 112.374 35.6809 112.415 35.6894ZM9.4959 35.6566C9.52049 35.641 9.54528 35.626 9.56907 35.6094C9.54528 35.626 9.52049 35.641 9.4959 35.6566ZM112.156 35.6431C112.123 35.6381 112.089 35.6345 112.056 35.6301C112.089 35.6345 112.123 35.6381 112.156 35.6431ZM9.62789 35.566C9.64857 35.5504 9.6691 35.5347 9.6891 35.5183C9.6691 35.5347 9.64857 35.5504 9.62789 35.566ZM9.73931 35.4749C9.76122 35.4557 9.78287 35.4363 9.80387 35.4161C9.78287 35.4363 9.76122 35.4557 9.73931 35.4749ZM9.84978 35.3703C9.86941 35.3502 9.88843 35.3296 9.90717 35.3086C9.88843 35.3296 9.86941 35.3502 9.84978 35.3703ZM9.94829 35.2614C9.96807 35.2378 9.9875 35.2141 10.0062 35.1896C9.9875 35.2141 9.96807 35.2378 9.94829 35.2614ZM10.0444 35.1371C10.0595 35.1158 10.0741 35.0943 10.0884 35.0725C10.0741 35.0943 10.0595 35.1158 10.0444 35.1371ZM10.1252 35.0147C10.1392 34.9915 10.1524 34.968 10.1654 34.9443C10.1524 34.968 10.1392 34.9915 10.1252 35.0147ZM10.2032 34.8739C10.2133 34.8536 10.2224 34.8329 10.2319 34.8122C10.2224 34.8329 10.2133 34.8536 10.2032 34.8739ZM10.262 34.7438C10.2727 34.7177 10.2825 34.6913 10.2921 34.6648C10.2825 34.6913 10.2727 34.7177 10.262 34.7438ZM10.3146 34.6021C10.3254 34.5688 10.3347 34.5349 10.3438 34.5009C10.3347 34.5349 10.3254 34.5688 10.3146 34.6021ZM10.3557 34.457C10.3631 34.4268 10.3689 34.3962 10.3749 34.3655C10.3689 34.3962 10.3631 34.4268 10.3557 34.457ZM9.89712 34.2561C9.89918 34.2448 9.9025 34.2337 9.9043 34.2223L9.90525 34.2151C9.90314 34.2289 9.89961 34.2424 9.89712 34.2561ZM48.8123 33.99C48.8318 34.0005 48.8518 34.0103 48.8721 34.0194C48.8518 34.0103 48.8318 34.0005 48.8123 33.99ZM48.6956 33.9163C48.7264 33.9389 48.7588 33.9591 48.7922 33.978C48.7588 33.9591 48.7264 33.9389 48.6956 33.9163ZM48.6401 33.8719C48.6524 33.8823 48.6647 33.8925 48.6774 33.9023C48.6647 33.8925 48.6524 33.8823 48.6401 33.8719ZM48.5909 33.8276C48.6036 33.84 48.6167 33.8521 48.6301 33.8638C48.6167 33.8521 48.6036 33.84 48.5909 33.8276ZM48.5445 33.7789C48.5549 33.7906 48.5656 33.802 48.5765 33.8131C48.5656 33.802 48.5549 33.7906 48.5445 33.7789ZM48.5038 33.7307C48.5116 33.7406 48.5196 33.7501 48.5278 33.7597C48.5196 33.7501 48.5116 33.7406 48.5038 33.7307ZM118.576 33.7182C118.546 33.706 118.515 33.6951 118.484 33.6849C118.515 33.6951 118.546 33.706 118.576 33.7182ZM48.4632 33.6753C48.4701 33.6854 48.477 33.6954 48.4842 33.7052C48.477 33.6954 48.4701 33.6854 48.4632 33.6753ZM118.461 33.6772C118.44 33.6706 118.418 33.6645 118.397 33.6589C118.418 33.6645 118.44 33.6706 118.461 33.6772ZM48.4302 33.6237C48.4345 33.6311 48.4391 33.6382 48.4436 33.6454C48.4391 33.6382 48.4345 33.6311 48.4302 33.6237ZM48.3953 33.5592C48.4 33.5686 48.4047 33.5779 48.4096 33.5871C48.4047 33.5779 48.4 33.5686 48.3953 33.5592ZM48.368 33.4994C48.3719 33.5088 48.3758 33.5181 48.38 33.5274C48.3758 33.5181 48.3719 33.5088 48.368 33.4994ZM48.3417 33.429C48.3455 33.4405 48.3495 33.4519 48.3537 33.4633C48.3495 33.4519 48.3455 33.4405 48.3417 33.429ZM48.3207 33.3548C48.3244 33.3698 48.3278 33.3849 48.3322 33.3996C48.3278 33.3849 48.3244 33.3698 48.3207 33.3548ZM48.3049 33.2782C48.3079 33.2966 48.311 33.315 48.3149 33.3331C48.3109 33.315 48.3079 33.2967 48.3049 33.2782ZM48.7783 33.017C48.78 33.0505 48.7812 33.0842 48.7812 33.1182C48.7812 33.0842 48.78 33.0505 48.7783 33.017ZM48.2839 32.9688C48.2758 32.888 48.2599 32.8095 48.2394 32.7331C48.2599 32.8095 48.2758 32.888 48.2839 32.9688ZM10.02 32.5022C9.96672 32.6655 9.93387 32.838 9.92486 33.017L9.93251 32.9167C9.94697 32.7735 9.97676 32.6348 10.02 32.5022ZM48.6789 32.4883C48.6767 32.4817 48.6744 32.4751 48.6722 32.4685C48.6744 32.4751 48.6767 32.4817 48.6789 32.4883ZM48.6597 32.4343C48.6531 32.4163 48.6463 32.3985 48.6392 32.3808C48.6463 32.3985 48.6531 32.4163 48.6597 32.4343ZM10.1095 32.2767C10.0872 32.324 10.0668 32.3724 10.0482 32.4218C10.0668 32.3724 10.0872 32.324 10.1095 32.2767ZM48.6234 32.3427C48.6178 32.3297 48.6125 32.3166 48.6067 32.3037C48.6125 32.3166 48.6178 32.3297 48.6234 32.3427ZM48.5459 32.1817C48.5374 32.1659 48.529 32.1501 48.5201 32.1345C48.529 32.1501 48.5374 32.1659 48.5459 32.1817ZM10.1544 32.187C10.1488 32.1975 10.1436 32.2082 10.1381 32.2189C10.1436 32.2082 10.1488 32.1975 10.1544 32.187ZM10.2041 32.0993C10.1937 32.1166 10.1839 32.1342 10.174 32.1519C10.1839 32.1342 10.1937 32.1166 10.2041 32.0993ZM48.4976 32.0964C48.4893 32.0826 48.4805 32.0691 48.4718 32.0555C48.4805 32.0691 48.4893 32.0826 48.4976 32.0964ZM10.2477 32.0294C10.2383 32.0436 10.2294 32.058 10.2204 32.0723C10.2294 32.058 10.2383 32.0436 10.2477 32.0294ZM48.4465 32.0164C48.4406 32.0077 48.4347 31.999 48.4288 31.9904C48.4347 31.999 48.4406 32.0077 48.4465 32.0164ZM10.3003 31.9543C10.2916 31.9662 10.2833 31.9783 10.2749 31.9904C10.2833 31.9783 10.2916 31.9662 10.3003 31.9543ZM48.3924 31.9393C48.386 31.9307 48.3793 31.9223 48.3728 31.9138C48.3793 31.9223 48.386 31.9307 48.3924 31.9393ZM10.361 31.8757C10.3502 31.8891 10.3394 31.9025 10.329 31.9162C10.3394 31.9025 10.3502 31.8891 10.361 31.8757ZM48.3432 31.8757C48.3333 31.8635 48.3232 31.8515 48.313 31.8396C48.3232 31.8515 48.3333 31.8635 48.3432 31.8757ZM10.4208 31.8044C10.4093 31.8173 10.3984 31.8307 10.3873 31.8439C10.3984 31.8307 10.4093 31.8173 10.4208 31.8044ZM48.2805 31.802C48.2723 31.7927 48.264 31.7836 48.2556 31.7745C48.264 31.7836 48.2723 31.7927 48.2805 31.802ZM10.4834 31.7374C10.4692 31.752 10.4551 31.7667 10.4413 31.7817C10.4551 31.7667 10.4692 31.752 10.4834 31.7374ZM48.2289 31.7461C48.2161 31.7329 48.2032 31.7199 48.1901 31.707C48.2032 31.7199 48.2161 31.7329 48.2289 31.7461ZM10.5513 31.6714C10.5384 31.6834 10.5257 31.6956 10.5131 31.708C10.5257 31.6956 10.5384 31.6834 10.5513 31.6714ZM48.1643 31.682C48.1497 31.6682 48.1348 31.6548 48.1198 31.6415C48.1348 31.6548 48.1497 31.6682 48.1643 31.682ZM46.9018 31.6434C46.9876 31.6478 47.0712 31.6604 47.1524 31.6791C47.0712 31.6604 46.9876 31.6478 46.9018 31.6434ZM10.6231 31.6077C10.6069 31.6214 10.5909 31.6351 10.5752 31.6492C10.5909 31.6351 10.6069 31.6214 10.6231 31.6077ZM48.1007 31.6246C48.0858 31.6117 48.0706 31.599 48.0553 31.5865C48.0706 31.599 48.0858 31.6117 48.1007 31.6246ZM10.6943 31.5504C10.6791 31.5621 10.6637 31.5735 10.6489 31.5856C10.6637 31.5735 10.6791 31.5621 10.6943 31.5504ZM48.0295 31.5653C48.0138 31.553 47.9977 31.5411 47.9816 31.5292C47.9977 31.5411 48.0138 31.553 48.0295 31.5653ZM10.7656 31.4974C10.7513 31.5073 10.7375 31.5179 10.7235 31.5282C10.7375 31.5179 10.7513 31.5073 10.7656 31.4974ZM47.9587 31.5118C47.9436 31.501 47.9281 31.4909 47.9128 31.4805C47.9281 31.4909 47.9436 31.501 47.9587 31.5118ZM10.8526 31.44C10.8327 31.4524 10.8131 31.4651 10.7938 31.4781C10.8131 31.4651 10.8327 31.4524 10.8526 31.44ZM47.8802 31.4583C47.8669 31.4497 47.8532 31.4416 47.8396 31.4333C47.8532 31.4416 47.8669 31.4497 47.8802 31.4583ZM10.9186 31.4015C10.9029 31.4104 10.8871 31.4191 10.8717 31.4285C10.8871 31.4191 10.9029 31.4104 10.9186 31.4015ZM47.8028 31.4111C47.7877 31.4023 47.7722 31.394 47.7569 31.3856C47.7722 31.394 47.7877 31.4023 47.8028 31.4111ZM11.0066 31.3542C10.9914 31.3619 10.9761 31.3693 10.9612 31.3774C10.9761 31.3693 10.9914 31.3619 11.0066 31.3542ZM47.7272 31.3692C47.7066 31.3584 47.6856 31.3484 47.6646 31.3383C47.6856 31.3484 47.7066 31.3584 47.7272 31.3692ZM11.0898 31.3147C11.0726 31.3224 11.0555 31.3302 11.0386 31.3383C11.0555 31.3302 11.0726 31.3224 11.0898 31.3147ZM47.6478 31.3301C47.6275 31.3206 47.6069 31.3115 47.5861 31.3027C47.6069 31.3115 47.6275 31.3206 47.6478 31.3301ZM11.1749 31.2795C11.1595 31.2855 11.1442 31.2915 11.129 31.2978C11.1442 31.2915 11.1595 31.2855 11.1749 31.2795ZM47.5618 31.2921C47.5445 31.285 47.5271 31.2784 47.5096 31.2718C47.5271 31.2784 47.5445 31.285 47.5618 31.2921ZM11.2706 31.2453C11.2512 31.2517 11.2318 31.2576 11.2127 31.2646C11.2318 31.2576 11.2512 31.2517 11.2706 31.2453ZM47.4728 31.2583C47.4589 31.2534 47.4448 31.249 47.4307 31.2443C47.4448 31.249 47.4589 31.2534 47.4728 31.2583ZM11.3585 31.2183C11.3403 31.2234 11.3221 31.2286 11.304 31.2342C11.3221 31.2286 11.3403 31.2234 11.3585 31.2183ZM47.3882 31.2304C47.3745 31.2263 47.3608 31.2226 47.347 31.2188C47.3608 31.2226 47.3745 31.2263 47.3882 31.2304ZM11.4494 31.1957C11.4311 31.1998 11.413 31.2041 11.3949 31.2087C11.413 31.2041 11.4311 31.1998 11.4494 31.1957ZM47.1232 31.1706C47.1784 31.1791 47.2328 31.1899 47.2863 31.2029C47.2328 31.1899 47.1784 31.1791 47.1232 31.1706ZM11.5484 31.1759C11.5289 31.1793 11.5094 31.1826 11.4901 31.1865C11.5094 31.1826 11.5289 31.1793 11.5484 31.1759ZM11.634 31.1634C11.6169 31.1655 11.5998 31.1675 11.5828 31.1701C11.5998 31.1675 11.6169 31.1655 11.634 31.1634ZM10.0167 49.4872C10.0236 49.5087 10.0306 49.5301 10.0382 49.5513C10.0306 49.5301 10.0236 49.5087 10.0167 49.4872ZM10.0167 49.4872C10.0145 49.4804 10.0121 49.4737 10.01 49.4669C10.0121 49.4737 10.0145 49.4804 10.0167 49.4872ZM116.564 42.3114C116.582 42.2396 116.598 42.1674 116.613 42.0945C116.598 42.1674 116.582 42.2396 116.564 42.3114ZM116.697 41.5451C116.706 41.4557 116.712 41.3658 116.717 41.2752C116.712 41.3658 116.706 41.4557 116.697 41.5451ZM132.821 41.7856C132.826 41.7607 132.831 41.7356 132.835 41.7104C132.831 41.7356 132.826 41.7607 132.821 41.7856ZM132.838 41.6897C132.837 41.6966 132.836 41.7035 132.835 41.7104C132.836 41.7024 132.837 41.6944 132.838 41.6863V41.6897ZM116.724 41.0005C116.724 40.9079 116.721 40.8158 116.716 40.7243C116.721 40.8158 116.724 40.9079 116.724 41.0005ZM132.849 40.4072C132.846 40.3751 132.843 40.3433 132.838 40.3118C132.843 40.3433 132.846 40.3751 132.849 40.4072ZM132.346 39.4019C132.327 39.3854 132.307 39.3697 132.287 39.3541C132.307 39.3697 132.327 39.3854 132.346 39.4019ZM132.278 39.3464C132.256 39.3289 132.232 39.3121 132.209 39.2958C132.232 39.3121 132.256 39.3289 132.278 39.3464ZM48.2915 33.1182C48.2915 33.0704 48.2888 33.0231 48.2843 32.9765C48.2888 33.0231 48.2915 33.0704 48.2915 33.1182ZM10.0382 32.4483C10.0318 32.4661 10.0259 32.4842 10.02 32.5022C10.0259 32.4842 10.0318 32.4661 10.0382 32.4483ZM48.7429 32.7302C48.7435 32.733 48.7443 32.7356 48.7449 32.7384C48.7443 32.7356 48.7435 32.733 48.7429 32.7302ZM48.5866 32.2608C48.5786 32.2442 48.5701 32.2279 48.5617 32.2116C48.5701 32.2279 48.5786 32.2442 48.5866 32.2608Z" fill="#0E121B"/>
</svg>
