<svg width="134" height="82" viewBox="0 0 134 82" fill="none" xmlns="http://www.w3.org/2000/svg">
<path d="M131.953 47.7105C131.677 47.7105 131.453 47.9344 131.453 48.2105L131.453 49C131.453 49.2761 131.229 49.5 130.953 49.5L130.155 49.5C129.879 49.5 129.655 49.7239 129.655 50L129.655 53.5263C129.655 55.5029 128.046 57.1053 126.061 57.1053L124.711 57.1053C124.464 57.1053 124.264 57.3056 124.264 57.5526C124.264 57.7997 124.063 58 123.816 58L92.3595 58C92.1125 58 91.9122 57.7997 91.9122 57.5526C91.9122 57.3056 91.7119 57.1053 91.4648 57.1053L90.1149 57.1053C88.1296 57.1053 86.5203 55.5029 86.5203 53.5263L86.5203 47.7632C86.5203 47.487 86.2964 47.2632 86.0203 47.2632L33.9474 47.2632C33.7003 47.2632 33.5 47.4635 33.5 47.7105C33.5 48.6988 32.6953 49.5 31.7027 49.5L29.5068 49.5C29.2306 49.5 29.0068 49.7239 29.0068 50L29.0068 51.2895C29.0068 51.7836 28.6044 52.1842 28.1081 52.1842L21.8176 52.1842C21.3213 52.1842 20.9189 51.7836 20.9189 51.2895L20.9189 50C20.9189 49.7239 20.6951 49.5 20.4189 49.5L19.6216 49.5C19.3455 49.5 19.1216 49.7239 19.1216 50L19.1216 51.7368C19.1216 51.9839 18.9205 52.1842 18.6723 52.1842C18.4241 52.1842 18.223 51.9839 18.223 51.7368L18.223 51.2895C18.223 51.7836 17.8206 52.1842 17.3243 52.1842L11.0338 52.1842C10.5375 52.1842 10.1351 51.7836 10.1351 51.2895L10.1351 47.7632C10.1351 47.487 9.91128 47.2632 9.63514 47.2632L2.0473 47.2632C1.05469 47.2632 0.249999 46.462 0.249999 45.4737L0.249999 36.5263C0.249999 35.538 1.05469 34.7368 2.0473 34.7368L9.63514 34.7368C9.91128 34.7368 10.1351 34.513 10.1351 34.2368L10.1351 30.7105C10.1351 30.2164 10.5375 29.8158 11.0338 29.8158L17.3243 29.8158C17.8206 29.8158 18.223 30.2164 18.223 30.7105L18.223 30.2632C18.223 30.0161 18.4241 29.8158 18.6723 29.8158C18.9205 29.8158 19.1216 30.0161 19.1216 30.2632L19.1216 32C19.1216 32.2761 19.3455 32.5 19.6216 32.5L20.4189 32.5C20.6951 32.5 20.9189 32.2761 20.9189 32L20.9189 30.7105C20.9189 30.2164 21.3213 29.8158 21.8176 29.8158L28.1081 29.8158C28.6044 29.8158 29.0068 30.2164 29.0068 30.7105L29.0068 32C29.0068 32.2761 29.2306 32.5 29.5068 32.5L31.7027 32.5C32.6953 32.5 33.5 33.3012 33.5 34.2895C33.5 34.5365 33.7003 34.7368 33.9474 34.7368L86.0203 34.7368C86.2964 34.7368 86.5203 34.513 86.5203 34.2368L86.5203 28.4737C86.5203 26.4971 88.1296 24.8947 90.1149 24.8947L91.4648 24.8947C91.7119 24.8947 91.9122 24.6944 91.9122 24.4474C91.9122 24.2003 92.1125 24 92.3595 24L123.816 24C124.063 24 124.264 24.2003 124.264 24.4474C124.264 24.6944 124.464 24.8947 124.711 24.8947L126.061 24.8947C128.046 24.8947 129.655 26.4971 129.655 28.4737L129.655 32C129.655 32.2761 129.879 32.5 130.155 32.5L130.953 32.5C131.229 32.5 131.453 32.7239 131.453 33L131.453 33.7895C131.453 34.0656 131.677 34.2895 131.953 34.2895L132.75 34.2895C133.026 34.2895 133.25 34.5133 133.25 34.7895L133.25 47.2105C133.25 47.4867 133.026 47.7105 132.75 47.7105L131.953 47.7105ZM2.0473 35.1842C1.30284 35.1842 0.699325 35.7851 0.699325 36.5263L0.699325 45.4737C0.699325 46.1918 1.26573 46.7781 1.97797 46.814L2.0473 46.8158C2.30197 46.8158 2.51799 46.6244 2.54625 46.3713L3.73302 35.7397C3.76608 35.4434 3.53421 35.1842 3.2361 35.1842L2.0473 35.1842ZM4.69427 35.1842C4.43959 35.1842 4.22562 35.3756 4.19737 35.6288L3.011 46.2603C2.97795 46.5566 3.20982 46.8158 3.50792 46.8158L4.29596 46.8158C4.55063 46.8158 4.76462 46.6244 4.79286 46.3713L5.97963 35.7397C6.0127 35.4434 5.78082 35.1842 5.48272 35.1842L4.69427 35.1842ZM6.9409 35.1842C6.68622 35.1842 6.47223 35.3756 6.44398 35.6288L5.25762 46.2603C5.22456 46.5566 5.45644 46.8158 5.75454 46.8158L6.54258 46.8158C6.79726 46.8158 7.01124 46.6244 7.03949 46.3713L8.22625 35.7397C8.25932 35.4434 8.02745 35.1842 7.72934 35.1842L6.9409 35.1842ZM9.18752 35.1842C8.93284 35.1842 8.71886 35.3756 8.6906 35.6288L7.50425 46.2603C7.47118 46.5566 7.70306 46.8158 8.00116 46.8158L9.63514 46.8158C9.91128 46.8158 10.1351 46.5919 10.1351 46.3158L10.1351 35.6842C10.1351 35.4081 9.91128 35.1842 9.63514 35.1842L9.18752 35.1842ZM18.223 30.7105C17.9748 30.7105 17.7753 30.4665 17.5659 30.3333C17.4962 30.2889 17.4133 30.2632 17.3243 30.2632L11.0338 30.2632C10.7856 30.2632 10.5845 30.4634 10.5845 30.7105L10.5845 51.2895C10.5845 51.5365 10.7856 51.7368 11.0338 51.7368L17.3243 51.7368C17.4133 51.7368 17.4962 51.7111 17.5659 51.6667C17.7753 51.5335 17.9748 51.2895 18.223 51.2895C18.4711 51.2895 18.6723 51.0883 18.6723 50.8402L18.6723 31.1598C18.6723 30.9117 18.4711 30.7105 18.223 30.7105ZM16.875 35.4079C16.875 35.7785 16.5732 36.0789 16.201 36.0789L12.1571 36.0789C11.7849 36.0789 11.4831 35.7785 11.4831 35.4079C11.4831 35.0373 11.7849 34.7368 12.1571 34.7368L16.201 34.7368C16.5732 34.7368 16.875 35.0373 16.875 35.4079ZM16.875 46.5921C16.875 46.9627 16.5732 47.2632 16.201 47.2632L12.1571 47.2632C11.7849 47.2632 11.4831 46.9627 11.4831 46.5921C11.4831 46.2215 11.7849 45.9211 12.1571 45.9211L16.201 45.9211C16.5732 45.9211 16.875 46.2215 16.875 46.5921ZM16.4257 35.4079C16.4257 35.2844 16.3251 35.1842 16.201 35.1842L12.1571 35.1842C12.033 35.1842 11.9324 35.2844 11.9324 35.4079C11.9324 35.5314 12.033 35.6316 12.1571 35.6316L16.201 35.6316C16.3251 35.6316 16.4257 35.5314 16.4257 35.4079ZM16.4257 46.5921C16.4257 46.4686 16.3251 46.3684 16.201 46.3684L12.1571 46.3684C12.033 46.3684 11.9324 46.4686 11.9324 46.5921C11.9324 46.7156 12.033 46.8158 12.1571 46.8158L16.201 46.8158C16.3251 46.8158 16.4257 46.7156 16.4257 46.5921ZM19.6216 32.9474C19.3455 32.9474 19.1216 33.1712 19.1216 33.4474L19.1216 48.5526C19.1216 48.8288 19.3455 49.0526 19.6216 49.0526L20.4189 49.0526C20.6951 49.0526 20.9189 48.8288 20.9189 48.5526L20.9189 33.4474C20.9189 33.1712 20.6951 32.9474 20.4189 32.9474L19.6216 32.9474ZM28.5574 30.7105C28.5574 30.4634 28.3563 30.2632 28.1081 30.2632L21.8176 30.2632C21.5694 30.2632 21.3682 30.4634 21.3682 30.7105L21.3682 51.2895C21.3682 51.5365 21.5694 51.7368 21.8176 51.7368L28.1081 51.7368C28.3407 51.7368 28.5322 51.5609 28.5552 51.3353L28.5574 51.2895L28.5574 30.7105ZM27.6588 35.4079C27.6588 35.7785 27.357 36.0789 26.9848 36.0789L22.9409 36.0789C22.5686 36.0789 22.2669 35.7785 22.2669 35.4079C22.2669 35.0373 22.5686 34.7368 22.9409 34.7368L26.9848 34.7368C27.357 34.7368 27.6588 35.0373 27.6588 35.4079ZM27.6588 46.5921C27.6588 46.9627 27.357 47.2632 26.9848 47.2632L22.9409 47.2632C22.5686 47.2632 22.2669 46.9627 22.2669 46.5921C22.2669 46.2215 22.5686 45.9211 22.9409 45.9211L26.9848 45.9211C27.357 45.9211 27.6588 46.2215 27.6588 46.5921ZM27.2095 35.4079C27.2095 35.2844 27.1089 35.1842 26.9848 35.1842L22.9409 35.1842C22.8168 35.1842 22.7162 35.2844 22.7162 35.4079C22.7162 35.5314 22.8168 35.6316 22.9409 35.6316L26.9848 35.6316C27.1089 35.6316 27.2095 35.5314 27.2095 35.4079ZM27.2095 46.5921C27.2095 46.4686 27.1089 46.3684 26.9848 46.3684L22.9409 46.3684C22.8168 46.3684 22.7162 46.4686 22.7162 46.5921C22.7162 46.7156 22.8168 46.8158 22.9409 46.8158L26.9848 46.8158C27.1089 46.8158 27.2095 46.7156 27.2095 46.5921ZM33.0507 34.2895C33.0507 33.5482 32.4472 32.9474 31.7027 32.9474L29.5068 32.9474C29.2306 32.9474 29.0068 33.1712 29.0068 33.4474L29.0068 48.5526C29.0068 48.8288 29.2306 49.0526 29.5068 49.0526L31.7027 49.0526C32.4239 49.0526 33.0128 48.4887 33.0489 47.7796L33.0507 47.7105L33.0507 34.2895ZM34 35.1842C33.7239 35.1842 33.5 35.4081 33.5 35.6842L33.5 46.3158C33.5 46.5919 33.7239 46.8158 34 46.8158L86.0203 46.8158C86.2964 46.8158 86.5203 46.5919 86.5203 46.3158L86.5203 35.6842C86.5203 35.4081 86.2964 35.1842 86.0203 35.1842L34 35.1842ZM90.1149 25.3421C88.3778 25.3421 86.9696 26.7442 86.9696 28.4737L86.9696 53.5263C86.9696 55.2558 88.3778 56.6579 90.1149 56.6579L91.4122 56.6579C91.6883 56.6579 91.9122 56.434 91.9122 56.1579L91.9122 25.8421C91.9122 25.566 91.6883 25.3421 91.4122 25.3421L90.1149 25.3421ZM92.8615 24.4474C92.5853 24.4474 92.3615 24.6712 92.3615 24.9474L92.3615 57.0526C92.3615 57.3288 92.5853 57.5526 92.8615 57.5526L123.314 57.5526C123.59 57.5526 123.814 57.3288 123.814 57.0526L123.814 24.9474C123.814 24.6712 123.59 24.4474 123.314 24.4474L92.8615 24.4474ZM131.503 34.7368C131.227 34.7368 131.003 34.513 131.003 34.2368L131.003 33.4474C131.003 33.1712 130.78 32.9474 130.503 32.9474L129.706 32.9474C129.43 32.9474 129.206 32.7235 129.206 32.4474L129.206 28.4737C129.206 26.7982 127.885 25.4299 126.223 25.346L126.061 25.3421L124.764 25.3421C124.487 25.3421 124.264 25.566 124.264 25.8421L124.264 56.1579C124.264 56.434 124.487 56.6579 124.764 56.6579L126.061 56.6579C127.744 56.6579 129.118 55.3421 129.202 53.6875L129.206 53.5263L129.206 49.5526C129.206 49.2765 129.43 49.0526 129.706 49.0526L130.503 49.0526C130.78 49.0526 131.003 48.8288 131.003 48.5526L131.003 47.7632C131.003 47.487 131.227 47.2632 131.503 47.2632L132.301 47.2632C132.577 47.2632 132.801 47.0393 132.801 46.7632L132.801 35.2368C132.801 34.9607 132.577 34.7368 132.301 34.7368L131.503 34.7368Z" fill="#0E121B" stroke="#0E121B" stroke-width="0.5"/>
</svg>
