<svg width="134" height="82" viewBox="0 0 134 82" fill="none" xmlns="http://www.w3.org/2000/svg">
<path d="M128.462 56.7857L128.386 56.795C128.383 56.7954 128.381 56.7933 128.381 56.7904C128.38 56.7878 128.378 56.7857 128.376 56.7857L125.018 56.7857L124.942 56.795C124.939 56.7954 124.937 56.7933 124.936 56.7904C124.936 56.7878 124.934 56.7857 124.932 56.7857L121.574 56.7857L121.497 56.795C121.494 56.7954 121.492 56.7933 121.492 56.7904C121.492 56.7878 121.489 56.7857 121.487 56.7857L117.736 56.7857C117.62 56.7857 117.526 56.8802 117.526 56.9968C117.526 57.028 117.519 57.0588 117.506 57.087L115.466 61.4369C115.243 61.9115 114.769 62.2143 114.248 62.2143L104.637 62.2143C104.115 62.2143 103.641 61.9115 103.418 61.4369L101.483 57.3118C101.401 57.1356 101.358 56.9431 101.358 56.7481L101.358 56.5266C101.358 55.9202 100.87 55.4286 100.268 55.4286L100.027 55.4583C100.018 55.4594 100.01 55.4528 100.009 55.4435C100.008 55.435 100.001 55.4286 99.9923 55.4286L95.9868 55.4286L95.7463 55.4583C95.7371 55.4594 95.7288 55.4528 95.7279 55.4435C95.727 55.435 95.7199 55.4286 95.7114 55.4286L93.2737 55.4286C92.5296 55.4286 91.9263 56.0362 91.9263 56.7857L91.9263 62.0151C91.9263 62.1472 91.9072 62.2786 91.8695 62.4051L90.1933 68.0328C90.0223 68.6069 89.4978 69 88.9028 69L81.4762 69C80.8812 69 80.3566 68.6069 80.1856 68.0328L78.7407 63.1815C78.5697 62.6074 78.0452 62.2143 77.4501 62.2143L31.2947 62.2143C30.5506 62.2143 29.9474 61.6067 29.9474 60.8571L29.9474 56.7857C29.9474 56.0362 29.3441 55.4286 28.6 55.4286L22.0292 55.4286C21.6459 55.4286 21.3257 55.7227 21.2905 56.1071C21.2552 56.4916 20.935 56.7857 20.5517 56.7857L15.0903 56.7857C14.7071 56.7857 14.387 56.4915 14.352 56.1071C14.3169 55.7227 13.9968 55.4286 13.6136 55.4286L7.0421 55.4286C4.80971 55.4286 3 53.6057 3 51.3571L3 29.6429C3 27.3943 4.80971 25.5714 7.0421 25.5714L13.6136 25.5714C13.9968 25.5714 14.3169 25.2773 14.352 24.8929C14.387 24.5085 14.7071 24.2143 15.0903 24.2143L20.5517 24.2143C20.935 24.2143 21.2552 24.5084 21.2905 24.8929C21.3257 25.2773 21.6459 25.5714 22.0292 25.5714L28.6 25.5714C29.3441 25.5714 29.9474 24.9638 29.9474 24.2143L29.9474 20.1429C29.9474 19.3933 30.5506 18.7857 31.2947 18.7857L77.4501 18.7857C78.0452 18.7857 78.5697 18.3926 78.7407 17.8185L80.1856 12.9672C80.3566 12.3931 80.8812 12 81.4762 12L88.9028 12C89.4978 12 90.0223 12.3931 90.1933 12.9672L91.8695 18.5949C91.9072 18.7214 91.9263 18.8528 91.9263 18.9849L91.9263 24.2143C91.9263 24.9638 92.5296 25.5714 93.2737 25.5714L100.048 25.5714C100.771 25.5714 101.358 24.9806 101.358 24.2519C101.358 24.0569 101.401 23.8644 101.483 23.6882L103.418 19.5631C103.641 19.0885 104.115 18.7857 104.637 18.7857L114.248 18.7857C114.769 18.7857 115.243 19.0885 115.466 19.5631L117.506 23.913C117.519 23.9412 117.526 23.972 117.526 24.0032C117.526 24.1198 117.62 24.2143 117.736 24.2143L129.653 24.2143C130.397 24.2143 131 24.8219 131 25.5714L131 55.4286C131 56.1781 130.397 56.7857 129.653 56.7857L128.462 56.7857ZM7.0421 26.25C5.18177 26.25 3.67367 27.769 3.67367 29.6429L3.67367 51.3571C3.67367 53.231 5.18177 54.75 7.0421 54.75L12.4316 54.75C13.1757 54.75 13.7789 54.1424 13.7789 53.3929L13.7789 27.6071C13.7789 26.8576 13.1757 26.25 12.4316 26.25L7.0421 26.25ZM20.8012 25.7789C20.7233 25.6843 20.6756 25.5682 20.6644 25.4458C20.6357 25.1326 20.3748 24.8929 20.0625 24.8929L15.5801 24.8929C15.2679 24.8929 15.007 25.1325 14.9784 25.4457C14.9672 25.5682 14.9194 25.6843 14.8413 25.7789L14.7263 25.9184C14.5494 26.1327 14.4526 26.4025 14.4526 26.6812L14.4526 54.3188C14.4526 54.5975 14.5494 54.8673 14.7263 55.0816L14.8413 55.2211C14.9194 55.3156 14.9672 55.4318 14.9784 55.5543C15.007 55.8675 15.2679 56.1071 15.5801 56.1071L20.0625 56.1071C20.3748 56.1071 20.6357 55.8674 20.6644 55.5541C20.6756 55.4318 20.7233 55.3157 20.8012 55.2211L20.9162 55.0816C21.0928 54.8673 21.1895 54.5975 21.1895 54.319L21.1895 26.681C21.1895 26.4025 21.0928 26.1327 20.9162 25.9184L20.8012 25.7789ZM15.4631 30.3214C15.2771 30.3214 15.1263 30.1695 15.1263 29.9821C15.1263 29.7948 15.2771 29.6429 15.4631 29.6429L20.1789 29.6429C20.365 29.6429 20.5158 29.7948 20.5158 29.9821C20.5158 30.1695 20.365 30.3214 20.1789 30.3214L15.4631 30.3214ZM15.4631 51.3505C15.2771 51.3505 15.1263 51.1986 15.1263 51.0112C15.1263 50.8238 15.2771 50.6719 15.4631 50.6719L20.1789 50.6719C20.365 50.6719 20.5158 50.8238 20.5158 51.0112C20.5158 51.1986 20.365 51.3505 20.1789 51.3505L15.4631 51.3505ZM23.2105 26.25C22.4664 26.25 21.8632 26.8576 21.8632 27.6071L21.8631 53.3929C21.8631 54.1424 22.4664 54.75 23.2105 54.75L28.6 54.75C29.3441 54.75 29.9474 54.1424 29.9474 53.3929L29.9474 27.6071C29.9474 26.8576 29.3441 26.25 28.6 26.25L23.2105 26.25ZM31.9684 19.4643C31.2243 19.4643 30.621 20.0719 30.621 20.8214L30.621 60.1786C30.621 60.9281 31.2243 61.5357 31.9684 61.5357L77.1053 61.5357C77.8494 61.5357 78.4526 60.9281 78.4526 60.1786L78.4526 20.8214C78.4526 20.0719 77.8494 19.4643 77.1053 19.4643L31.9684 19.4643ZM89.692 13.6458C89.521 13.0717 88.9965 12.6786 88.4015 12.6786L81.9775 12.6786C81.3825 12.6786 80.8579 13.0717 80.6869 13.6458L79.1831 18.695C79.1455 18.8215 79.1263 18.9529 79.1263 19.085L79.1263 61.915C79.1263 62.0471 79.1455 62.1785 79.1831 62.305L80.6869 67.3542C80.8579 67.9283 81.3825 68.3214 81.9775 68.3214L88.4014 68.3214C88.9965 68.3214 89.521 67.9283 89.692 67.3542L91.1958 62.305C91.2335 62.1785 91.2526 62.0471 91.2526 61.915L91.2526 19.085C91.2526 18.9529 91.2335 18.8215 91.1958 18.695L89.692 13.6458ZM80.1368 20.8214C79.9508 20.8214 79.8 20.6695 79.8 20.4821C79.8 20.2948 79.9508 20.1429 80.1368 20.1429L90.2421 20.1429C90.4281 20.1429 90.5789 20.2948 90.5789 20.4821C90.5789 20.6695 90.4281 20.8214 90.2421 20.8214L80.1368 20.8214ZM80.1368 60.8505C79.9508 60.8505 79.8 60.6986 79.8 60.5112C79.8 60.3238 79.9508 60.1719 80.1368 60.1719L90.2421 60.1719C90.4281 60.1719 90.5789 60.3238 90.5789 60.5112C90.5789 60.6986 90.4281 60.8505 90.2421 60.8505L80.1368 60.8505ZM92.183 26.3639C92.175 26.2989 92.1202 26.25 92.0551 26.25C91.984 26.25 91.9263 26.3081 91.9263 26.3797L91.9263 53.3929C91.9263 54.1424 92.5296 54.75 93.2737 54.75L94.1205 54.75C94.9297 54.75 95.5564 54.0365 95.4578 53.2275L92.183 26.3639ZM96.5953 27.4417C96.5123 26.7613 95.9386 26.25 95.258 26.25L94.371 26.25C93.5617 26.25 92.935 26.9635 93.0336 27.7725L96.1771 53.5583C96.26 54.2387 96.8338 54.75 97.5144 54.75L98.4014 54.75C99.2107 54.75 99.8374 54.0365 99.7387 53.2275L96.5953 27.4417ZM98.6519 26.25C97.8426 26.25 97.2159 26.9635 97.3146 27.7725L100.56 54.3959C100.585 54.5981 100.755 54.75 100.958 54.75C101.179 54.75 101.358 54.5694 101.358 54.3467L101.358 27.6071C101.358 26.8576 100.755 26.25 100.011 26.25L98.6519 26.25ZM115.04 20.2418C114.817 19.7671 114.343 19.4643 113.821 19.4643L105.063 19.4643C104.542 19.4643 104.068 19.767 103.845 20.2417L102.161 23.833C102.076 24.0142 102.032 24.2122 102.032 24.4127L102.032 56.5873C102.032 56.7878 102.076 56.9858 102.161 57.167L103.845 60.7583C104.068 61.233 104.542 61.5357 105.063 61.5357L113.821 61.5357C114.343 61.5357 114.817 61.2329 115.04 60.7582L116.724 57.167C116.809 56.9857 116.853 56.7878 116.853 56.5874L116.853 24.4126C116.853 24.2122 116.809 24.0143 116.724 23.833L115.04 20.2418ZM103.716 26.25C103.53 26.25 103.379 26.0981 103.379 25.9107C103.379 25.7233 103.53 25.5714 103.716 25.5714L115.168 25.5714C115.354 25.5714 115.505 25.7233 115.505 25.9107C115.505 26.0981 115.354 26.25 115.168 26.25L103.716 26.25ZM103.716 55.4286C103.53 55.4286 103.379 55.2767 103.379 55.0893C103.379 54.9019 103.53 54.75 103.716 54.75L115.168 54.75C115.354 54.75 115.505 54.9019 115.505 55.0893C115.505 55.2767 115.354 55.4286 115.168 55.4286L103.716 55.4286ZM117.608 24.929C117.605 24.9084 117.588 24.8929 117.567 24.8929C117.545 24.8929 117.526 24.9113 117.526 24.934L117.526 54.75C117.526 55.4995 118.13 56.1071 118.874 56.1071L119.886 56.1071C120.695 56.1071 121.322 55.3937 121.223 54.5846L117.608 24.929ZM121.193 26.0846C121.11 25.4041 120.537 24.8929 119.856 24.8929L119.806 24.8929C118.997 24.8929 118.37 25.6063 118.468 26.4154L121.942 54.9154C122.025 55.5958 122.599 56.1071 123.28 56.1071L123.33 56.1071C124.14 56.1071 124.766 55.3937 124.668 54.5846L121.193 26.0846ZM124.637 26.0846C124.554 25.4041 123.981 24.8929 123.3 24.8929L123.25 24.8929C122.441 24.8929 121.814 25.6063 121.913 26.4154L125.386 54.9154C125.469 55.5958 126.043 56.1071 126.724 56.1071L126.774 56.1071C127.584 56.1071 128.21 55.3937 128.112 54.5846L124.637 26.0846ZM126.695 24.8929C125.885 24.8929 125.259 25.6063 125.357 26.4154L128.899 55.4736C128.943 55.8353 129.248 56.1071 129.61 56.1071C130.006 56.1071 130.326 55.7841 130.326 55.3857L130.326 26.25C130.326 25.5005 129.723 24.8929 128.979 24.8929L126.695 24.8929Z" fill="#0E121B" stroke="#0E121B" stroke-width="0.5"/>
</svg>
