<svg width="23" height="22" viewBox="0 0 23 22" fill="none" xmlns="http://www.w3.org/2000/svg">
<path d="M9.2925 3.22875L10.15 3.5875V18.655C8.0675 17.8938 5.8625 17.5 3.64 17.5H2.1V2.1H3.64C5.5825 2.1 7.50312 2.485 9.2925 3.22875ZM18.76 17.5C16.5375 17.5 14.3325 17.8938 12.25 18.655V3.5875L13.1075 3.22875C14.8969 2.485 16.8175 2.1 18.76 2.1H20.3V17.5H18.76ZM11.2 1.75L10.1019 1.29063C8.05437 0.4375 5.85812 0 3.64 0H2.1C0.940625 0 0 0.940625 0 2.1V17.5C0 18.6594 0.940625 19.6 2.1 19.6H3.64C5.85812 19.6 8.05437 20.0375 10.1019 20.8906L10.6619 21.1225C11.0075 21.2669 11.3925 21.2669 11.7381 21.1225L12.2981 20.8906C14.3456 20.0375 16.5419 19.6 18.76 19.6H20.3C21.4594 19.6 22.4 18.6594 22.4 17.5V2.1C22.4 0.940625 21.4594 0 20.3 0H18.76C16.5419 0 14.3456 0.4375 12.2981 1.29063L11.2 1.75ZM4.55 4.2C3.96812 4.2 3.5 4.66813 3.5 5.25C3.5 5.83188 3.96812 6.3 4.55 6.3H4.73375C5.6 6.3 6.45312 6.50125 7.2275 6.89063C7.74812 7.14875 8.37812 6.93875 8.63625 6.4225C8.89437 5.90625 8.68437 5.27188 8.16812 5.01375C7.10062 4.48 5.92375 4.20438 4.73375 4.20438H4.55V4.2ZM17.6662 4.2C16.4719 4.2 15.2994 4.47563 14.2319 5.00938C13.7112 5.2675 13.5012 5.8975 13.7637 6.41813C14.0262 6.93875 14.6519 7.14875 15.1725 6.88625C15.9469 6.49688 16.8 6.29563 17.6662 6.29563H17.85C18.4319 6.29563 18.9 5.8275 18.9 5.24563C18.9 4.66375 18.4319 4.19563 17.85 4.19563H17.6662V4.2ZM4.55 8.4C3.96812 8.4 3.5 8.86813 3.5 9.45C3.5 10.0319 3.96812 10.5 4.55 10.5H4.73375C5.6 10.5 6.45312 10.7013 7.2275 11.0906C7.74812 11.3488 8.37812 11.1388 8.63625 10.6225C8.89437 10.1063 8.68437 9.47188 8.16812 9.21375C7.10062 8.68 5.92375 8.40438 4.73375 8.40438H4.55V8.4ZM17.6662 8.4C16.4719 8.4 15.2994 8.67563 14.2319 9.20938C13.7112 9.4675 13.5012 10.0975 13.7637 10.6181C14.0262 11.1388 14.6519 11.3488 15.1725 11.0863C15.9469 10.6969 16.8 10.4956 17.6662 10.4956H17.85C18.4319 10.4956 18.9 10.0275 18.9 9.44563C18.9 8.86375 18.4319 8.39563 17.85 8.39563H17.6662V8.4ZM4.55 12.6C3.96812 12.6 3.5 13.0681 3.5 13.65C3.5 14.2319 3.96812 14.7 4.55 14.7H4.73375C5.6 14.7 6.45312 14.9013 7.2275 15.2906C7.74812 15.5488 8.37812 15.3388 8.63625 14.8225C8.89437 14.3063 8.68437 13.6719 8.16812 13.4138C7.10062 12.88 5.92375 12.6044 4.73375 12.6044H4.55V12.6ZM17.6662 12.6C16.4719 12.6 15.2994 12.8756 14.2319 13.4094C13.7112 13.6675 13.5012 14.2975 13.7637 14.8181C14.0262 15.3388 14.6519 15.5488 15.1725 15.2863C15.9469 14.8969 16.8 14.6956 17.6662 14.6956H17.85C18.4319 14.6956 18.9 14.2275 18.9 13.6456C18.9 13.0638 18.4319 12.5956 17.85 12.5956H17.6662V12.6Z" fill="#0069FE"/>
</svg>
