<svg width="25" height="24" viewBox="0 0 25 24" fill="none" xmlns="http://www.w3.org/2000/svg">
<path d="M11.2 20.3C11.6156 20.3 12.0225 20.2738 12.425 20.2169C12.5869 20.93 12.8537 21.6038 13.2081 22.2206C12.5562 22.3388 11.8869 22.4 11.2 22.4C5.01375 22.4 0 17.3863 0 11.2C0 5.01375 5.01375 0 11.2 0C16.6556 0 21.1969 3.89813 22.1944 9.065L22.1069 8.96438C21.4506 8.225 20.5537 7.84438 19.6525 7.83125C18.3137 4.47563 15.0325 2.1 11.1956 2.1C6.16875 2.1 2.09562 6.17313 2.09562 11.2C2.09562 16.2269 6.16875 20.3 11.1956 20.3H11.2ZM16.1 6.65V8.75C16.1 9.33188 15.6319 9.8 15.05 9.8C14.4681 9.8 14 9.33188 14 8.75V6.65C14 6.06813 14.4681 5.6 15.05 5.6C15.6319 5.6 16.1 6.06813 16.1 6.65ZM11.2 5.6C11.7819 5.6 12.25 6.06813 12.25 6.65V8.75C12.25 9.33188 11.7819 9.8 11.2 9.8C10.6181 9.8 10.15 9.33188 10.15 8.75V6.65C10.15 6.06813 10.6181 5.6 11.2 5.6ZM8.4 6.65V8.75C8.4 9.33188 7.93187 9.8 7.35 9.8C6.76812 9.8 6.3 9.33188 6.3 8.75V6.65C6.3 6.06813 6.76812 5.6 7.35 5.6C7.93187 5.6 8.4 6.06813 8.4 6.65ZM14.35 18.6419C14.35 15.6275 17.1544 12.0619 18.6637 10.36C19.1712 9.78688 20.0331 9.78688 20.5406 10.36C22.05 12.0619 24.8544 15.6275 24.8544 18.6419C24.8544 21.49 22.505 23.8 19.6044 23.8C16.7037 23.8 14.35 21.49 14.35 18.6419Z" fill="#00AB1C"/>
</svg>
