<svg width="23" height="23" viewBox="0 0 23 23" fill="none" xmlns="http://www.w3.org/2000/svg">
<path d="M11.2 2.1C16.2269 2.1 20.3 6.17313 20.3 11.2C20.3 16.2269 16.2269 20.3 11.2 20.3C6.17313 20.3 2.1 16.2269 2.1 11.2C2.1 6.17313 6.17313 2.1 11.2 2.1ZM11.2 22.4C17.3863 22.4 22.4 17.3863 22.4 11.2C22.4 5.01375 17.3863 0 11.2 0C5.01375 0 0 5.01375 0 11.2C0 17.3863 5.01375 22.4 11.2 22.4ZM9.45 14.7C8.86813 14.7 8.4 15.1681 8.4 15.75C8.4 16.3319 8.86813 16.8 9.45 16.8H12.95C13.5319 16.8 14 16.3319 14 15.75C14 15.1681 13.5319 14.7 12.95 14.7H12.6V10.85C12.6 10.2681 12.1319 9.8 11.55 9.8H9.45C8.86813 9.8 8.4 10.2681 8.4 10.85C8.4 11.4319 8.86813 11.9 9.45 11.9H10.5V14.7H9.45ZM11.2 8.4C11.9744 8.4 12.6 7.77438 12.6 7C12.6 6.22563 11.9744 5.6 11.2 5.6C10.4256 5.6 9.8 6.22563 9.8 7C9.8 7.77438 10.4256 8.4 11.2 8.4Z" fill="#0069FE"/>
</svg>
