<svg width="20" height="23" viewBox="0 0 20 23" fill="none" xmlns="http://www.w3.org/2000/svg">
<path d="M6.3 5.6C6.3 3.66625 7.86625 2.1 9.8 2.1C11.7337 2.1 13.3 3.66625 13.3 5.6C13.3 7.53375 11.7337 9.1 9.8 9.1C7.86625 9.1 6.3 7.53375 6.3 5.6ZM15.4 5.6C15.4 2.50688 12.8931 0 9.8 0C6.70687 0 4.2 2.50688 4.2 5.6C4.2 8.69313 6.70687 11.2 9.8 11.2C12.8931 11.2 15.4 8.69313 15.4 5.6ZM2.1 21C2.1 17.9069 4.60687 15.4 7.7 15.4H11.9C14.9931 15.4 17.5 17.9069 17.5 21V21.35C17.5 21.9319 17.9681 22.4 18.55 22.4C19.1319 22.4 19.6 21.9319 19.6 21.35V21C19.6 16.7475 16.1525 13.3 11.9 13.3H7.7C3.4475 13.3 0 16.7475 0 21V21.35C0 21.9319 0.468125 22.4 1.05 22.4C1.63187 22.4 2.1 21.9319 2.1 21.35V21Z" fill="#0E121B"/>
</svg>
