<svg width="23" height="23" viewBox="0 0 23 23" fill="none" xmlns="http://www.w3.org/2000/svg">
<path d="M20.3 11.2C20.3 6.17312 16.2269 2.1 11.2 2.1C6.17312 2.1 2.1 6.17312 2.1 11.2C2.1 16.2269 6.17312 20.3 11.2 20.3C16.2269 20.3 20.3 16.2269 20.3 11.2ZM0 11.2C0 5.01375 5.01375 0 11.2 0C17.3862 0 22.4 5.01375 22.4 11.2C22.4 17.3862 17.3862 22.4 11.2 22.4C5.01375 22.4 0 17.3862 0 11.2ZM11.2 7.7C10.4256 7.7 9.8 8.32562 9.8 9.1C9.8 9.68187 9.33187 10.15 8.75 10.15C8.16812 10.15 7.7 9.68187 7.7 9.1C7.7 7.16625 9.26625 5.6 11.2 5.6C13.1337 5.6 14.7 7.16625 14.7 9.1C14.7 11.165 13.125 12.04 12.25 12.3594V12.5256C12.25 13.1075 11.7819 13.5756 11.2 13.5756C10.6181 13.5756 10.15 13.1075 10.15 12.5256V12.1712C10.15 11.2744 10.7975 10.6312 11.4669 10.4125C11.7469 10.3206 12.0444 10.1719 12.2631 9.96187C12.4512 9.77812 12.6 9.52437 12.6 9.10437C12.6 8.33 11.9744 7.70437 11.2 7.70437V7.7ZM9.8 16.1C9.8 15.3256 10.4256 14.7 11.2 14.7C11.9744 14.7 12.6 15.3256 12.6 16.1C12.6 16.8744 11.9744 17.5 11.2 17.5C10.4256 17.5 9.8 16.8744 9.8 16.1Z" fill="#0069FE"/>
</svg>
