<svg width="23" height="21" viewBox="0 0 23 21" fill="none" xmlns="http://www.w3.org/2000/svg">
<path d="M14 2.1C16.5725 2.1 18.9219 3.05375 20.7112 4.63312C21.1444 5.01812 21.8094 4.97438 22.1944 4.54125C22.5794 4.10813 22.5356 3.44312 22.1025 3.05812C19.9413 1.155 17.1062 0 14 0C10.8937 0 8.06313 1.155 5.90188 3.05812C5.46875 3.44312 5.425 4.10375 5.81 4.54125C6.195 4.97875 6.85562 5.01812 7.29312 4.63312C9.0825 3.05375 11.4275 2.1 14 2.1ZM15.05 10.85C15.05 10.2681 14.5819 9.8 14 9.8C13.4181 9.8 12.95 10.2681 12.95 10.85V12.6H2.8C1.25563 12.6 0 13.8556 0 15.4V18.2C0 19.7444 1.25563 21 2.8 21H19.6C21.1444 21 22.4 19.7444 22.4 18.2V15.4C22.4 13.8556 21.1444 12.6 19.6 12.6H15.05V10.85ZM2.8 14.7H19.6C19.985 14.7 20.3 15.015 20.3 15.4V18.2C20.3 18.585 19.985 18.9 19.6 18.9H2.8C2.415 18.9 2.1 18.585 2.1 18.2V15.4C2.1 15.015 2.415 14.7 2.8 14.7ZM10.6969 8.16812C11.6025 7.4375 12.7487 7 14 7C15.2512 7 16.4019 7.4375 17.3031 8.16812C17.7537 8.53125 18.4144 8.46562 18.7819 8.015C19.1494 7.56437 19.0794 6.90375 18.6287 6.53625C17.3644 5.5125 15.75 4.9 14 4.9C12.25 4.9 10.64 5.5125 9.37562 6.53625C8.925 6.89937 8.855 7.56437 9.2225 8.015C9.59 8.46562 10.2506 8.53562 10.7012 8.16812H10.6969ZM4.2 16.8C4.2 17.3819 4.66812 17.85 5.25 17.85C5.83187 17.85 6.3 17.3819 6.3 16.8C6.3 16.2181 5.83187 15.75 5.25 15.75C4.66812 15.75 4.2 16.2181 4.2 16.8ZM9.45 15.75C8.86813 15.75 8.4 16.2181 8.4 16.8C8.4 17.3819 8.86813 17.85 9.45 17.85C10.0319 17.85 10.5 17.3819 10.5 16.8C10.5 16.2181 10.0319 15.75 9.45 15.75Z" fill="#FE171B"/>
</svg>
