<svg width="21" height="23" viewBox="0 0 21 23" fill="none" xmlns="http://www.w3.org/2000/svg">
<path d="M5.95016 0C5.36829 0 4.90016 0.468125 4.90016 1.05C4.90016 1.63187 5.36829 2.1 5.95016 2.1H15.0502C15.632 2.1 16.1002 1.63187 16.1002 1.05C16.1002 0.468125 15.632 0 15.0502 0H5.95016ZM3.85016 4.2C3.26829 4.2 2.80016 4.66812 2.80016 5.25C2.80016 5.83187 3.26829 6.3 3.85016 6.3H17.1502C17.732 6.3 18.2002 5.83187 18.2002 5.25C18.2002 4.66812 17.732 4.2 17.1502 4.2H3.85016ZM20.4883 9.12625C20.0858 8.6625 19.5083 8.4 18.9002 8.4H2.10016C1.49204 8.4 0.91454 8.6625 0.51204 9.12625C0.10954 9.59 -0.0654602 10.1937 0.0220398 10.7975L1.42204 20.5975C1.57079 21.63 2.45454 22.4 3.50016 22.4H17.5002C18.5458 22.4 19.4295 21.63 19.5783 20.5975L20.9783 10.7975C21.0658 10.1937 20.8864 9.58562 20.4839 9.12625H20.4883ZM2.10016 10.5H18.9002L17.5002 20.3H3.50016L2.10016 10.5ZM15.5008 15.4C15.5008 13.4662 13.2608 11.9 10.5002 11.9C7.73954 11.9 5.49954 13.4662 5.49954 15.4C5.49954 17.3337 7.73954 18.9 10.5002 18.9C13.2608 18.9 15.5008 17.3337 15.5008 15.4ZM11.9002 15.4C11.9002 15.9425 11.2745 16.38 10.5002 16.38C9.72579 16.38 9.10016 15.9425 9.10016 15.4C9.10016 14.8575 9.72579 14.42 10.5002 14.42C11.2745 14.42 11.9002 14.8575 11.9002 15.4Z" fill="#FE5E14"/>
</svg>
