<svg width="23" height="24" viewBox="0 0 23 24" fill="none" xmlns="http://www.w3.org/2000/svg">
<path d="M9.27386 4.75562L9.87323 2.1H13.0932L13.6926 4.75562C13.767 5.07937 13.9901 5.35062 14.2964 5.48625C14.7689 5.69625 15.2151 5.95437 15.6264 6.25625C15.8932 6.45312 16.2432 6.51438 16.5626 6.41375L19.1657 5.60438L20.7757 8.39562L18.772 10.2463C18.527 10.4738 18.4045 10.8019 18.4395 11.13C18.4964 11.6331 18.4964 12.1669 18.4395 12.67C18.4045 13.0025 18.527 13.3306 18.772 13.5537L20.7757 15.4044L19.1657 18.1956L16.5626 17.3862C16.2432 17.2856 15.8976 17.3469 15.6264 17.5437C15.2151 17.8456 14.7689 18.1081 14.2964 18.3137C13.9901 18.4494 13.767 18.7206 13.6926 19.0444L13.0932 21.7H9.87323L9.27386 19.0444C9.19948 18.7206 8.97636 18.4494 8.67011 18.3137C8.19761 18.1037 7.75136 17.8456 7.34011 17.5437C7.07323 17.3469 6.72323 17.2856 6.40386 17.3862L3.80073 18.1956L2.19073 15.4044L4.19448 13.5537C4.43948 13.3262 4.56198 12.9981 4.52698 12.67C4.47011 12.1669 4.47011 11.6331 4.52698 11.13C4.56198 10.7975 4.43948 10.4694 4.19448 10.2463L2.19073 8.39562L3.80073 5.60438L6.40386 6.41375C6.72323 6.51438 7.06886 6.45312 7.34011 6.25625C7.75136 5.95437 8.19761 5.69187 8.67011 5.48625C8.97636 5.35062 9.19948 5.07937 9.27386 4.75562ZM9.59323 0C8.77511 0 8.06636 0.56875 7.88698 1.365L7.33573 3.7975C7.06011 3.9375 6.79761 4.09063 6.53948 4.25688L4.15948 3.5175C3.37636 3.2725 2.53198 3.605 2.12511 4.31375L0.23511 7.58625C-0.171765 8.295 -0.0361401 9.19187 0.563235 9.7475L2.39636 11.4406C2.38323 11.7425 2.38323 12.0531 2.39636 12.3594L0.563235 14.0525C-0.0361401 14.6081 -0.17614 15.505 0.23511 16.2137L2.12511 19.4862C2.53198 20.195 3.38073 20.5231 4.15948 20.2825L6.54386 19.5431C6.80198 19.7094 7.06448 19.8625 7.34011 20.0025L7.89136 22.435C8.07073 23.2312 8.77948 23.8 9.59761 23.8H13.3776C14.1957 23.8 14.9045 23.2312 15.0839 22.435L15.6351 20.0025C15.9107 19.8625 16.1732 19.7094 16.4314 19.5431L18.8157 20.2825C19.5989 20.5275 20.4432 20.195 20.8501 19.4862L22.7401 16.2137C23.147 15.505 23.0114 14.6081 22.412 14.0525L20.5789 12.3594C20.592 12.0575 20.592 11.7469 20.5789 11.4406L22.412 9.7475C23.0114 9.19187 23.147 8.295 22.7401 7.58625L20.8457 4.31375C20.4345 3.605 19.5901 3.27687 18.8114 3.5175L16.427 4.25688C16.1689 4.09063 15.9064 3.9375 15.6307 3.7975L15.0839 1.365C14.9001 0.56875 14.1914 0 13.3732 0H9.59323ZM13.5832 11.9C13.5832 13.0594 12.6426 14 11.4832 14C10.3239 14 9.38323 13.0594 9.38323 11.9C9.38323 10.7406 10.3239 9.8 11.4832 9.8C12.6426 9.8 13.5832 10.7406 13.5832 11.9ZM11.4832 7.7C9.16448 7.7 7.28323 9.58125 7.28323 11.9C7.28323 14.2187 9.16448 16.1 11.4832 16.1C13.802 16.1 15.6832 14.2187 15.6832 11.9C15.6832 9.58125 13.802 7.7 11.4832 7.7Z" fill="#0E121B"/>
</svg>
