<svg width="20" height="23" viewBox="0 0 20 23" fill="none" xmlns="http://www.w3.org/2000/svg">
<path d="M2.14813 8.93375C2.57688 5.08813 5.84063 2.1 9.8 2.1C13.7594 2.1 17.0231 5.08813 17.4519 8.93375C16.8438 8.5925 16.1438 8.4 15.4 8.4H14.7C13.5406 8.4 12.6 9.34062 12.6 10.5V14.7C12.6 15.8594 13.5406 16.8 14.7 16.8H15.4C16.1656 16.8 16.8831 16.5944 17.5 16.24V17.1544C17.5 18.8956 16.0869 20.3044 14.35 20.3044H12.6C12.6 19.145 11.6594 18.2044 10.5 18.2044H9.1C7.94063 18.2044 7 19.145 7 20.3044C7 21.4637 7.94063 22.4044 9.1 22.4044C11.025 22.4044 10.675 22.4044 14.3456 22.4088C17.2463 22.4088 19.6 20.0594 19.6 17.1588V9.8C19.6 4.38813 15.2119 0 9.8 0C4.38813 0 0 4.38813 0 9.8V12.6C0 14.9187 1.88125 16.8 4.2 16.8H4.9C6.05938 16.8 7 15.8594 7 14.7V10.5C7 9.34062 6.05938 8.4 4.9 8.4H4.2C3.45625 8.4 2.75625 8.5925 2.14813 8.93375ZM15.4 10.5C16.5594 10.5 17.5 11.4406 17.5 12.6C17.5 13.7594 16.5594 14.7 15.4 14.7H14.7V10.5H15.4ZM2.1 12.6C2.1 11.4406 3.04063 10.5 4.2 10.5H4.9V14.7H4.2C3.04063 14.7 2.1 13.7594 2.1 12.6Z" fill="#0069FE"/>
</svg>
