<svg width="33" height="35" viewBox="0 0 33 35" fill="none" xmlns="http://www.w3.org/2000/svg">
<path opacity="0.3" d="M3.12709e-05 9.625C0.0344063 16.445 2.83941 28.9231 14.685 34.595C15.8332 35.145 17.1669 35.145 18.3082 34.595C30.1607 28.9231 32.9657 16.4519 33 9.625C33.0069 7.82375 31.8794 6.33187 30.3669 5.6925L17.4213 0.199375C17.1394 0.0687501 16.8232 0 16.5069 0C16.1907 0 15.8744 0.0687501 15.5857 0.199375L2.63316 5.6925C1.12066 6.33187 -0.00684373 7.82375 3.12709e-05 9.625ZM10.3675 20.1781C9.73503 19.525 9.74878 18.48 10.4088 17.8475C11.0619 17.215 12.1069 17.2287 12.7394 17.8887C13.3444 18.5144 13.9563 19.1469 14.5613 19.7725C16.5207 17.0775 18.4869 14.3756 20.4463 11.6806C20.9825 10.945 22.0138 10.78 22.7494 11.3162C23.485 11.8525 23.65 12.8837 23.1138 13.6194C20.7694 16.8437 18.4182 20.075 16.0738 23.2994C15.785 23.6912 15.3382 23.9456 14.85 23.9731C14.3619 24.0006 13.8875 23.8219 13.5507 23.4712C12.485 22.3712 11.4263 21.2712 10.3607 20.1712L10.3675 20.1781Z" fill="#0069FE"/>
</svg>
