<svg width="44" height="44" viewBox="0 0 44 44" fill="none" xmlns="http://www.w3.org/2000/svg">
<path opacity="0.3" d="M5.5 10.34V34.54C5.5 37.2096 7.67044 39.38 10.34 39.38H34.54C37.2096 39.38 39.38 37.2096 39.38 34.54V10.34C39.38 7.67044 37.2096 5.5 34.54 5.5H10.34C7.67044 5.5 5.5 7.67044 5.5 10.34ZM10.34 16.39C10.34 15.3842 11.1492 14.575 12.155 14.575H15.18V12.76C15.18 11.4214 16.2614 10.34 17.6 10.34C18.9386 10.34 20.02 11.4214 20.02 12.76V14.575H32.725C33.7308 14.575 34.54 15.3842 34.54 16.39C34.54 17.3958 33.7308 18.205 32.725 18.205H20.02V20.02C20.02 21.3586 18.9386 22.44 17.6 22.44C16.2614 22.44 15.18 21.3586 15.18 20.02V18.205H12.155C11.1492 18.205 10.34 17.3958 10.34 16.39ZM10.34 28.49C10.34 27.4842 11.1492 26.675 12.155 26.675H24.86V24.86C24.86 23.5214 25.9414 22.44 27.28 22.44C28.6186 22.44 29.7 23.5214 29.7 24.86V26.675H32.725C33.7308 26.675 34.54 27.4842 34.54 28.49C34.54 29.4958 33.7308 30.305 32.725 30.305H29.7V32.12C29.7 33.4586 28.6186 34.54 27.28 34.54C25.9414 34.54 24.86 33.4586 24.86 32.12V30.305H12.155C11.1492 30.305 10.34 29.4958 10.34 28.49Z" fill="#0069FE"/>
<path d="M29.6633 32.12C29.6633 33.4586 28.5819 34.54 27.2433 34.54C25.9048 34.54 24.8233 33.4586 24.8233 32.12V24.86C24.8233 23.5214 25.9048 22.44 27.2433 22.44C28.5819 22.44 29.6633 23.5214 29.6633 24.86V32.12ZM19.9833 20.02C19.9833 21.3586 18.9019 22.44 17.5633 22.44C16.2248 22.44 15.1433 21.3586 15.1433 20.02V12.76C15.1433 11.4214 16.2248 10.34 17.5633 10.34C18.9019 10.34 19.9833 11.4214 19.9833 12.76V20.02Z" fill="#0069FE"/>
</svg>
