<svg width="44" height="44" viewBox="0 0 44 44" fill="none" xmlns="http://www.w3.org/2000/svg">
<path opacity="0.3" d="M4.39999 8.8V35.2C4.39999 37.6269 6.37312 39.6 8.79999 39.6H20.9069C20.9275 38.8575 20.9825 38.1219 21.0856 37.4C21.0856 37.3863 21.0925 37.3656 21.0925 37.3519C21.8212 32.1888 24.6125 27.6856 28.6 24.7088V8.8C28.6 6.37313 26.6269 4.4 24.2 4.4H8.79999C6.37312 4.4 4.39999 6.37313 4.39999 8.8ZM12.1 34.65C12.1 33.7356 12.8356 33 13.75 33H18.7344C18.3837 34.0656 18.1087 35.1656 17.9162 36.3H13.75C12.8356 36.3 12.1 35.5644 12.1 34.65Z" fill="#0069FE"/>
<path d="M41.8 25.85C41.8 24.9356 41.0644 24.2 40.15 24.2C31.3431 24.2 24.2 31.3431 24.2 40.15C24.2 41.0644 24.9356 41.8 25.85 41.8C26.7644 41.8 27.5 41.0644 27.5 40.15C27.5 33.165 33.165 27.5 40.15 27.5C41.0644 27.5 41.8 26.7644 41.8 25.85ZM37.4 39.6C37.4 40.8169 38.3831 41.8 39.6 41.8C40.8169 41.8 41.8 40.8169 41.8 39.6C41.8 38.3831 40.8169 37.4 39.6 37.4C38.3831 37.4 37.4 38.3831 37.4 39.6ZM40.15 30.8C34.9869 30.8 30.8 34.9869 30.8 40.15C30.8 41.0644 31.5356 41.8 32.45 41.8C33.3644 41.8 34.1 41.0644 34.1 40.15C34.1 36.8087 36.8087 34.1 40.15 34.1C41.0644 34.1 41.8 33.3644 41.8 32.45C41.8 31.5356 41.0644 30.8 40.15 30.8Z" fill="#0069FE"/>
</svg>
