<svg width="24" height="24" viewBox="0 0 24 24" fill="none" xmlns="http://www.w3.org/2000/svg">
<path d="M12.0022 6.87225C9.16899 6.86333 6.8667 9.1572 6.85778 11.9911C6.84886 14.8249 9.14222 17.1277 11.9755 17.1367C14.8087 17.1456 17.111 14.8517 17.1199 12.0178C17.1288 9.18398 14.8355 6.88118 12.0022 6.87225ZM11.9755 8.67522C13.8137 8.66629 15.3084 10.1524 15.3173 11.9911C15.3263 13.8297 13.8405 15.3248 12.0022 15.3337C10.164 15.3426 8.66927 13.8565 8.66035 12.0178C8.65142 10.1792 10.1372 8.68415 11.9755 8.67522ZM16.1428 6.6625C16.1428 6.00201 16.6782 5.46647 17.3385 5.46647C17.9989 5.46647 18.5343 6.00201 18.5343 6.6625C18.5343 7.32299 17.9989 7.85853 17.3385 7.85853C16.6782 7.85853 16.1428 7.32299 16.1428 6.6625ZM21.9297 7.87638C21.8539 6.27424 21.488 4.85507 20.3146 3.68582C19.1456 2.51657 17.7267 2.15062 16.1249 2.07029C14.4741 1.97657 9.52593 1.97657 7.87507 2.07029C6.27775 2.14616 4.8589 2.51211 3.68544 3.68136C2.51199 4.85061 2.15059 6.26978 2.07027 7.87192C1.97658 9.52315 1.97658 14.4724 2.07027 16.1236C2.14612 17.7258 2.51199 19.1449 3.68544 20.3142C4.8589 21.4834 6.27328 21.8494 7.87507 21.9297C9.52593 22.0234 14.4741 22.0234 16.1249 21.9297C17.7267 21.8538 19.1456 21.4879 20.3146 20.3142C21.4835 19.1449 21.8494 17.7258 21.9297 16.1236C22.0234 14.4724 22.0234 9.52761 21.9297 7.87638ZM19.797 17.8953C19.449 18.7701 18.7752 19.4439 17.8963 19.7965C16.58 20.3186 13.4568 20.1981 12.0022 20.1981C10.5477 20.1981 7.41997 20.3142 6.1082 19.7965C5.23369 19.4484 4.55996 18.7745 4.20747 17.8953C3.68544 16.5788 3.80591 13.4549 3.80591 12C3.80591 10.5451 3.68991 7.41671 4.20747 6.10465C4.55549 5.22995 5.22922 4.55606 6.1082 4.2035C7.42443 3.68136 10.5477 3.80185 12.0022 3.80185C13.4568 3.80185 16.5845 3.68582 17.8963 4.2035C18.7708 4.5516 19.4445 5.22548 19.797 6.10465C20.319 7.42118 20.1985 10.5451 20.1985 12C20.1985 13.4549 20.319 16.5833 19.797 17.8953Z" fill="#0E121B"/>
</svg>
