<svg width="28" height="28" viewBox="0 0 28 28" fill="none" xmlns="http://www.w3.org/2000/svg">
<path d="M5.48624 5.60001C4.00311 5.60001 2.79999 6.80313 2.79999 8.28626C2.79999 8.32563 2.79999 8.36063 2.80436 8.40001H2.79999V19.6C2.79999 21.1444 4.05561 22.4 5.59999 22.4H22.4C23.9444 22.4 25.2 21.1444 25.2 19.6V8.40001H25.1956C25.1956 8.36063 25.2 8.32563 25.2 8.28626C25.2 6.80313 23.9969 5.60001 22.5137 5.60001H5.48624ZM23.1 11.2131V19.6C23.1 19.985 22.785 20.3 22.4 20.3H5.59999C5.21499 20.3 4.89999 19.985 4.89999 19.6V11.2131L11.6725 16.3494C13.0462 17.395 14.9494 17.395 16.3275 16.3494L23.1 11.2131ZM4.89999 8.28626C4.89999 7.96251 5.16249 7.70001 5.48624 7.70001H22.5137C22.8375 7.70001 23.1 7.96251 23.1 8.28626C23.1 8.47001 23.0125 8.64501 22.8681 8.75438L15.0587 14.6781C14.4331 15.1506 13.5669 15.1506 12.9412 14.6781L5.13186 8.75438C4.98749 8.64501 4.89999 8.47001 4.89999 8.28626Z" fill="#0069FE"/>
</svg>
