<svg width="28" height="28" viewBox="0 0 28 28" fill="none" xmlns="http://www.w3.org/2000/svg">
<path d="M7.73497 3.27688C8.92935 2.87875 10.2287 3.4475 10.7493 4.58938L12.4862 8.40875C12.95 9.4325 12.6612 10.64 11.7862 11.3444L10.7275 12.1888C11.8431 14.3763 13.5931 16.1875 15.7325 17.3863L16.66 16.2225C17.3643 15.3431 18.5718 15.0544 19.5956 15.5225L23.415 17.2594C24.5612 17.78 25.1256 19.0794 24.7275 20.2738C23.8218 22.9994 21.0656 25.3575 17.6881 24.7625C10.0887 23.4237 4.5806 17.9156 3.24185 10.3163C2.64685 6.93875 5.00935 4.18688 7.7306 3.27688H7.73497ZM8.83747 5.46C8.7631 5.29375 8.57497 5.21063 8.39997 5.2675C6.42247 5.92813 4.93935 7.83125 5.3156 9.94875C6.50122 16.6775 11.3268 21.5075 18.0556 22.6931C20.1731 23.065 22.0762 21.5863 22.7368 19.6088C22.7937 19.4338 22.7106 19.2456 22.5443 19.1713L18.725 17.43C18.5762 17.3644 18.4012 17.4038 18.3006 17.5306L16.835 19.3638C16.5287 19.7444 16.0037 19.8669 15.5662 19.6569C12.3943 18.1519 9.85685 15.5313 8.46122 12.2981C8.2731 11.865 8.39997 11.3575 8.76747 11.0644L10.4693 9.70375C10.5962 9.60313 10.64 9.42813 10.57 9.27938L8.8331 5.45563L8.83747 5.46Z" fill="#0069FE"/>
</svg>
