<svg width="24" height="24" viewBox="0 0 24 24" fill="none" xmlns="http://www.w3.org/2000/svg">
<path d="M20.4187 10.2712C18.7687 10.275 17.1562 9.76124 15.8137 8.80124V15.5025C15.8137 16.7437 15.435 17.955 14.7262 18.975C14.0175 19.995 13.0162 20.775 11.8537 21.21C10.6912 21.645 9.42374 21.7162 8.21999 21.4087C7.01624 21.1012 5.93624 20.4375 5.11874 19.5037C4.30124 18.57 3.79499 17.4037 3.65624 16.17C3.51749 14.9362 3.76499 13.6912 4.35374 12.6C4.94249 11.5087 5.85374 10.6237 6.96374 10.0612C8.07374 9.49874 9.32249 9.29249 10.5525 9.46124V12.8325C9.98999 12.6562 9.38624 12.66 8.82749 12.8475C8.26874 13.035 7.78124 13.395 7.43999 13.8712C7.09874 14.3475 6.91499 14.925 6.91874 15.5175C6.92249 16.11 7.11374 16.68 7.46249 17.1562C7.81124 17.6325 8.30249 17.985 8.86499 18.165C9.42749 18.345 10.0312 18.345 10.59 18.1612C11.1487 17.9775 11.64 17.6212 11.985 17.145C12.33 16.6687 12.5175 16.0912 12.5175 15.5025V2.39999H15.8175C15.8137 2.67749 15.84 2.95874 15.8887 3.23249C16.005 3.84374 16.2412 4.42874 16.59 4.94624C16.9387 5.46374 17.3887 5.90624 17.91 6.24374C18.6562 6.73499 19.53 6.99749 20.4225 6.99749V10.275L20.4187 10.2712Z" fill="#0E121B"/>
</svg>
