<svg width="32" height="32" viewBox="0 0 32 32" fill="none" xmlns="http://www.w3.org/2000/svg">
<g clip-path="url(#clip0_1074_16116)">
<path d="M32 16C32 14.0429 31.648 12.1681 31.0048 10.4348L16 9.73912L0.995188 10.4347C0.352063 12.1681 0 14.0429 0 16C0 17.9571 0.352063 19.8319 0.995188 21.5652L16 22.2609L31.0048 21.5652C31.648 19.8319 32 17.9571 32 16Z" fill="#D80027"/>
<path d="M16 32C22.8794 32 28.7441 27.658 31.0048 21.5652H0.995178C3.25587 27.658 9.12055 32 16 32Z" fill="#6DA544"/>
<path d="M0.995178 10.4348H31.0049C28.7441 4.342 22.8794 0 16 0C9.12055 0 3.25587 4.342 0.995178 10.4348V10.4348Z" fill="#338AF3"/>
<path d="M16.3478 20.5218C13.8506 20.5218 11.826 18.4973 11.826 16C11.826 13.5028 13.8506 11.4783 16.3478 11.4783C17.1264 11.4783 17.8591 11.6751 18.4987 12.0218C17.4952 11.0404 16.123 10.4348 14.6087 10.4348C11.535 10.4348 9.04349 12.9264 9.04349 15.9999C9.04349 19.0735 11.5351 21.5651 14.6087 21.5651C16.123 21.5651 17.4953 20.9594 18.4987 19.9781C17.8591 20.3249 17.1264 20.5218 16.3478 20.5218Z" fill="#F0F0F0"/>
<path d="M19.8261 12.8696L20.425 14.554L22.0396 13.7864L21.2721 15.401L22.9565 16L21.2721 16.599L22.0396 18.2136L20.425 17.446L19.8261 19.1304L19.2272 17.446L17.6125 18.2136L18.3801 16.599L16.6956 16L18.3801 15.401L17.6125 13.7864L19.2272 14.554L19.8261 12.8696Z" fill="#F0F0F0"/>
</g>
<defs>
<clipPath id="clip0_1074_16116">
<rect width="32" height="32" fill="white"/>
</clipPath>
</defs>
</svg>
