<svg width="24" height="24" viewBox="0 0 24 24" fill="none" xmlns="http://www.w3.org/2000/svg">
<path d="M3 5.4375C3 4.91797 3.42991 4.5 3.96429 4.5H20.0357C20.5701 4.5 21 4.91797 21 5.4375C21 5.95703 20.5701 6.375 20.0357 6.375H3.96429C3.42991 6.375 3 5.95703 3 5.4375ZM3 12C3 11.4805 3.42991 11.0625 3.96429 11.0625H20.0357C20.5701 11.0625 21 11.4805 21 12C21 12.5195 20.5701 12.9375 20.0357 12.9375H3.96429C3.42991 12.9375 3 12.5195 3 12ZM21 18.5625C21 19.082 20.5701 19.5 20.0357 19.5H3.96429C3.42991 19.5 3 19.082 3 18.5625C3 18.043 3.42991 17.625 3.96429 17.625H20.0357C20.5701 17.625 21 18.043 21 18.5625Z" fill="#0069FE"/>
</svg>
