<svg width="24" height="24" viewBox="0 0 24 24" fill="none" xmlns="http://www.w3.org/2000/svg">
<path d="M19.8004 12C19.8004 16.3087 16.3091 19.8 12.0004 19.8C7.69164 19.8 4.20039 16.3087 4.20039 12C4.20039 7.69124 7.69164 4.19999 12.0004 4.19999C16.3091 4.19999 19.8004 7.69124 19.8004 12ZM2.40039 12C2.40039 17.3025 6.69789 21.6 12.0004 21.6C17.3029 21.6 21.6004 17.3025 21.6004 12C21.6004 6.69749 17.3029 2.39999 12.0004 2.39999C6.69789 2.39999 2.40039 6.69749 2.40039 12ZM11.1004 6.89999V12C11.1004 12.3 11.2504 12.5812 11.5016 12.75L15.1016 15.15C15.5141 15.4275 16.0729 15.315 16.3504 14.8987C16.6279 14.4825 16.5154 13.9275 16.0991 13.65L12.9004 11.52V6.89999C12.9004 6.40124 12.4991 5.99999 12.0004 5.99999C11.5016 5.99999 11.1004 6.40124 11.1004 6.89999Z" fill="#0069FE"/>
</svg>
