<svg width="24" height="24" viewBox="0 0 24 24" fill="none" xmlns="http://www.w3.org/2000/svg">
<path d="M4.1999 4.49961C4.1999 4.00086 3.79865 3.59961 3.2999 3.59961C2.80115 3.59961 2.3999 4.00086 2.3999 4.49961V17.3996C2.3999 19.0571 3.7424 20.3996 5.3999 20.3996H20.6999C21.1987 20.3996 21.5999 19.9984 21.5999 19.4996C21.5999 19.0009 21.1987 18.5996 20.6999 18.5996H5.3999C4.73615 18.5996 4.1999 18.0634 4.1999 17.3996V4.49961ZM20.0999 4.79961C19.6012 4.79961 19.1999 5.20086 19.1999 5.69961V14.6996C19.1999 15.1984 19.6012 15.5996 20.0999 15.5996C20.5987 15.5996 20.9999 15.1984 20.9999 14.6996V5.69961C20.9999 5.20086 20.5987 4.79961 20.0999 4.79961ZM11.6999 7.19961C11.2012 7.19961 10.7999 7.60086 10.7999 8.09961V14.6996C10.7999 15.1984 11.2012 15.5996 11.6999 15.5996C12.1987 15.5996 12.5999 15.1984 12.5999 14.6996V8.09961C12.5999 7.60086 12.1987 7.19961 11.6999 7.19961ZM7.4999 10.7996C7.00115 10.7996 6.5999 11.2009 6.5999 11.6996V14.6996C6.5999 15.1984 7.00115 15.5996 7.4999 15.5996C7.99865 15.5996 8.3999 15.1984 8.3999 14.6996V11.6996C8.3999 11.2009 7.99865 10.7996 7.4999 10.7996ZM16.7999 10.4996C16.7999 10.0009 16.3987 9.59961 15.8999 9.59961C15.4012 9.59961 14.9999 10.0009 14.9999 10.4996V14.6996C14.9999 15.1984 15.4012 15.5996 15.8999 15.5996C16.3987 15.5996 16.7999 15.1984 16.7999 14.6996V10.4996Z" fill="#0069FE"/>
</svg>
