<svg width="24" height="24" viewBox="0 0 24 24" fill="none" xmlns="http://www.w3.org/2000/svg">
<path d="M19.8 12C19.8 16.3088 16.3087 19.8 12 19.8C7.69124 19.8 4.19999 16.3088 4.19999 12C4.19999 7.69127 7.69124 4.20002 12 4.20002C16.3087 4.20002 19.8 7.69127 19.8 12ZM2.39999 12C2.39999 17.3025 6.69749 21.6 12 21.6C17.3025 21.6 21.6 17.3025 21.6 12C21.6 6.69753 17.3025 2.40002 12 2.40002C6.69749 2.40002 2.39999 6.69753 2.39999 12ZM11.1 6.90002V12C11.1 12.3 11.25 12.5813 11.5012 12.75L15.1012 15.15C15.5137 15.4275 16.0725 15.315 16.35 14.8988C16.6275 14.4825 16.515 13.9275 16.0987 13.65L12.9 11.52V6.90002C12.9 6.40127 12.4987 6.00002 12 6.00002C11.5012 6.00002 11.1 6.40127 11.1 6.90002Z" fill="#B0B5BF"/>
</svg>
