<svg width="24" height="24" viewBox="0 0 24 24" fill="none" xmlns="http://www.w3.org/2000/svg">
<g clip-path="url(#clip0_1326_2426)">
<path d="M12.9 2.10001C12.9 1.60126 12.4988 1.20001 12 1.20001C11.5013 1.20001 11.1 1.60126 11.1 2.10001V4.80001H7.2C5.2125 4.80001 3.6 6.41251 3.6 8.40001V16.8C3.6 18.7875 5.2125 20.4 7.2 20.4H16.8C18.7875 20.4 20.4 18.7875 20.4 16.8V8.40001C20.4 6.41251 18.7875 4.80001 16.8 4.80001H12.9V2.10001ZM12 6.60001H16.8C17.7938 6.60001 18.6 7.40626 18.6 8.40001V16.8C18.6 17.7938 17.7938 18.6 16.8 18.6H7.2C6.20625 18.6 5.4 17.7938 5.4 16.8V8.40001C5.4 7.40626 6.20625 6.60001 7.2 6.60001H12ZM6.6 15.9C6.6 16.3988 7.00125 16.8 7.5 16.8H8.7C9.19875 16.8 9.6 16.3988 9.6 15.9C9.6 15.4013 9.19875 15 8.7 15H7.5C7.00125 15 6.6 15.4013 6.6 15.9ZM10.8 15.9C10.8 16.3988 11.2013 16.8 11.7 16.8H12.3C12.7988 16.8 13.2 16.3988 13.2 15.9C13.2 15.4013 12.7988 15 12.3 15H11.7C11.2013 15 10.8 15.4013 10.8 15.9ZM14.4 15.9C14.4 16.3988 14.8013 16.8 15.3 16.8H16.5C16.9988 16.8 17.4 16.3988 17.4 15.9C17.4 15.4013 16.9988 15 16.5 15H15.3C14.8013 15 14.4 15.4013 14.4 15.9ZM9 13.2C9.99375 13.2 10.8 12.3938 10.8 11.4C10.8 10.4063 9.99375 9.60001 9 9.60001C8.00625 9.60001 7.2 10.4063 7.2 11.4C7.2 12.3938 8.00625 13.2 9 13.2ZM16.8 11.4C16.8 10.4063 15.9938 9.60001 15 9.60001C14.0063 9.60001 13.2 10.4063 13.2 11.4C13.2 12.3938 14.0063 13.2 15 13.2C15.9938 13.2 16.8 12.3938 16.8 11.4ZM1.8 10.5C1.8 10.0013 1.39875 9.60001 0.9 9.60001C0.40125 9.60001 0 10.0013 0 10.5V14.7C0 15.1988 0.40125 15.6 0.9 15.6C1.39875 15.6 1.8 15.1988 1.8 14.7V10.5ZM23.1 9.60001C22.6013 9.60001 22.2 10.0013 22.2 10.5V14.7C22.2 15.1988 22.6013 15.6 23.1 15.6C23.5988 15.6 24 15.1988 24 14.7V10.5C24 10.0013 23.5988 9.60001 23.1 9.60001Z" fill="#B0B5BF"/>
</g>
<defs>
<clipPath id="clip0_1326_2426">
<rect width="24" height="24" fill="white"/>
</clipPath>
</defs>
</svg>
