<svg width="20" height="17" viewBox="0 0 20 17" fill="none" xmlns="http://www.w3.org/2000/svg">
<path d="M1.8 0.9C1.8 0.40125 1.39875 0 0.9 0C0.40125 0 0 0.40125 0 0.9V13.8C0 15.4575 1.3425 16.8 3 16.8H18.3C18.7987 16.8 19.2 16.3987 19.2 15.9C19.2 15.4012 18.7987 15 18.3 15H3C2.33625 15 1.8 14.4637 1.8 13.8V0.9ZM17.7 1.2C17.2013 1.2 16.8 1.60125 16.8 2.1V11.1C16.8 11.5987 17.2013 12 17.7 12C18.1988 12 18.6 11.5987 18.6 11.1V2.1C18.6 1.60125 18.1988 1.2 17.7 1.2ZM9.3 3.6C8.80125 3.6 8.4 4.00125 8.4 4.5V11.1C8.4 11.5987 8.80125 12 9.3 12C9.79875 12 10.2 11.5987 10.2 11.1V4.5C10.2 4.00125 9.79875 3.6 9.3 3.6ZM5.1 7.2C4.60125 7.2 4.2 7.60125 4.2 8.1V11.1C4.2 11.5987 4.60125 12 5.1 12C5.59875 12 6 11.5987 6 11.1V8.1C6 7.60125 5.59875 7.2 5.1 7.2ZM14.4 6.9C14.4 6.40125 13.9988 6 13.5 6C13.0013 6 12.6 6.40125 12.6 6.9V11.1C12.6 11.5987 13.0013 12 13.5 12C13.9988 12 14.4 11.5987 14.4 11.1V6.9Z" fill="#B0B5BF"/>
</svg>
