<svg width="32" height="32" viewBox="0 0 32 32" fill="none" xmlns="http://www.w3.org/2000/svg">
<path opacity="0.3" d="M4.7998 11.2H27.1998V24.8C27.1998 26.125 26.1248 27.2 24.7998 27.2H7.1998C5.8748 27.2 4.7998 26.125 4.7998 24.8V11.2ZM7.9998 15.2V16.8C7.9998 17.24 8.3598 17.6 8.7998 17.6H10.3998C10.8398 17.6 11.1998 17.24 11.1998 16.8V15.2C11.1998 14.76 10.8398 14.4 10.3998 14.4H8.7998C8.3598 14.4 7.9998 14.76 7.9998 15.2ZM7.9998 21.6V23.2C7.9998 23.64 8.3598 24 8.7998 24H10.3998C10.8398 24 11.1998 23.64 11.1998 23.2V21.6C11.1998 21.16 10.8398 20.8 10.3998 20.8H8.7998C8.3598 20.8 7.9998 21.16 7.9998 21.6ZM14.3998 15.2V16.8C14.3998 17.24 14.7598 17.6 15.1998 17.6H16.7998C17.2398 17.6 17.5998 17.24 17.5998 16.8V15.2C17.5998 14.76 17.2398 14.4 16.7998 14.4H15.1998C14.7598 14.4 14.3998 14.76 14.3998 15.2ZM14.3998 21.6V23.2C14.3998 23.64 14.7598 24 15.1998 24H16.7998C17.2398 24 17.5998 23.64 17.5998 23.2V21.6C17.5998 21.16 17.2398 20.8 16.7998 20.8H15.1998C14.7598 20.8 14.3998 21.16 14.3998 21.6ZM20.7998 15.2V16.8C20.7998 17.24 21.1598 17.6 21.5998 17.6H23.1998C23.6398 17.6 23.9998 17.24 23.9998 16.8V15.2C23.9998 14.76 23.6398 14.4 23.1998 14.4H21.5998C21.1598 14.4 20.7998 14.76 20.7998 15.2ZM20.7998 21.6V23.2C20.7998 23.64 21.1598 24 21.5998 24H23.1998C23.6398 24 23.9998 23.64 23.9998 23.2V21.6C23.9998 21.16 23.6398 20.8 23.1998 20.8H21.5998C21.1598 20.8 20.7998 21.16 20.7998 21.6Z" fill="#0069FE"/>
<path d="M12.7998 4.80001C12.7998 3.91501 12.0848 3.20001 11.1998 3.20001C10.3148 3.20001 9.5998 3.91501 9.5998 4.80001V6.40001H7.1998C5.8748 6.40001 4.7998 7.47501 4.7998 8.80001V11.2H27.1998V8.80001C27.1998 7.47501 26.1248 6.40001 24.7998 6.40001H22.3998V4.80001C22.3998 3.91501 21.6848 3.20001 20.7998 3.20001C19.9148 3.20001 19.1998 3.91501 19.1998 4.80001V6.40001H12.7998V4.80001Z" fill="#0069FE"/>
</svg>
