<svg width="16" height="16" viewBox="0 0 16 16" fill="none" xmlns="http://www.w3.org/2000/svg">
<path d="M13.2001 8.00001C13.2001 10.8725 10.8726 13.2 8.0001 13.2C5.1276 13.2 2.8001 10.8725 2.8001 8.00001C2.8001 5.12751 5.1276 2.80001 8.0001 2.80001C10.8726 2.80001 13.2001 5.12751 13.2001 8.00001ZM1.6001 8.00001C1.6001 11.535 4.4651 14.4 8.0001 14.4C11.5351 14.4 14.4001 11.535 14.4001 8.00001C14.4001 4.46501 11.5351 1.60001 8.0001 1.60001C4.4651 1.60001 1.6001 4.46501 1.6001 8.00001ZM7.4001 4.60001V8.00001C7.4001 8.20001 7.5001 8.38751 7.6676 8.50001L10.0676 10.1C10.3426 10.285 10.7151 10.21 10.9001 9.93251C11.0851 9.65501 11.0101 9.28501 10.7326 9.10001L8.6001 7.68001V4.60001C8.6001 4.26751 8.3326 4.00001 8.0001 4.00001C7.6676 4.00001 7.4001 4.26751 7.4001 4.60001Z" fill="#0069FE"/>
</svg>
