<svg width="32" height="32" viewBox="0 0 32 32" fill="none" xmlns="http://www.w3.org/2000/svg">
<path opacity="0.3" d="M6.3999 19.2C6.3999 14.64 12.9099 5.49502 14.7299 3.02502C15.0249 2.62502 15.4899 2.40002 15.9899 2.40002H16.0099C16.5099 2.40002 16.9749 2.62502 17.2699 3.02502C19.0899 5.49502 25.5999 14.64 25.5999 19.2C25.5999 24.5 21.2999 28.8 15.9999 28.8C10.6999 28.8 6.3999 24.5 6.3999 19.2ZM11.9999 16.4C11.9999 17.065 12.5349 17.6 13.1999 17.6C13.8649 17.6 14.3999 17.065 14.3999 16.4C14.3999 15.735 13.8649 15.2 13.1999 15.2C12.5349 15.2 11.9999 15.735 11.9999 16.4ZM12.3499 21.15C11.8799 21.62 11.8799 22.38 12.3499 22.845C12.8199 23.31 13.5799 23.315 14.0449 22.845L19.6499 17.25C20.1199 16.78 20.1199 16.02 19.6499 15.555C19.1799 15.09 18.4199 15.085 17.9549 15.555L12.3499 21.15ZM17.5999 22C17.5999 22.665 18.1349 23.2 18.7999 23.2C19.4649 23.2 19.9999 22.665 19.9999 22C19.9999 21.335 19.4649 20.8 18.7999 20.8C18.1349 20.8 17.5999 21.335 17.5999 22Z" fill="#0069FE"/>
<path d="M14.4001 16.4C14.4001 15.735 13.8651 15.2 13.2001 15.2C12.5351 15.2 12.0001 15.735 12.0001 16.4C12.0001 17.065 12.5351 17.6 13.2001 17.6C13.8651 17.6 14.4001 17.065 14.4001 16.4ZM19.6501 17.25C20.1201 16.78 20.1201 16.02 19.6501 15.555C19.1801 15.09 18.4201 15.085 17.9551 15.555L12.3501 21.15C11.8801 21.62 11.8801 22.38 12.3501 22.845C12.8201 23.31 13.5801 23.315 14.0451 22.845L19.6501 17.25ZM18.8001 20.8C18.1351 20.8 17.6001 21.335 17.6001 22C17.6001 22.665 18.1351 23.2 18.8001 23.2C19.4651 23.2 20.0001 22.665 20.0001 22C20.0001 21.335 19.4651 20.8 18.8001 20.8Z" fill="#0069FE"/>
</svg>
