<svg width="24" height="24" viewBox="0 0 24 24" fill="none" xmlns="http://www.w3.org/2000/svg">
<path d="M12.9001 4.49998C12.9001 4.00123 12.4988 3.59998 12.0001 3.59998C11.5013 3.59998 11.1001 4.00123 11.1001 4.49998V11.1H4.5001C4.00135 11.1 3.6001 11.5012 3.6001 12C3.6001 12.4987 4.00135 12.9 4.5001 12.9H11.1001V19.5C11.1001 19.9987 11.5013 20.4 12.0001 20.4C12.4988 20.4 12.9001 19.9987 12.9001 19.5V12.9H19.5001C19.9988 12.9 20.4001 12.4987 20.4001 12C20.4001 11.5012 19.9988 11.1 19.5001 11.1H12.9001V4.49998Z" fill="white"/>
</svg>
