<svg width="32" height="32" viewBox="0 0 32 32" fill="none" xmlns="http://www.w3.org/2000/svg">
<path opacity="0.3" d="M5.27002 22.87C4.64502 23.495 4.64502 24.51 5.27002 25.135L8.47002 28.335C8.93002 28.795 9.61502 28.93 10.215 28.68C10.815 28.43 11.2 27.845 11.2 27.2V25.6H19.2C24.5 25.6 28.8 21.3 28.8 16C28.8 15.115 28.085 14.4 27.2 14.4C26.315 14.4 25.6 15.115 25.6 16C25.6 19.535 22.735 22.4 19.2 22.4H11.2V20.8C11.2 20.155 10.81 19.57 10.21 19.32C9.61002 19.07 8.92502 19.21 8.46502 19.665L5.26502 22.865L5.27002 22.87Z" fill="#0069FE"/>
<path d="M26.7302 6.86999C27.3552 7.49499 27.3552 8.50999 26.7302 9.13499L23.5302 12.335C23.0702 12.795 22.3852 12.93 21.7852 12.68C21.1852 12.43 20.8002 11.845 20.8002 11.2V9.59999H12.8002C9.2652 9.59999 6.4002 12.465 6.4002 16C6.4002 16.885 5.6852 17.6 4.8002 17.6C3.9152 17.6 3.2002 16.885 3.2002 16C3.2002 10.7 7.5002 6.39999 12.8002 6.39999H20.8002V4.79999C20.8002 4.15499 21.1902 3.56999 21.7902 3.31999C22.3902 3.06999 23.0752 3.20999 23.5352 3.66499L26.7352 6.86499L26.7302 6.86999Z" fill="#0069FE"/>
</svg>
