<svg width="22" height="22" viewBox="0 0 22 22" fill="none" xmlns="http://www.w3.org/2000/svg">
<path d="M10.9999 19.8004C7.35615 19.8004 4.3999 16.8441 4.3999 13.2004C4.3999 10.0654 8.87553 3.7782 10.1268 2.08008C10.3296 1.80508 10.6493 1.65039 10.993 1.65039H11.0068C11.3505 1.65039 11.6702 1.80508 11.873 2.08008C13.1243 3.7782 17.5999 10.0654 17.5999 13.2004C17.5999 16.8441 14.6437 19.8004 10.9999 19.8004ZM8.2499 12.9254C8.2499 12.4682 7.88209 12.1004 7.4249 12.1004C6.96772 12.1004 6.5999 12.4682 6.5999 12.9254C6.5999 15.507 8.69334 17.6004 11.2749 17.6004C11.7321 17.6004 12.0999 17.2326 12.0999 16.7754C12.0999 16.3182 11.7321 15.9504 11.2749 15.9504C9.60428 15.9504 8.2499 14.596 8.2499 12.9254Z" fill="#0069FE"/>
</svg>
