<svg width="16" height="17" viewBox="0 0 16 17" fill="none" xmlns="http://www.w3.org/2000/svg">
<path d="M4.125 0C4.58219 0 4.95 0.367813 4.95 0.825V2.2H10.45V0.825C10.45 0.367813 10.8178 0 11.275 0C11.7322 0 12.1 0.367813 12.1 0.825V2.2H13.2C14.4134 2.2 15.4 3.18656 15.4 4.4V14.3C15.4 15.5134 14.4134 16.5 13.2 16.5H2.2C0.986563 16.5 0 15.5134 0 14.3V4.4C0 3.18656 0.986563 2.2 2.2 2.2H3.3V0.825C3.3 0.367813 3.66781 0 4.125 0ZM4.125 3.85H2.2C1.8975 3.85 1.65 4.0975 1.65 4.4V6.05H13.75V4.4C13.75 4.0975 13.5025 3.85 13.2 3.85H4.125ZM1.65 7.7V14.3C1.65 14.6025 1.8975 14.85 2.2 14.85H13.2C13.5025 14.85 13.75 14.6025 13.75 14.3V7.7H1.65Z" fill="#B0B5BF"/>
</svg>
