<svg width="22" height="22" viewBox="0 0 22 22" fill="none" xmlns="http://www.w3.org/2000/svg">
<path d="M4.3999 11.0002L5.37959 3.1627C5.44834 2.6127 5.91584 2.2002 6.47271 2.2002H12.2683C12.784 2.2002 13.1999 2.61613 13.1999 3.13176C13.1999 3.24176 13.1793 3.3552 13.1415 3.45832L11.5499 7.70019H16.3383C17.0327 7.70019 17.5999 8.26395 17.5999 8.96176C17.5999 9.21613 17.5243 9.46363 17.3799 9.67332L10.773 19.3327C10.5702 19.6283 10.2368 19.8036 9.88271 19.8036H9.78303C9.24334 19.8036 8.80334 19.3636 8.80334 18.8239C8.80334 18.7449 8.81365 18.6658 8.83428 18.5868L10.4499 12.1002H5.4999C4.89146 12.1002 4.3999 11.6086 4.3999 11.0002Z" fill="#B0B5BF"/>
</svg>
