<svg width="18" height="18" viewBox="0 0 18 18" fill="none" xmlns="http://www.w3.org/2000/svg">
<path d="M10.4225 14.1969C9.68344 15.6991 8.99938 15.95 8.8 15.95C8.60063 15.95 7.91656 15.6991 7.1775 14.1969C6.59312 13.0109 6.17375 11.3919 6.07406 9.625H11.5259C11.4228 11.3953 11.0034 13.0144 10.4225 14.1969ZM11.5259 7.975H6.07406C6.17719 6.20469 6.59656 4.58563 7.1775 3.40313C7.91656 1.90094 8.60063 1.65 8.8 1.65C8.99938 1.65 9.68344 1.90094 10.4225 3.40313C11.0069 4.58906 11.4262 6.20813 11.5259 7.975ZM13.1794 9.625H15.9019C15.6062 12.1894 13.9528 14.3447 11.6806 15.345C12.5056 13.8738 13.0659 11.825 13.1794 9.625ZM15.9019 7.975H13.1794C13.0659 5.775 12.5056 3.72625 11.6806 2.255C13.9528 3.25875 15.6062 5.41063 15.9019 7.975ZM4.42063 7.975H1.69813C1.99375 5.41063 3.64719 3.25531 5.91938 2.255C5.09438 3.72625 4.53406 5.775 4.42063 7.975ZM1.69813 9.625H4.42063C4.53406 11.825 5.09438 13.8738 5.91938 15.345C3.64719 14.3413 1.99375 12.1894 1.69813 9.625ZM8.8 17.6C13.6606 17.6 17.6 13.6606 17.6 8.8C17.6 3.93938 13.6606 0 8.8 0C3.93938 0 0 3.93938 0 8.8C0 13.6606 3.93938 17.6 8.8 17.6Z" fill="#0E121B"/>
</svg>
