<svg width="28" height="28" viewBox="0 0 28 28" fill="none" xmlns="http://www.w3.org/2000/svg">
<path d="M14.0002 2.8C13.4183 2.8 12.9502 3.26812 12.9502 3.85V4.27437C9.38894 4.78187 6.6502 7.84875 6.6502 11.55V12.1844C6.6502 13.8337 6.2127 15.4525 5.38145 16.8787L4.42332 18.515C4.27895 18.7687 4.2002 19.0531 4.2002 19.3462C4.2002 20.2606 4.93957 21 5.85395 21H22.1464C23.0608 21 23.8002 20.2606 23.8002 19.3462C23.8002 19.0531 23.7214 18.7644 23.5771 18.515L22.6189 16.8744C21.7877 15.4481 21.3502 13.8294 21.3502 12.18V11.5456C21.3502 7.84437 18.6114 4.7775 15.0502 4.27V3.84562C15.0502 3.26375 14.5821 2.79562 14.0002 2.79562V2.8ZM21.3677 18.9H6.62832L7.19269 17.9331C8.21207 16.1875 8.7502 14.2012 8.7502 12.1844V11.55C8.7502 8.64937 11.0996 6.3 14.0002 6.3C16.9008 6.3 19.2502 8.64937 19.2502 11.55V12.1844C19.2502 14.2056 19.7883 16.1875 20.8033 17.9331L21.3677 18.9ZM11.0296 23.1C11.4627 24.325 12.6308 25.2 14.0002 25.2C15.3696 25.2 16.5377 24.325 16.9708 23.1H11.0296Z" fill="#0E121B"/>
</svg>
