<svg width="28" height="28" viewBox="0 0 28 28" fill="none" xmlns="http://www.w3.org/2000/svg">
<path d="M13.5669 2.89188C13.9432 2.72125 14.385 2.78688 14.6913 3.0625L20.6413 8.3125C20.8732 8.51813 21 8.81125 20.9957 9.1175C20.9913 9.42375 20.8513 9.7125 20.615 9.90938L15.6538 14L20.6194 18.0906C20.8557 18.2875 20.9957 18.5763 21 18.8825C21.0044 19.1888 20.8775 19.4863 20.6457 19.6875L14.6957 24.9375C14.385 25.2088 13.9475 25.2788 13.5713 25.1081C13.195 24.9375 12.95 24.5613 12.95 24.15V16.2269L8.7194 19.7138C8.27315 20.0813 7.60815 20.02 7.24065 19.5694C6.87315 19.1188 6.9344 18.4581 7.38503 18.0906L12.3463 14L7.38065 9.90938C6.9344 9.54188 6.86878 8.88125 7.24065 8.43063C7.61253 7.98 8.26878 7.91875 8.7194 8.29063L12.95 11.7731V3.85C12.95 3.43875 13.1907 3.0625 13.5669 2.89188ZM15.05 16.2269V21.8269L18.3313 18.9306L15.05 16.2269ZM15.05 11.7775L18.3313 9.07375L15.05 6.1775V11.7775Z" fill="#0E121B"/>
</svg>
