<svg width="28" height="28" viewBox="0 0 28 28" fill="none" xmlns="http://www.w3.org/2000/svg">
<path d="M11.2479 4.2C10.4298 4.2 9.66418 4.61125 9.20918 5.28938L8.07168 7H5.5998C4.05543 7 2.7998 8.25563 2.7998 9.8V21C2.7998 22.5444 4.05543 23.8 5.5998 23.8H22.3998C23.9442 23.8 25.1998 22.5444 25.1998 21V9.8C25.1998 8.25563 23.9442 7 22.3998 7H19.9279L18.7904 5.28938C18.3354 4.61125 17.5698 4.2 16.7517 4.2H11.2479ZM10.9548 6.4575C11.0204 6.36125 11.1298 6.3 11.2479 6.3H16.7473C16.8654 6.3 16.9748 6.35688 17.0404 6.4575L18.4929 8.63625C18.6898 8.92938 19.0136 9.10438 19.3679 9.10438H22.3998C22.7848 9.10438 23.0998 9.41938 23.0998 9.80438V21.0044C23.0998 21.3894 22.7848 21.7044 22.3998 21.7044L5.5998 21.7C5.2148 21.7 4.8998 21.385 4.8998 21V9.8C4.8998 9.415 5.2148 9.1 5.5998 9.1H8.63168C8.98168 9.1 9.30981 8.925 9.50668 8.63188L10.9592 6.45313L10.9548 6.4575ZM13.9998 19.6C16.7079 19.6 18.8998 17.4081 18.8998 14.7C18.8998 11.9919 16.7079 9.8 13.9998 9.8C11.2917 9.8 9.0998 11.9919 9.0998 14.7C9.0998 17.4081 11.2917 19.6 13.9998 19.6ZM11.1998 14.7C11.1998 13.1556 12.4554 11.9 13.9998 11.9C15.5442 11.9 16.7998 13.1556 16.7998 14.7C16.7998 16.2444 15.5442 17.5 13.9998 17.5C12.4554 17.5 11.1998 16.2444 11.1998 14.7Z" fill="#0E121B"/>
</svg>
