<svg width="28" height="28" viewBox="0 0 28 28" fill="none" xmlns="http://www.w3.org/2000/svg">
<path d="M7.7001 11.0513C7.7001 7.68688 10.487 4.9 14.0001 4.9C17.5132 4.9 20.3001 7.68688 20.3001 11.0513C20.3001 13.0463 19.2588 15.4919 17.7232 17.9244C16.4851 19.8844 15.0545 21.6344 14.0001 22.8288C12.9457 21.6344 11.5195 19.8888 10.277 17.9244C8.74135 15.4963 7.7001 13.0463 7.7001 11.0513ZM14.0001 2.8C9.3626 2.8 5.6001 6.4925 5.6001 11.0513C5.6001 16.2706 10.8588 22.5269 13.0551 24.9113C13.5713 25.4713 14.4288 25.4713 14.9451 24.9113C17.1413 22.5269 22.4001 16.2706 22.4001 11.0513C22.4001 6.4925 18.6376 2.8 14.0001 2.8ZM12.6001 11.2C12.6001 10.4256 13.2257 9.8 14.0001 9.8C14.7745 9.8 15.4001 10.4256 15.4001 11.2C15.4001 11.9744 14.7745 12.6 14.0001 12.6C13.2257 12.6 12.6001 11.9744 12.6001 11.2ZM17.5001 11.2C17.5001 9.26625 15.9338 7.7 14.0001 7.7C12.0663 7.7 10.5001 9.26625 10.5001 11.2C10.5001 13.1338 12.0663 14.7 14.0001 14.7C15.9338 14.7 17.5001 13.1338 17.5001 11.2Z" fill="#0E121B"/>
</svg>
