<svg width="22" height="22" viewBox="0 0 22 22" fill="none" xmlns="http://www.w3.org/2000/svg">
<path d="M11.0002 19.8C15.8608 19.8 19.8002 15.8606 19.8002 11C19.8002 6.13937 15.8608 2.2 11.0002 2.2C6.13957 2.2 2.2002 6.13937 2.2002 11C2.2002 15.8606 6.13957 19.8 11.0002 19.8ZM7.94082 7.94062C8.26395 7.6175 8.78645 7.6175 9.10613 7.94062L10.9968 9.83125L12.8874 7.94062C13.2105 7.6175 13.733 7.6175 14.0527 7.94062C14.3724 8.26375 14.3758 8.78625 14.0527 9.10593L12.1621 10.9966L14.0527 12.8872C14.3758 13.2103 14.3758 13.7328 14.0527 14.0525C13.7296 14.3722 13.2071 14.3756 12.8874 14.0525L10.9968 12.1619L9.10613 14.0525C8.78301 14.3756 8.26051 14.3756 7.94082 14.0525C7.62113 13.7294 7.6177 13.2069 7.94082 12.8872L9.83145 10.9966L7.94082 9.10593C7.6177 8.78281 7.6177 8.26031 7.94082 7.94062Z" fill="#B0B5BF"/>
</svg>
