<svg width="22" height="22" viewBox="0 0 22 22" fill="none" xmlns="http://www.w3.org/2000/svg">
<path d="M11.0002 19.8C6.13957 19.8 2.2002 15.8606 2.2002 11C2.2002 6.13937 6.13957 2.2 11.0002 2.2C15.8608 2.2 19.8002 6.13937 19.8002 11C19.8002 15.8606 15.8608 19.8 11.0002 19.8ZM15.0564 7.20843C14.6886 6.94031 14.173 7.02281 13.9049 7.39062L9.80051 13.035L8.00957 11.2441C7.68645 10.9209 7.16395 10.9209 6.84426 11.2441C6.52457 11.5672 6.52113 12.0897 6.84426 12.4094L9.31926 14.8844C9.49113 15.0562 9.72488 15.1422 9.96551 15.125C10.2061 15.1078 10.4261 14.9841 10.5671 14.7881L15.2386 8.36C15.5068 7.99218 15.4243 7.47656 15.0564 7.20843Z" fill="#00AB1C"/>
</svg>
