<svg width="22" height="22" viewBox="0 0 22 22" fill="none" xmlns="http://www.w3.org/2000/svg">
<path d="M14.8499 9.35C14.8499 6.31125 12.3887 3.85 9.34995 3.85C6.3112 3.85 3.84995 6.31125 3.84995 9.35C3.84995 12.3888 6.3112 14.85 9.34995 14.85C12.3887 14.85 14.8499 12.3888 14.8499 9.35ZM13.7878 14.9566C12.5709 15.9225 11.0275 16.5 9.34995 16.5C5.40026 16.5 2.19995 13.2997 2.19995 9.35C2.19995 5.40031 5.40026 2.2 9.34995 2.2C13.2996 2.2 16.5 5.40031 16.5 9.35C16.5 11.0275 15.9225 12.5709 14.9565 13.7878L19.5593 18.3906C19.8825 18.7137 19.8825 19.2363 19.5593 19.5559C19.2362 19.8756 18.7137 19.8791 18.394 19.5559L13.7878 14.9566Z" fill="#0E121B"/>
</svg>
