<svg width="16" height="16" viewBox="0 0 16 16" fill="none" xmlns="http://www.w3.org/2000/svg">
<path d="M8.00001 14.4C11.535 14.4 14.4 11.535 14.4 8.00001C14.4 4.46501 11.535 1.60001 8.00001 1.60001C4.46501 1.60001 1.60001 4.46501 1.60001 8.00001C1.60001 11.535 4.46501 14.4 8.00001 14.4ZM7.20001 5.60001C7.20001 5.15751 7.55751 4.80001 8.00001 4.80001C8.44251 4.80001 8.80001 5.15751 8.80001 5.60001C8.80001 6.04251 8.44251 6.40001 8.00001 6.40001C7.55751 6.40001 7.20001 6.04251 7.20001 5.60001ZM7.00001 7.20001H8.20001C8.53251 7.20001 8.80001 7.46751 8.80001 7.80001V10H9.00001C9.33251 10 9.60001 10.2675 9.60001 10.6C9.60001 10.9325 9.33251 11.2 9.00001 11.2H7.00001C6.66751 11.2 6.40001 10.9325 6.40001 10.6C6.40001 10.2675 6.66751 10 7.00001 10H7.60001V8.40001H7.00001C6.66751 8.40001 6.40001 8.13251 6.40001 7.80001C6.40001 7.46751 6.66751 7.20001 7.00001 7.20001Z" fill="#B0B5BF"/>
</svg>
