<svg width="16" height="16" viewBox="0 0 16 16" fill="none" xmlns="http://www.w3.org/2000/svg">
<path d="M4.5775 3.43499C4.265 3.12249 3.7575 3.12249 3.445 3.43499C3.1325 3.74749 3.1325 4.255 3.445 4.5675L6.88 8L3.4475 11.435C3.135 11.7475 3.135 12.255 3.4475 12.5675C3.76 12.88 4.2675 12.88 4.58 12.5675L8.0125 9.1325L11.4475 12.565C11.76 12.8775 12.2675 12.8775 12.58 12.565C12.8925 12.2525 12.8925 11.745 12.58 11.4325L9.145 8L12.5775 4.565C12.89 4.2525 12.89 3.745 12.5775 3.4325C12.265 3.12 11.7575 3.12 11.445 3.4325L8.0125 6.8675L4.5775 3.43499Z" fill="#0E121B"/>
</svg>
